%
M48
M72
T01C0.0400
%
T01
X1125Y8125
X2125Y8125
X3125Y8125
X4125Y8125
X5125Y8125
X6125Y8125
X7125Y8125
X8125Y8125
X9125Y8125
X10125Y8125
X11125Y8125
X12125Y8125
X13125Y8125
X14125Y8125
X15125Y8125
X16125Y8125
X17125Y8125
X18125Y8125
X19125Y8125
X20125Y8125
X21125Y8125
X22125Y8125
X23125Y8125
X24125Y8125
X25125Y8125
X25125Y7125
X24125Y7125
X23125Y7125
X22125Y7125
X21125Y7125
X20125Y7125
X19125Y7125
X18125Y7125
X17125Y7125
X16125Y7125
X15125Y7125
X14125Y7125
X13125Y7125
X12125Y7125
X11125Y7125
X10125Y7125
X9125Y7125
X8125Y7125
X7125Y7125
X6125Y7125
X5125Y7125
X4125Y7125
X3125Y7125
X2125Y7125
X1125Y7125
X1125Y6125
X2125Y6125
X3125Y6125
X4125Y6125
X5125Y6125
X6125Y6125
X7125Y6125
X8125Y6125
X9125Y6125
X10125Y6125
X11125Y6125
X12125Y6125
X13125Y6125
X14125Y6125
X15125Y6125
X16125Y6125
X17125Y6125
X18125Y6125
X19125Y6125
X20125Y6125
X21125Y6125
X22125Y6125
X23125Y6125
X24125Y6125
X25125Y6125
X25125Y5125
X24125Y5125
X23125Y5125
X22125Y5125
X21125Y5125
X20125Y5125
X19125Y5125
X18125Y5125
X17125Y5125
X16125Y5125
X15125Y5125
X14125Y5125
X13125Y5125
X12125Y5125
X11125Y5125
X10125Y5125
X9125Y5125
X8125Y5125
X7125Y5125
X6125Y5125
X5125Y5125
X4125Y5125
X3125Y5125
X2125Y5125
X1125Y5125
X1125Y4125
X2125Y4125
X3125Y4125
X4125Y4125
X5125Y4125
X6125Y4125
X7125Y4125
X8125Y4125
X9125Y4125
X10125Y4125
X11125Y4125
X12125Y4125
X13125Y4125
X14125Y4125
X15125Y4125
X16125Y4125
X17125Y4125
X18125Y4125
X19125Y4125
X20125Y4125
X21125Y4125
X22125Y4125
X23125Y4125
X24125Y4125
X25125Y4125
X25125Y3125
X24125Y3125
X23125Y3125
X22125Y3125
X21125Y3125
X20125Y3125
X19125Y3125
X18125Y3125
X17125Y3125
X16125Y3125
X15125Y3125
X14125Y3125
X13125Y3125
X12125Y3125
X11125Y3125
X10125Y3125
X9125Y3125
X8125Y3125
X9125Y2125
X10125Y2125
X11125Y2125
X12125Y2125
X13125Y2125
X14125Y2125
X15125Y2125
X16125Y2125
X17125Y2125
X18125Y2125
X19125Y2125
X20125Y2125
X21125Y2125
X22125Y2125
X23125Y2125
X24125Y2125
X25125Y2125
X22125Y1125
X21125Y1125
X20125Y1125
X19125Y1125
X18125Y1125
X17125Y1125
X16125Y1125
X15125Y1125
X14125Y1125
X13125Y1125
X12125Y1125
X11125Y1125
X10125Y1125
M30
