G75*
%MOIN*%
%OFA0B0*%
%FSLAX24Y24*%
%IPPOS*%
%LPD*%
%AMOC8*
5,1,8,0,0,1.08239X$1,22.5*
%
%ADD10C,0.0050*%
%ADD11C,0.0000*%
%ADD12R,0.1260X0.0500*%
%ADD13C,0.0281*%
%ADD14C,0.0354*%
%ADD15C,0.0488*%
%ADD16R,0.0472X0.0591*%
%ADD17R,0.0591X0.0591*%
%ADD18R,0.0250X0.0500*%
%ADD19C,0.0080*%
%ADD20R,0.2000X0.2000*%
%ADD21C,0.0740*%
%ADD22C,0.0330*%
%ADD23C,0.0120*%
%ADD24C,0.0240*%
%ADD25C,0.0400*%
%ADD26C,0.0320*%
%ADD27C,0.0436*%
D10*
X017760Y016393D02*
X052760Y016393D01*
X052836Y016395D01*
X052912Y016401D01*
X052987Y016410D01*
X053062Y016424D01*
X053136Y016441D01*
X053209Y016462D01*
X053281Y016486D01*
X053352Y016515D01*
X053421Y016546D01*
X053488Y016581D01*
X053553Y016620D01*
X053617Y016662D01*
X053678Y016707D01*
X053737Y016755D01*
X053793Y016806D01*
X053847Y016860D01*
X053898Y016916D01*
X053946Y016975D01*
X053991Y017036D01*
X054033Y017100D01*
X054072Y017165D01*
X054107Y017232D01*
X054138Y017301D01*
X054167Y017372D01*
X054191Y017444D01*
X054212Y017517D01*
X054229Y017591D01*
X054243Y017666D01*
X054252Y017741D01*
X054258Y017817D01*
X054260Y017893D01*
X054260Y034893D01*
X054258Y034969D01*
X054252Y035045D01*
X054243Y035120D01*
X054229Y035195D01*
X054212Y035269D01*
X054191Y035342D01*
X054167Y035414D01*
X054138Y035485D01*
X054107Y035554D01*
X054072Y035621D01*
X054033Y035686D01*
X053991Y035750D01*
X053946Y035811D01*
X053898Y035870D01*
X053847Y035926D01*
X053793Y035980D01*
X053737Y036031D01*
X053678Y036079D01*
X053617Y036124D01*
X053553Y036166D01*
X053488Y036205D01*
X053421Y036240D01*
X053352Y036271D01*
X053281Y036300D01*
X053209Y036324D01*
X053136Y036345D01*
X053062Y036362D01*
X052987Y036376D01*
X052912Y036385D01*
X052836Y036391D01*
X052760Y036393D01*
X017760Y036393D01*
X017684Y036391D01*
X017608Y036385D01*
X017533Y036376D01*
X017458Y036362D01*
X017384Y036345D01*
X017311Y036324D01*
X017239Y036300D01*
X017168Y036271D01*
X017099Y036240D01*
X017032Y036205D01*
X016967Y036166D01*
X016903Y036124D01*
X016842Y036079D01*
X016783Y036031D01*
X016727Y035980D01*
X016673Y035926D01*
X016622Y035870D01*
X016574Y035811D01*
X016529Y035750D01*
X016487Y035686D01*
X016448Y035621D01*
X016413Y035554D01*
X016382Y035485D01*
X016353Y035414D01*
X016329Y035342D01*
X016308Y035269D01*
X016291Y035195D01*
X016277Y035120D01*
X016268Y035045D01*
X016262Y034969D01*
X016260Y034893D01*
X016260Y017893D01*
X016262Y017817D01*
X016268Y017741D01*
X016277Y017666D01*
X016291Y017591D01*
X016308Y017517D01*
X016329Y017444D01*
X016353Y017372D01*
X016382Y017301D01*
X016413Y017232D01*
X016448Y017165D01*
X016487Y017100D01*
X016529Y017036D01*
X016574Y016975D01*
X016622Y016916D01*
X016673Y016860D01*
X016727Y016806D01*
X016783Y016755D01*
X016842Y016707D01*
X016903Y016662D01*
X016967Y016620D01*
X017032Y016581D01*
X017099Y016546D01*
X017168Y016515D01*
X017239Y016486D01*
X017311Y016462D01*
X017384Y016441D01*
X017458Y016424D01*
X017533Y016410D01*
X017608Y016401D01*
X017684Y016395D01*
X017760Y016393D01*
D11*
X016874Y017893D02*
X016876Y017952D01*
X016882Y018011D01*
X016892Y018069D01*
X016905Y018127D01*
X016923Y018184D01*
X016944Y018239D01*
X016969Y018293D01*
X016998Y018345D01*
X017030Y018394D01*
X017065Y018442D01*
X017103Y018487D01*
X017144Y018530D01*
X017188Y018570D01*
X017234Y018606D01*
X017283Y018640D01*
X017334Y018670D01*
X017387Y018697D01*
X017442Y018720D01*
X017497Y018739D01*
X017555Y018755D01*
X017613Y018767D01*
X017671Y018775D01*
X017730Y018779D01*
X017790Y018779D01*
X017849Y018775D01*
X017907Y018767D01*
X017965Y018755D01*
X018023Y018739D01*
X018078Y018720D01*
X018133Y018697D01*
X018186Y018670D01*
X018237Y018640D01*
X018286Y018606D01*
X018332Y018570D01*
X018376Y018530D01*
X018417Y018487D01*
X018455Y018442D01*
X018490Y018394D01*
X018522Y018345D01*
X018551Y018293D01*
X018576Y018239D01*
X018597Y018184D01*
X018615Y018127D01*
X018628Y018069D01*
X018638Y018011D01*
X018644Y017952D01*
X018646Y017893D01*
X018644Y017834D01*
X018638Y017775D01*
X018628Y017717D01*
X018615Y017659D01*
X018597Y017602D01*
X018576Y017547D01*
X018551Y017493D01*
X018522Y017441D01*
X018490Y017392D01*
X018455Y017344D01*
X018417Y017299D01*
X018376Y017256D01*
X018332Y017216D01*
X018286Y017180D01*
X018237Y017146D01*
X018186Y017116D01*
X018133Y017089D01*
X018078Y017066D01*
X018023Y017047D01*
X017965Y017031D01*
X017907Y017019D01*
X017849Y017011D01*
X017790Y017007D01*
X017730Y017007D01*
X017671Y017011D01*
X017613Y017019D01*
X017555Y017031D01*
X017497Y017047D01*
X017442Y017066D01*
X017387Y017089D01*
X017334Y017116D01*
X017283Y017146D01*
X017234Y017180D01*
X017188Y017216D01*
X017144Y017256D01*
X017103Y017299D01*
X017065Y017344D01*
X017030Y017392D01*
X016998Y017441D01*
X016969Y017493D01*
X016944Y017547D01*
X016923Y017602D01*
X016905Y017659D01*
X016892Y017717D01*
X016882Y017775D01*
X016876Y017834D01*
X016874Y017893D01*
X021086Y019011D02*
X021088Y019050D01*
X021094Y019089D01*
X021104Y019127D01*
X021117Y019164D01*
X021134Y019199D01*
X021154Y019233D01*
X021178Y019264D01*
X021205Y019293D01*
X021234Y019319D01*
X021266Y019342D01*
X021300Y019362D01*
X021336Y019378D01*
X021373Y019390D01*
X021412Y019399D01*
X021451Y019404D01*
X021490Y019405D01*
X021529Y019402D01*
X021568Y019395D01*
X021605Y019384D01*
X021642Y019370D01*
X021677Y019352D01*
X021710Y019331D01*
X021741Y019306D01*
X021769Y019279D01*
X021794Y019249D01*
X021816Y019216D01*
X021835Y019182D01*
X021850Y019146D01*
X021862Y019108D01*
X021870Y019070D01*
X021874Y019031D01*
X021874Y018991D01*
X021870Y018952D01*
X021862Y018914D01*
X021850Y018876D01*
X021835Y018840D01*
X021816Y018806D01*
X021794Y018773D01*
X021769Y018743D01*
X021741Y018716D01*
X021710Y018691D01*
X021677Y018670D01*
X021642Y018652D01*
X021605Y018638D01*
X021568Y018627D01*
X021529Y018620D01*
X021490Y018617D01*
X021451Y018618D01*
X021412Y018623D01*
X021373Y018632D01*
X021336Y018644D01*
X021300Y018660D01*
X021266Y018680D01*
X021234Y018703D01*
X021205Y018729D01*
X021178Y018758D01*
X021154Y018789D01*
X021134Y018823D01*
X021117Y018858D01*
X021104Y018895D01*
X021094Y018933D01*
X021088Y018972D01*
X021086Y019011D01*
X021086Y033775D02*
X021088Y033814D01*
X021094Y033853D01*
X021104Y033891D01*
X021117Y033928D01*
X021134Y033963D01*
X021154Y033997D01*
X021178Y034028D01*
X021205Y034057D01*
X021234Y034083D01*
X021266Y034106D01*
X021300Y034126D01*
X021336Y034142D01*
X021373Y034154D01*
X021412Y034163D01*
X021451Y034168D01*
X021490Y034169D01*
X021529Y034166D01*
X021568Y034159D01*
X021605Y034148D01*
X021642Y034134D01*
X021677Y034116D01*
X021710Y034095D01*
X021741Y034070D01*
X021769Y034043D01*
X021794Y034013D01*
X021816Y033980D01*
X021835Y033946D01*
X021850Y033910D01*
X021862Y033872D01*
X021870Y033834D01*
X021874Y033795D01*
X021874Y033755D01*
X021870Y033716D01*
X021862Y033678D01*
X021850Y033640D01*
X021835Y033604D01*
X021816Y033570D01*
X021794Y033537D01*
X021769Y033507D01*
X021741Y033480D01*
X021710Y033455D01*
X021677Y033434D01*
X021642Y033416D01*
X021605Y033402D01*
X021568Y033391D01*
X021529Y033384D01*
X021490Y033381D01*
X021451Y033382D01*
X021412Y033387D01*
X021373Y033396D01*
X021336Y033408D01*
X021300Y033424D01*
X021266Y033444D01*
X021234Y033467D01*
X021205Y033493D01*
X021178Y033522D01*
X021154Y033553D01*
X021134Y033587D01*
X021117Y033622D01*
X021104Y033659D01*
X021094Y033697D01*
X021088Y033736D01*
X021086Y033775D01*
X016874Y034893D02*
X016876Y034952D01*
X016882Y035011D01*
X016892Y035069D01*
X016905Y035127D01*
X016923Y035184D01*
X016944Y035239D01*
X016969Y035293D01*
X016998Y035345D01*
X017030Y035394D01*
X017065Y035442D01*
X017103Y035487D01*
X017144Y035530D01*
X017188Y035570D01*
X017234Y035606D01*
X017283Y035640D01*
X017334Y035670D01*
X017387Y035697D01*
X017442Y035720D01*
X017497Y035739D01*
X017555Y035755D01*
X017613Y035767D01*
X017671Y035775D01*
X017730Y035779D01*
X017790Y035779D01*
X017849Y035775D01*
X017907Y035767D01*
X017965Y035755D01*
X018023Y035739D01*
X018078Y035720D01*
X018133Y035697D01*
X018186Y035670D01*
X018237Y035640D01*
X018286Y035606D01*
X018332Y035570D01*
X018376Y035530D01*
X018417Y035487D01*
X018455Y035442D01*
X018490Y035394D01*
X018522Y035345D01*
X018551Y035293D01*
X018576Y035239D01*
X018597Y035184D01*
X018615Y035127D01*
X018628Y035069D01*
X018638Y035011D01*
X018644Y034952D01*
X018646Y034893D01*
X018644Y034834D01*
X018638Y034775D01*
X018628Y034717D01*
X018615Y034659D01*
X018597Y034602D01*
X018576Y034547D01*
X018551Y034493D01*
X018522Y034441D01*
X018490Y034392D01*
X018455Y034344D01*
X018417Y034299D01*
X018376Y034256D01*
X018332Y034216D01*
X018286Y034180D01*
X018237Y034146D01*
X018186Y034116D01*
X018133Y034089D01*
X018078Y034066D01*
X018023Y034047D01*
X017965Y034031D01*
X017907Y034019D01*
X017849Y034011D01*
X017790Y034007D01*
X017730Y034007D01*
X017671Y034011D01*
X017613Y034019D01*
X017555Y034031D01*
X017497Y034047D01*
X017442Y034066D01*
X017387Y034089D01*
X017334Y034116D01*
X017283Y034146D01*
X017234Y034180D01*
X017188Y034216D01*
X017144Y034256D01*
X017103Y034299D01*
X017065Y034344D01*
X017030Y034392D01*
X016998Y034441D01*
X016969Y034493D01*
X016944Y034547D01*
X016923Y034602D01*
X016905Y034659D01*
X016892Y034717D01*
X016882Y034775D01*
X016876Y034834D01*
X016874Y034893D01*
X042911Y017435D02*
X042913Y017461D01*
X042919Y017487D01*
X042928Y017511D01*
X042941Y017534D01*
X042958Y017554D01*
X042977Y017572D01*
X042999Y017587D01*
X043022Y017598D01*
X043047Y017606D01*
X043073Y017610D01*
X043099Y017610D01*
X043125Y017606D01*
X043150Y017598D01*
X043174Y017587D01*
X043195Y017572D01*
X043214Y017554D01*
X043231Y017534D01*
X043244Y017511D01*
X043253Y017487D01*
X043259Y017461D01*
X043261Y017435D01*
X043259Y017409D01*
X043253Y017383D01*
X043244Y017359D01*
X043231Y017336D01*
X043214Y017316D01*
X043195Y017298D01*
X043173Y017283D01*
X043150Y017272D01*
X043125Y017264D01*
X043099Y017260D01*
X043073Y017260D01*
X043047Y017264D01*
X043022Y017272D01*
X042998Y017283D01*
X042977Y017298D01*
X042958Y017316D01*
X042941Y017336D01*
X042928Y017359D01*
X042919Y017383D01*
X042913Y017409D01*
X042911Y017435D01*
X046060Y017435D02*
X046062Y017461D01*
X046068Y017487D01*
X046077Y017511D01*
X046090Y017534D01*
X046107Y017554D01*
X046126Y017572D01*
X046148Y017587D01*
X046171Y017598D01*
X046196Y017606D01*
X046222Y017610D01*
X046248Y017610D01*
X046274Y017606D01*
X046299Y017598D01*
X046323Y017587D01*
X046344Y017572D01*
X046363Y017554D01*
X046380Y017534D01*
X046393Y017511D01*
X046402Y017487D01*
X046408Y017461D01*
X046410Y017435D01*
X046408Y017409D01*
X046402Y017383D01*
X046393Y017359D01*
X046380Y017336D01*
X046363Y017316D01*
X046344Y017298D01*
X046322Y017283D01*
X046299Y017272D01*
X046274Y017264D01*
X046248Y017260D01*
X046222Y017260D01*
X046196Y017264D01*
X046171Y017272D01*
X046147Y017283D01*
X046126Y017298D01*
X046107Y017316D01*
X046090Y017336D01*
X046077Y017359D01*
X046068Y017383D01*
X046062Y017409D01*
X046060Y017435D01*
X048645Y019011D02*
X048647Y019050D01*
X048653Y019089D01*
X048663Y019127D01*
X048676Y019164D01*
X048693Y019199D01*
X048713Y019233D01*
X048737Y019264D01*
X048764Y019293D01*
X048793Y019319D01*
X048825Y019342D01*
X048859Y019362D01*
X048895Y019378D01*
X048932Y019390D01*
X048971Y019399D01*
X049010Y019404D01*
X049049Y019405D01*
X049088Y019402D01*
X049127Y019395D01*
X049164Y019384D01*
X049201Y019370D01*
X049236Y019352D01*
X049269Y019331D01*
X049300Y019306D01*
X049328Y019279D01*
X049353Y019249D01*
X049375Y019216D01*
X049394Y019182D01*
X049409Y019146D01*
X049421Y019108D01*
X049429Y019070D01*
X049433Y019031D01*
X049433Y018991D01*
X049429Y018952D01*
X049421Y018914D01*
X049409Y018876D01*
X049394Y018840D01*
X049375Y018806D01*
X049353Y018773D01*
X049328Y018743D01*
X049300Y018716D01*
X049269Y018691D01*
X049236Y018670D01*
X049201Y018652D01*
X049164Y018638D01*
X049127Y018627D01*
X049088Y018620D01*
X049049Y018617D01*
X049010Y018618D01*
X048971Y018623D01*
X048932Y018632D01*
X048895Y018644D01*
X048859Y018660D01*
X048825Y018680D01*
X048793Y018703D01*
X048764Y018729D01*
X048737Y018758D01*
X048713Y018789D01*
X048693Y018823D01*
X048676Y018858D01*
X048663Y018895D01*
X048653Y018933D01*
X048647Y018972D01*
X048645Y019011D01*
X051874Y017893D02*
X051876Y017952D01*
X051882Y018011D01*
X051892Y018069D01*
X051905Y018127D01*
X051923Y018184D01*
X051944Y018239D01*
X051969Y018293D01*
X051998Y018345D01*
X052030Y018394D01*
X052065Y018442D01*
X052103Y018487D01*
X052144Y018530D01*
X052188Y018570D01*
X052234Y018606D01*
X052283Y018640D01*
X052334Y018670D01*
X052387Y018697D01*
X052442Y018720D01*
X052497Y018739D01*
X052555Y018755D01*
X052613Y018767D01*
X052671Y018775D01*
X052730Y018779D01*
X052790Y018779D01*
X052849Y018775D01*
X052907Y018767D01*
X052965Y018755D01*
X053023Y018739D01*
X053078Y018720D01*
X053133Y018697D01*
X053186Y018670D01*
X053237Y018640D01*
X053286Y018606D01*
X053332Y018570D01*
X053376Y018530D01*
X053417Y018487D01*
X053455Y018442D01*
X053490Y018394D01*
X053522Y018345D01*
X053551Y018293D01*
X053576Y018239D01*
X053597Y018184D01*
X053615Y018127D01*
X053628Y018069D01*
X053638Y018011D01*
X053644Y017952D01*
X053646Y017893D01*
X053644Y017834D01*
X053638Y017775D01*
X053628Y017717D01*
X053615Y017659D01*
X053597Y017602D01*
X053576Y017547D01*
X053551Y017493D01*
X053522Y017441D01*
X053490Y017392D01*
X053455Y017344D01*
X053417Y017299D01*
X053376Y017256D01*
X053332Y017216D01*
X053286Y017180D01*
X053237Y017146D01*
X053186Y017116D01*
X053133Y017089D01*
X053078Y017066D01*
X053023Y017047D01*
X052965Y017031D01*
X052907Y017019D01*
X052849Y017011D01*
X052790Y017007D01*
X052730Y017007D01*
X052671Y017011D01*
X052613Y017019D01*
X052555Y017031D01*
X052497Y017047D01*
X052442Y017066D01*
X052387Y017089D01*
X052334Y017116D01*
X052283Y017146D01*
X052234Y017180D01*
X052188Y017216D01*
X052144Y017256D01*
X052103Y017299D01*
X052065Y017344D01*
X052030Y017392D01*
X051998Y017441D01*
X051969Y017493D01*
X051944Y017547D01*
X051923Y017602D01*
X051905Y017659D01*
X051892Y017717D01*
X051882Y017775D01*
X051876Y017834D01*
X051874Y017893D01*
X048645Y033775D02*
X048647Y033814D01*
X048653Y033853D01*
X048663Y033891D01*
X048676Y033928D01*
X048693Y033963D01*
X048713Y033997D01*
X048737Y034028D01*
X048764Y034057D01*
X048793Y034083D01*
X048825Y034106D01*
X048859Y034126D01*
X048895Y034142D01*
X048932Y034154D01*
X048971Y034163D01*
X049010Y034168D01*
X049049Y034169D01*
X049088Y034166D01*
X049127Y034159D01*
X049164Y034148D01*
X049201Y034134D01*
X049236Y034116D01*
X049269Y034095D01*
X049300Y034070D01*
X049328Y034043D01*
X049353Y034013D01*
X049375Y033980D01*
X049394Y033946D01*
X049409Y033910D01*
X049421Y033872D01*
X049429Y033834D01*
X049433Y033795D01*
X049433Y033755D01*
X049429Y033716D01*
X049421Y033678D01*
X049409Y033640D01*
X049394Y033604D01*
X049375Y033570D01*
X049353Y033537D01*
X049328Y033507D01*
X049300Y033480D01*
X049269Y033455D01*
X049236Y033434D01*
X049201Y033416D01*
X049164Y033402D01*
X049127Y033391D01*
X049088Y033384D01*
X049049Y033381D01*
X049010Y033382D01*
X048971Y033387D01*
X048932Y033396D01*
X048895Y033408D01*
X048859Y033424D01*
X048825Y033444D01*
X048793Y033467D01*
X048764Y033493D01*
X048737Y033522D01*
X048713Y033553D01*
X048693Y033587D01*
X048676Y033622D01*
X048663Y033659D01*
X048653Y033697D01*
X048647Y033736D01*
X048645Y033775D01*
X051874Y034893D02*
X051876Y034952D01*
X051882Y035011D01*
X051892Y035069D01*
X051905Y035127D01*
X051923Y035184D01*
X051944Y035239D01*
X051969Y035293D01*
X051998Y035345D01*
X052030Y035394D01*
X052065Y035442D01*
X052103Y035487D01*
X052144Y035530D01*
X052188Y035570D01*
X052234Y035606D01*
X052283Y035640D01*
X052334Y035670D01*
X052387Y035697D01*
X052442Y035720D01*
X052497Y035739D01*
X052555Y035755D01*
X052613Y035767D01*
X052671Y035775D01*
X052730Y035779D01*
X052790Y035779D01*
X052849Y035775D01*
X052907Y035767D01*
X052965Y035755D01*
X053023Y035739D01*
X053078Y035720D01*
X053133Y035697D01*
X053186Y035670D01*
X053237Y035640D01*
X053286Y035606D01*
X053332Y035570D01*
X053376Y035530D01*
X053417Y035487D01*
X053455Y035442D01*
X053490Y035394D01*
X053522Y035345D01*
X053551Y035293D01*
X053576Y035239D01*
X053597Y035184D01*
X053615Y035127D01*
X053628Y035069D01*
X053638Y035011D01*
X053644Y034952D01*
X053646Y034893D01*
X053644Y034834D01*
X053638Y034775D01*
X053628Y034717D01*
X053615Y034659D01*
X053597Y034602D01*
X053576Y034547D01*
X053551Y034493D01*
X053522Y034441D01*
X053490Y034392D01*
X053455Y034344D01*
X053417Y034299D01*
X053376Y034256D01*
X053332Y034216D01*
X053286Y034180D01*
X053237Y034146D01*
X053186Y034116D01*
X053133Y034089D01*
X053078Y034066D01*
X053023Y034047D01*
X052965Y034031D01*
X052907Y034019D01*
X052849Y034011D01*
X052790Y034007D01*
X052730Y034007D01*
X052671Y034011D01*
X052613Y034019D01*
X052555Y034031D01*
X052497Y034047D01*
X052442Y034066D01*
X052387Y034089D01*
X052334Y034116D01*
X052283Y034146D01*
X052234Y034180D01*
X052188Y034216D01*
X052144Y034256D01*
X052103Y034299D01*
X052065Y034344D01*
X052030Y034392D01*
X051998Y034441D01*
X051969Y034493D01*
X051944Y034547D01*
X051923Y034602D01*
X051905Y034659D01*
X051892Y034717D01*
X051882Y034775D01*
X051876Y034834D01*
X051874Y034893D01*
D12*
X051752Y030393D03*
X051752Y029393D03*
X051752Y028393D03*
X049767Y028393D03*
X049767Y029393D03*
X049767Y030393D03*
X020752Y030393D03*
X020752Y029393D03*
X020752Y028393D03*
X018767Y028393D03*
X018767Y029393D03*
X018767Y030393D03*
D13*
X017776Y024684D02*
X017776Y024472D01*
X017776Y024684D02*
X017870Y024684D01*
X017870Y024472D01*
X017776Y024472D01*
X017776Y022715D02*
X017776Y022503D01*
X017776Y022715D02*
X017870Y022715D01*
X017870Y022503D01*
X017776Y022503D01*
D14*
X016888Y022215D02*
X016632Y022215D01*
X016632Y024971D02*
X016888Y024971D01*
D15*
X019646Y025143D03*
X022032Y026893D03*
X022510Y027393D03*
X022782Y022268D03*
X037785Y023393D03*
X040010Y023393D03*
X041760Y023393D03*
X043416Y023393D03*
X045409Y019268D03*
X049385Y020309D03*
X050884Y022043D03*
X050135Y018018D03*
X046510Y027143D03*
D16*
X048039Y022141D03*
X048039Y020921D03*
X048039Y019700D03*
D17*
X045637Y020311D03*
X045637Y021531D03*
D18*
X048497Y020309D03*
X048897Y020309D03*
X022437Y025643D03*
X022082Y025643D03*
D19*
X048547Y020309D02*
X048847Y020309D01*
D20*
G36*
X027174Y024893D02*
X025760Y023479D01*
X024346Y024893D01*
X025760Y026307D01*
X027174Y024893D01*
G37*
D21*
X032260Y026393D03*
X033260Y026393D03*
X034260Y026393D03*
X035260Y026393D03*
X036260Y026393D03*
X037260Y026393D03*
X038260Y026393D03*
X039260Y026393D03*
X040260Y026393D03*
X041260Y026393D03*
X042260Y026393D03*
X042260Y028393D03*
X043260Y028393D03*
X044260Y028393D03*
X044260Y029393D03*
X043260Y029393D03*
X043260Y030393D03*
X044260Y030393D03*
X045260Y030393D03*
X046260Y030393D03*
X047260Y030393D03*
X047260Y029393D03*
X046260Y029393D03*
X045260Y029393D03*
X045260Y031393D03*
X046260Y031393D03*
X047260Y031393D03*
X047260Y032393D03*
X046260Y032393D03*
X046260Y033393D03*
X047260Y033393D03*
X047260Y034393D03*
X046260Y034393D03*
X045260Y034393D03*
X045260Y033393D03*
X045260Y032393D03*
X044260Y032393D03*
X043260Y032393D03*
X043260Y033393D03*
X044260Y033393D03*
X044260Y034393D03*
X043260Y034393D03*
X042260Y034393D03*
X042260Y033393D03*
X042260Y032393D03*
X041260Y032393D03*
X040260Y032393D03*
X040260Y033393D03*
X041260Y033393D03*
X041260Y034393D03*
X040260Y034393D03*
X039260Y034393D03*
X038260Y034393D03*
X038260Y033393D03*
X039260Y033393D03*
X039260Y032393D03*
X038260Y032393D03*
X037260Y032393D03*
X037260Y033393D03*
X037260Y034393D03*
X036260Y034393D03*
X035260Y034393D03*
X035260Y033393D03*
X036260Y033393D03*
X036260Y032393D03*
X035260Y032393D03*
X034260Y032393D03*
X034260Y033393D03*
X034260Y034393D03*
X033260Y034393D03*
X032260Y034393D03*
X032260Y033393D03*
X033260Y033393D03*
X033260Y032393D03*
X032260Y032393D03*
X031260Y032393D03*
X030260Y032393D03*
X030260Y033393D03*
X031260Y033393D03*
X031260Y034393D03*
X030260Y034393D03*
X029260Y034393D03*
X029260Y033393D03*
X029260Y032393D03*
X028260Y032393D03*
X027260Y032393D03*
X027260Y033393D03*
X028260Y033393D03*
X028260Y034393D03*
X027260Y034393D03*
X026260Y034393D03*
X026260Y033393D03*
X026260Y032393D03*
X025260Y032393D03*
X024260Y032393D03*
X024260Y033393D03*
X025260Y033393D03*
X025260Y034393D03*
X024260Y034393D03*
X023260Y034393D03*
X023260Y033393D03*
X023260Y032393D03*
X023260Y031393D03*
X024260Y031393D03*
X025260Y031393D03*
X026260Y031393D03*
X027260Y031393D03*
X028260Y031393D03*
X029260Y031393D03*
X030260Y031393D03*
X031260Y031393D03*
X032260Y031393D03*
X033260Y031393D03*
X034260Y031393D03*
X035260Y031393D03*
X036260Y031393D03*
X037260Y031393D03*
X038260Y031393D03*
X039260Y031393D03*
X040260Y031393D03*
X041260Y031393D03*
X042260Y031393D03*
X043260Y031393D03*
X044260Y031393D03*
X042260Y030393D03*
X042260Y029393D03*
X041260Y029393D03*
X040260Y029393D03*
X040260Y028393D03*
X041260Y028393D03*
X039260Y028393D03*
X038260Y028393D03*
X038260Y029393D03*
X039260Y029393D03*
X039260Y030393D03*
X038260Y030393D03*
X037260Y030393D03*
X037260Y029393D03*
X037260Y028393D03*
X036260Y028393D03*
X035260Y028393D03*
X035260Y029393D03*
X036260Y029393D03*
X036260Y030393D03*
X035260Y030393D03*
X034260Y030393D03*
X034260Y029393D03*
X034260Y028393D03*
X033260Y028393D03*
X032260Y028393D03*
X032260Y029393D03*
X033260Y029393D03*
X033260Y030393D03*
X032260Y030393D03*
X031260Y030393D03*
X030260Y030393D03*
X031260Y029393D03*
X031260Y035393D03*
X030260Y035393D03*
X029260Y035393D03*
X028260Y035393D03*
X027260Y035393D03*
X026260Y035393D03*
X025260Y035393D03*
X024260Y035393D03*
X023260Y035393D03*
X032260Y035393D03*
X033260Y035393D03*
X034260Y035393D03*
X035260Y035393D03*
X036260Y035393D03*
X037260Y035393D03*
X038260Y035393D03*
X039260Y035393D03*
X040260Y035393D03*
X041260Y035393D03*
X042260Y035393D03*
X043260Y035393D03*
X044260Y035393D03*
X045260Y035393D03*
X046260Y035393D03*
X047260Y035393D03*
X041260Y030393D03*
X040260Y030393D03*
D22*
X046510Y026518D03*
X046510Y025456D03*
X047960Y027493D03*
X050010Y027643D03*
X051760Y027643D03*
X052994Y027643D03*
X050157Y025081D03*
X049572Y024706D03*
X049572Y024081D03*
X049050Y023893D03*
X050157Y023643D03*
X050157Y024393D03*
X051660Y023593D03*
X049635Y021175D03*
X049760Y019643D03*
X048010Y018893D03*
X048635Y016893D03*
X044976Y019893D03*
X044110Y019593D03*
X043243Y020193D03*
X043243Y021143D03*
X044110Y021143D03*
X046510Y022143D03*
X045260Y023493D03*
X044543Y023393D03*
X043416Y025081D03*
X040360Y021193D03*
X041160Y020493D03*
X039135Y020518D03*
X038572Y021268D03*
X037760Y020193D03*
X037960Y018693D03*
X035456Y019593D03*
X035063Y019893D03*
X034669Y022143D03*
X035850Y022393D03*
X036244Y022143D03*
X037425Y022143D03*
X036637Y023518D03*
X032260Y022293D03*
X031760Y021643D03*
X030160Y022293D03*
X028447Y023331D03*
X028135Y023018D03*
X027510Y021643D03*
X027085Y020956D03*
X026760Y020706D03*
X025860Y020693D03*
X024960Y020956D03*
X024635Y021268D03*
X024310Y020956D03*
X024010Y021268D03*
X021760Y021393D03*
X021760Y020893D03*
X020657Y019943D03*
X019422Y019943D03*
X022782Y017871D03*
X023271Y018268D03*
X024160Y018793D03*
X019936Y016893D03*
X018385Y022268D03*
X018385Y024393D03*
X019660Y026493D03*
X022760Y024893D03*
X022510Y024143D03*
X023510Y022893D03*
X028472Y026456D03*
X028860Y026143D03*
X028060Y026768D03*
X028472Y027081D03*
X028160Y027393D03*
X027872Y027706D03*
X027560Y028018D03*
X026872Y028331D03*
X025760Y027768D03*
X024635Y027831D03*
X024360Y028293D03*
X025010Y028706D03*
X020760Y029893D03*
X020510Y028893D03*
X019010Y028893D03*
X017525Y031018D03*
X019960Y033593D03*
X021060Y032093D03*
X030635Y026059D03*
X030660Y025293D03*
X031135Y024768D03*
X031447Y024456D03*
X032335Y025081D03*
X031453Y025387D03*
X029957Y020831D03*
X030260Y018793D03*
X042960Y018693D03*
X049460Y031493D03*
D23*
X049092Y030753D02*
X049027Y030689D01*
X049027Y030098D01*
X049092Y030033D01*
X050443Y030033D01*
X050507Y030098D01*
X050507Y030155D01*
X050590Y030073D01*
X050590Y028866D01*
X050422Y029033D01*
X050443Y029033D01*
X050507Y029098D01*
X050507Y029689D01*
X050443Y029753D01*
X049092Y029753D01*
X049027Y029689D01*
X049027Y029098D01*
X049092Y029033D01*
X049629Y029033D01*
X049840Y028823D01*
X049909Y028753D01*
X049092Y028753D01*
X049027Y028689D01*
X049027Y028098D01*
X049092Y028033D01*
X050215Y028033D01*
X050215Y027827D01*
X050165Y027876D01*
X050064Y027918D01*
X049955Y027918D01*
X049854Y027876D01*
X049851Y027873D01*
X049289Y027873D01*
X049039Y027623D01*
X048905Y027489D01*
X048905Y025364D01*
X048852Y025311D01*
X046747Y025311D01*
X046785Y025401D01*
X046785Y025511D01*
X046743Y025612D01*
X046680Y025675D01*
X046680Y026299D01*
X046743Y026363D01*
X046785Y026464D01*
X046785Y026573D01*
X046743Y026674D01*
X046665Y026751D01*
X046574Y026789D01*
X046580Y026789D01*
X046710Y026843D01*
X046810Y026943D01*
X046864Y027073D01*
X046864Y027214D01*
X046810Y027344D01*
X046710Y027443D01*
X046580Y027497D01*
X046439Y027497D01*
X046309Y027443D01*
X046209Y027344D01*
X046155Y027214D01*
X046155Y027073D01*
X046209Y026943D01*
X046309Y026843D01*
X046439Y026789D01*
X046445Y026789D01*
X046354Y026751D01*
X046276Y026674D01*
X046235Y026573D01*
X046235Y026464D01*
X046276Y026363D01*
X046340Y026299D01*
X046340Y025675D01*
X046276Y025612D01*
X046235Y025511D01*
X046235Y025401D01*
X046272Y025311D01*
X043575Y025311D01*
X043572Y025314D01*
X043470Y025356D01*
X043361Y025356D01*
X043260Y025314D01*
X043257Y025311D01*
X034117Y025311D01*
X034130Y025323D01*
X034430Y025623D01*
X034430Y025944D01*
X034531Y025986D01*
X034666Y026121D01*
X034740Y026298D01*
X034740Y026489D01*
X034666Y026665D01*
X034531Y026800D01*
X034355Y026873D01*
X034164Y026873D01*
X033988Y026800D01*
X033853Y026665D01*
X033780Y026489D01*
X033780Y026298D01*
X033853Y026121D01*
X033988Y025986D01*
X034090Y025944D01*
X034090Y025764D01*
X033889Y025563D01*
X033270Y025563D01*
X033330Y025623D01*
X033430Y025723D01*
X033430Y025944D01*
X033531Y025986D01*
X033666Y026121D01*
X033740Y026298D01*
X033740Y026489D01*
X033666Y026665D01*
X033531Y026800D01*
X033355Y026873D01*
X033164Y026873D01*
X032988Y026800D01*
X032853Y026665D01*
X032780Y026489D01*
X032780Y026298D01*
X032853Y026121D01*
X032988Y025986D01*
X033090Y025944D01*
X033090Y025864D01*
X032989Y025763D01*
X032130Y025763D01*
X031330Y026564D01*
X031330Y027264D01*
X029230Y029364D01*
X029130Y029463D01*
X022230Y029463D01*
X021881Y029812D01*
X021888Y029828D01*
X021888Y029959D01*
X021838Y030079D01*
X021745Y030171D01*
X021625Y030221D01*
X021494Y030221D01*
X021492Y030220D01*
X021492Y030689D01*
X021427Y030753D01*
X020922Y030753D01*
X020922Y030839D01*
X020672Y031089D01*
X020572Y031188D01*
X017744Y031188D01*
X017681Y031251D01*
X017580Y031293D01*
X017470Y031293D01*
X017369Y031251D01*
X017292Y031174D01*
X017250Y031073D01*
X017250Y030964D01*
X017292Y030863D01*
X017369Y030785D01*
X017470Y030743D01*
X017580Y030743D01*
X017681Y030785D01*
X017744Y030848D01*
X020431Y030848D01*
X020526Y030753D01*
X020076Y030753D01*
X020012Y030689D01*
X020012Y030098D01*
X020076Y030033D01*
X020520Y030033D01*
X020485Y029948D01*
X020485Y029839D01*
X020520Y029753D01*
X020076Y029753D01*
X020012Y029689D01*
X020012Y029098D01*
X020076Y029033D01*
X020270Y029033D01*
X020235Y028948D01*
X020235Y028839D01*
X020270Y028753D01*
X020076Y028753D01*
X020012Y028689D01*
X020012Y028194D01*
X019642Y028563D01*
X019507Y028563D01*
X019507Y028689D01*
X019443Y028753D01*
X019249Y028753D01*
X019285Y028839D01*
X019285Y028948D01*
X019249Y029033D01*
X019443Y029033D01*
X019507Y029098D01*
X019507Y029689D01*
X019443Y029753D01*
X018092Y029753D01*
X018027Y029689D01*
X018027Y029098D01*
X018092Y029033D01*
X018770Y029033D01*
X018735Y028948D01*
X018735Y028839D01*
X018770Y028753D01*
X018092Y028753D01*
X018027Y028689D01*
X018027Y028098D01*
X018092Y028033D01*
X019443Y028033D01*
X019507Y028098D01*
X019507Y028218D01*
X020002Y027723D01*
X021580Y027723D01*
X021680Y027823D01*
X021830Y027973D01*
X022289Y027973D01*
X022515Y027747D01*
X022439Y027747D01*
X022309Y027693D01*
X022209Y027594D01*
X022197Y027563D01*
X021689Y027563D01*
X021590Y027464D01*
X021277Y027151D01*
X021277Y021135D01*
X021377Y021036D01*
X021485Y020928D01*
X021485Y020839D01*
X021526Y020738D01*
X021604Y020660D01*
X021705Y020618D01*
X021814Y020618D01*
X021915Y020660D01*
X021993Y020738D01*
X022035Y020839D01*
X022035Y020948D01*
X021993Y021049D01*
X021915Y021126D01*
X021875Y021143D01*
X021915Y021160D01*
X021993Y021238D01*
X022035Y021339D01*
X022035Y021448D01*
X021993Y021549D01*
X021930Y021612D01*
X021930Y025283D01*
X022195Y025283D01*
X022213Y025265D01*
X022250Y025244D01*
X022291Y025233D01*
X022434Y025233D01*
X022434Y025641D01*
X022439Y025641D01*
X022439Y025646D01*
X022434Y025646D01*
X022434Y026053D01*
X022291Y026053D01*
X022250Y026042D01*
X022213Y026021D01*
X022195Y026003D01*
X021930Y026003D01*
X021930Y026551D01*
X021931Y026552D01*
X021961Y026539D01*
X022102Y026539D01*
X022232Y026593D01*
X022332Y026693D01*
X022386Y026823D01*
X022386Y026964D01*
X022337Y027082D01*
X022439Y027039D01*
X022580Y027039D01*
X022710Y027093D01*
X022810Y027193D01*
X022864Y027323D01*
X022864Y027399D01*
X022890Y027373D01*
X022890Y025137D01*
X022814Y025168D01*
X022705Y025168D01*
X022604Y025126D01*
X022526Y025049D01*
X022485Y024948D01*
X022485Y024839D01*
X022526Y024738D01*
X022530Y024734D01*
X022530Y024548D01*
X023727Y023351D01*
X023544Y023168D01*
X023455Y023168D01*
X023354Y023126D01*
X023276Y023049D01*
X023235Y022948D01*
X023235Y022909D01*
X022680Y023464D01*
X022680Y023924D01*
X022743Y023988D01*
X022785Y024089D01*
X022785Y024198D01*
X022743Y024299D01*
X022665Y024376D01*
X022564Y024418D01*
X022455Y024418D01*
X022354Y024376D01*
X022276Y024299D01*
X022235Y024198D01*
X022235Y024089D01*
X022276Y023988D01*
X022340Y023924D01*
X022340Y023323D01*
X023215Y022448D01*
X023314Y022348D01*
X024439Y022348D01*
X025590Y021198D01*
X025689Y021098D01*
X026846Y021098D01*
X026810Y021011D01*
X026810Y020981D01*
X026705Y020981D01*
X026604Y020939D01*
X026526Y020862D01*
X026485Y020761D01*
X026485Y020651D01*
X026526Y020550D01*
X026604Y020473D01*
X026705Y020431D01*
X026794Y020431D01*
X026862Y020363D01*
X025280Y020363D01*
X025130Y020514D01*
X025130Y020737D01*
X025193Y020800D01*
X025235Y020901D01*
X025235Y021011D01*
X025193Y021112D01*
X025115Y021189D01*
X025014Y021231D01*
X024910Y021231D01*
X024910Y021323D01*
X024868Y021424D01*
X024790Y021501D01*
X024689Y021543D01*
X024580Y021543D01*
X024479Y021501D01*
X024401Y021424D01*
X024360Y021323D01*
X024360Y021231D01*
X024285Y021231D01*
X024285Y021323D01*
X024243Y021424D01*
X024165Y021501D01*
X024064Y021543D01*
X023955Y021543D01*
X023854Y021501D01*
X023776Y021424D01*
X023735Y021323D01*
X023735Y021214D01*
X023776Y021113D01*
X023840Y021049D01*
X023840Y019448D01*
X024090Y019198D01*
X024189Y019098D01*
X045096Y019098D01*
X045109Y019068D01*
X045208Y018968D01*
X045338Y018914D01*
X045479Y018914D01*
X045609Y018968D01*
X045709Y019068D01*
X045763Y019198D01*
X045763Y019339D01*
X045709Y019469D01*
X045609Y019568D01*
X045479Y019622D01*
X045338Y019622D01*
X045208Y019568D01*
X045109Y019469D01*
X045096Y019438D01*
X044343Y019438D01*
X044385Y019539D01*
X044385Y019648D01*
X044353Y019723D01*
X044757Y019723D01*
X044820Y019660D01*
X044921Y019618D01*
X045030Y019618D01*
X045131Y019660D01*
X045209Y019738D01*
X045251Y019839D01*
X045251Y019883D01*
X045280Y019866D01*
X045321Y019855D01*
X045577Y019855D01*
X045577Y020251D01*
X045182Y020251D01*
X045182Y020076D01*
X045146Y020112D01*
X045146Y021852D01*
X045208Y021914D01*
X045193Y021888D01*
X045182Y021847D01*
X045182Y021591D01*
X045577Y021591D01*
X045577Y021471D01*
X045182Y021471D01*
X045182Y021215D01*
X045193Y021174D01*
X045214Y021138D01*
X045244Y021108D01*
X045280Y021087D01*
X045321Y021076D01*
X045577Y021076D01*
X045577Y021471D01*
X045697Y021471D01*
X045697Y021076D01*
X045954Y021076D01*
X045994Y021087D01*
X046031Y021108D01*
X046061Y021138D01*
X046082Y021174D01*
X046093Y021215D01*
X046093Y021471D01*
X045697Y021471D01*
X045697Y021591D01*
X045577Y021591D01*
X045577Y021986D01*
X045321Y021986D01*
X045280Y021975D01*
X045255Y021961D01*
X045892Y022598D01*
X051017Y022598D01*
X051117Y022698D01*
X051367Y022948D01*
X051367Y027901D01*
X051267Y028001D01*
X051235Y028033D01*
X052427Y028033D01*
X052477Y028083D01*
X053381Y028083D01*
X053450Y028015D01*
X053450Y020143D01*
X053441Y020035D01*
X053374Y019830D01*
X049962Y019830D01*
X049993Y019799D02*
X049930Y019862D01*
X049930Y020714D01*
X049830Y020813D01*
X049805Y020839D01*
X049805Y020956D01*
X049868Y021019D01*
X049910Y021120D01*
X049910Y021230D01*
X049868Y021331D01*
X049790Y021408D01*
X049689Y021450D01*
X049580Y021450D01*
X049479Y021408D01*
X049401Y021331D01*
X049360Y021230D01*
X049360Y021120D01*
X049401Y021019D01*
X049465Y020956D01*
X049465Y020698D01*
X049531Y020631D01*
X049455Y020663D01*
X049314Y020663D01*
X049184Y020609D01*
X049132Y020557D01*
X049132Y020604D01*
X049068Y020669D01*
X048726Y020669D01*
X048697Y020639D01*
X048668Y020669D01*
X048385Y020669D01*
X048385Y021262D01*
X048321Y021326D01*
X047757Y021326D01*
X047693Y021262D01*
X047693Y020580D01*
X047757Y020516D01*
X048046Y020516D01*
X047944Y020414D01*
X047809Y020279D01*
X047809Y020106D01*
X047757Y020106D01*
X047693Y020041D01*
X047693Y019360D01*
X047757Y019295D01*
X048321Y019295D01*
X048385Y019360D01*
X048385Y019949D01*
X048668Y019949D01*
X048697Y019978D01*
X048726Y019949D01*
X049068Y019949D01*
X049132Y020013D01*
X049132Y020061D01*
X049184Y020009D01*
X049314Y019955D01*
X049455Y019955D01*
X049585Y020009D01*
X049590Y020013D01*
X049590Y019862D01*
X049526Y019799D01*
X049485Y019698D01*
X049485Y019589D01*
X049526Y019488D01*
X049604Y019410D01*
X049705Y019368D01*
X049814Y019368D01*
X049915Y019410D01*
X049993Y019488D01*
X050035Y019589D01*
X050035Y019698D01*
X049993Y019799D01*
X050029Y019711D02*
X053288Y019711D01*
X053247Y019655D02*
X053073Y019529D01*
X052867Y019462D01*
X052760Y019453D01*
X052554Y019453D01*
X052157Y019347D01*
X051802Y019142D01*
X051511Y018851D01*
X051306Y018495D01*
X051200Y018099D01*
X051200Y017893D01*
X051191Y017785D01*
X051124Y017580D01*
X050997Y017405D01*
X050823Y017279D01*
X050617Y017212D01*
X050510Y017203D01*
X050445Y017203D01*
X050445Y017842D01*
X050489Y017948D01*
X050489Y018089D01*
X050435Y018219D01*
X050335Y018318D01*
X050205Y018372D01*
X050064Y018372D01*
X049934Y018318D01*
X049834Y018219D01*
X049780Y018089D01*
X049780Y017948D01*
X049825Y017842D01*
X049825Y017203D01*
X046478Y017203D01*
X046519Y017245D01*
X046570Y017368D01*
X046570Y017502D01*
X046520Y017623D01*
X047563Y017623D01*
X047662Y017664D01*
X048162Y018164D01*
X048238Y018240D01*
X048280Y018340D01*
X048280Y018827D01*
X048285Y018839D01*
X048285Y018948D01*
X048243Y019049D01*
X048165Y019126D01*
X048064Y019168D01*
X047955Y019168D01*
X047854Y019126D01*
X047776Y019049D01*
X047735Y018948D01*
X047735Y018839D01*
X047740Y018827D01*
X047740Y018505D01*
X047398Y018163D01*
X046145Y018163D01*
X046580Y018598D01*
X046680Y018698D01*
X046680Y021924D01*
X046743Y021988D01*
X046785Y022089D01*
X046785Y022198D01*
X046743Y022299D01*
X046665Y022376D01*
X046564Y022418D01*
X046455Y022418D01*
X046354Y022376D01*
X046276Y022299D01*
X046235Y022198D01*
X046235Y022089D01*
X046276Y021988D01*
X046340Y021924D01*
X046340Y018839D01*
X045939Y018438D01*
X023490Y018438D01*
X023427Y018501D01*
X023326Y018543D01*
X023217Y018543D01*
X023116Y018501D01*
X023038Y018424D01*
X022996Y018323D01*
X022996Y018214D01*
X023017Y018163D01*
X022728Y018163D01*
X022629Y018122D01*
X022553Y018046D01*
X022512Y017947D01*
X022512Y017938D01*
X022507Y017926D01*
X022507Y017816D01*
X022549Y017715D01*
X022626Y017638D01*
X022727Y017596D01*
X022836Y017596D01*
X022902Y017623D01*
X042801Y017623D01*
X042751Y017502D01*
X042751Y017368D01*
X042802Y017245D01*
X042844Y017203D01*
X019874Y017203D01*
X019760Y017156D01*
X019673Y017069D01*
X019626Y016955D01*
X019626Y016832D01*
X019673Y016718D01*
X019760Y016631D01*
X019874Y016583D01*
X050717Y016583D01*
X051112Y016712D01*
X051447Y016955D01*
X051447Y016955D01*
X051447Y016955D01*
X051691Y017291D01*
X051772Y017539D01*
X051785Y017490D01*
X051923Y017251D01*
X052117Y017056D01*
X052356Y016919D01*
X052622Y016847D01*
X052897Y016847D01*
X053163Y016919D01*
X053402Y017056D01*
X053596Y017251D01*
X053734Y017490D01*
X053805Y017756D01*
X053805Y018031D01*
X053734Y018297D01*
X053596Y018535D01*
X053402Y018730D01*
X053163Y018868D01*
X053114Y018881D01*
X053362Y018962D01*
X053697Y019205D01*
X053697Y019205D01*
X053697Y019205D01*
X053941Y019541D01*
X054070Y019936D01*
X054070Y028205D01*
X054022Y028319D01*
X053772Y028569D01*
X053685Y028656D01*
X053571Y028703D01*
X052477Y028703D01*
X052427Y028753D01*
X051602Y028753D01*
X051672Y028823D01*
X051882Y029033D01*
X052427Y029033D01*
X052492Y029098D01*
X052492Y029689D01*
X052427Y029753D01*
X051076Y029753D01*
X051012Y029689D01*
X051012Y029098D01*
X051076Y029033D01*
X051097Y029033D01*
X050930Y028866D01*
X050930Y030214D01*
X050830Y030313D01*
X050580Y030563D01*
X050507Y030563D01*
X050507Y030689D01*
X050443Y030753D01*
X049092Y030753D01*
X049070Y030732D02*
X048260Y030732D01*
X048260Y030850D02*
X054075Y030850D01*
X054075Y030732D02*
X052515Y030732D01*
X052510Y030742D02*
X052480Y030771D01*
X052443Y030792D01*
X052403Y030803D01*
X051812Y030803D01*
X051812Y030453D01*
X052542Y030453D01*
X052542Y030664D01*
X052531Y030705D01*
X052510Y030742D01*
X052542Y030613D02*
X054075Y030613D01*
X054075Y030495D02*
X052542Y030495D01*
X052542Y030333D02*
X051812Y030333D01*
X051812Y030453D01*
X051692Y030453D01*
X051692Y030333D01*
X051812Y030333D01*
X051812Y029983D01*
X052403Y029983D01*
X052443Y029994D01*
X052480Y030015D01*
X052510Y030045D01*
X052531Y030082D01*
X052542Y030122D01*
X052542Y030333D01*
X052542Y030258D02*
X054075Y030258D01*
X054075Y030376D02*
X051812Y030376D01*
X051812Y030258D02*
X051692Y030258D01*
X051692Y030333D02*
X051692Y029983D01*
X051101Y029983D01*
X051060Y029994D01*
X051023Y030015D01*
X050994Y030045D01*
X050973Y030082D01*
X050962Y030122D01*
X050962Y030333D01*
X051692Y030333D01*
X051692Y030376D02*
X050767Y030376D01*
X050885Y030258D02*
X050962Y030258D01*
X050962Y030139D02*
X050930Y030139D01*
X050930Y030021D02*
X051018Y030021D01*
X050930Y029902D02*
X054075Y029902D01*
X054075Y029784D02*
X050930Y029784D01*
X050930Y029665D02*
X051012Y029665D01*
X051012Y029547D02*
X050930Y029547D01*
X050930Y029428D02*
X051012Y029428D01*
X051012Y029310D02*
X050930Y029310D01*
X050930Y029191D02*
X051012Y029191D01*
X051037Y029073D02*
X050930Y029073D01*
X050930Y028954D02*
X051018Y028954D01*
X051197Y028893D02*
X050947Y028643D01*
X050947Y028081D01*
X051197Y027831D01*
X051197Y023018D01*
X050947Y022768D01*
X045822Y022768D01*
X044976Y021922D01*
X044976Y019893D01*
X035063Y019893D01*
X024885Y019893D01*
X024635Y020143D01*
X024635Y021268D01*
X024890Y021370D02*
X025417Y021370D01*
X025536Y021252D02*
X024910Y021252D01*
X024803Y021489D02*
X025299Y021489D01*
X025180Y021607D02*
X021934Y021607D01*
X021930Y021726D02*
X025062Y021726D01*
X024943Y021844D02*
X021930Y021844D01*
X021930Y021963D02*
X022594Y021963D01*
X022581Y021968D02*
X022711Y021914D01*
X022852Y021914D01*
X022982Y021968D01*
X023082Y022068D01*
X023136Y022198D01*
X023136Y022339D01*
X023082Y022469D01*
X022982Y022568D01*
X022852Y022622D01*
X022711Y022622D01*
X022581Y022568D01*
X022482Y022469D01*
X022428Y022339D01*
X022428Y022198D01*
X022482Y022068D01*
X022581Y021968D01*
X022476Y022081D02*
X021930Y022081D01*
X021930Y022200D02*
X022428Y022200D01*
X022428Y022318D02*
X021930Y022318D01*
X021930Y022437D02*
X022468Y022437D01*
X022568Y022555D02*
X021930Y022555D01*
X021930Y022674D02*
X022989Y022674D01*
X022995Y022555D02*
X023107Y022555D01*
X023095Y022437D02*
X023226Y022437D01*
X023136Y022318D02*
X024469Y022318D01*
X024588Y022200D02*
X023136Y022200D01*
X023087Y022081D02*
X024706Y022081D01*
X024825Y021963D02*
X022969Y021963D01*
X023385Y022518D02*
X024510Y022518D01*
X025760Y021268D01*
X038572Y021268D01*
X038679Y021015D02*
X042999Y021015D01*
X043005Y021001D02*
X038645Y021001D01*
X038728Y021035D01*
X038805Y021113D01*
X038847Y021214D01*
X038847Y021323D01*
X038810Y021413D01*
X041570Y021413D01*
X041761Y021413D01*
X043387Y023039D01*
X043486Y023039D01*
X043616Y023093D01*
X043686Y023163D01*
X044384Y023163D01*
X044387Y023160D01*
X044488Y023118D01*
X044597Y023118D01*
X044698Y023160D01*
X044776Y023238D01*
X044818Y023339D01*
X044818Y023448D01*
X044776Y023549D01*
X044698Y023626D01*
X044615Y023661D01*
X047564Y023661D01*
X047724Y023501D01*
X045564Y023501D01*
X043627Y021563D01*
X043173Y021563D01*
X043073Y021464D01*
X043073Y021362D01*
X043010Y021299D01*
X042968Y021198D01*
X042968Y021089D01*
X043005Y021001D01*
X042968Y021133D02*
X038814Y021133D01*
X038847Y021252D02*
X042991Y021252D01*
X043073Y021370D02*
X038827Y021370D01*
X039373Y020661D02*
X044517Y020661D01*
X044617Y020760D01*
X044742Y020885D01*
X044742Y021698D01*
X044806Y021762D01*
X044806Y020112D01*
X044757Y020063D01*
X043487Y020063D01*
X043518Y020139D01*
X043518Y020248D01*
X043477Y020349D01*
X043399Y020426D01*
X043298Y020468D01*
X043189Y020468D01*
X043088Y020426D01*
X043024Y020363D01*
X039368Y020363D01*
X039410Y020464D01*
X039410Y020573D01*
X039373Y020661D01*
X039374Y020659D02*
X044806Y020659D01*
X044806Y020541D02*
X039410Y020541D01*
X039392Y020422D02*
X043083Y020422D01*
X043243Y020193D02*
X037760Y020193D01*
X025210Y020193D01*
X024960Y020443D01*
X024960Y020956D01*
X025171Y021133D02*
X025654Y021133D01*
X025233Y021015D02*
X026811Y021015D01*
X026561Y020896D02*
X025233Y020896D01*
X025170Y020778D02*
X026492Y020778D01*
X026485Y020659D02*
X025130Y020659D01*
X025130Y020541D02*
X026536Y020541D01*
X026760Y020706D02*
X026947Y020518D01*
X039135Y020518D01*
X037425Y021643D02*
X037425Y022143D01*
X037633Y021963D02*
X041660Y021963D01*
X041570Y021873D02*
X037595Y021873D01*
X037595Y021924D01*
X037658Y021988D01*
X037700Y022089D01*
X037700Y022198D01*
X037658Y022299D01*
X037581Y022376D01*
X037480Y022418D01*
X037370Y022418D01*
X037269Y022376D01*
X037192Y022299D01*
X037150Y022198D01*
X037150Y022089D01*
X037192Y021988D01*
X037255Y021924D01*
X037255Y021873D01*
X036311Y021873D01*
X036400Y021910D01*
X036477Y021988D01*
X036519Y022089D01*
X036519Y022198D01*
X036477Y022299D01*
X036414Y022362D01*
X036414Y022839D01*
X036314Y022938D01*
X036217Y023036D01*
X037667Y023036D01*
X037684Y023052D01*
X037714Y023039D01*
X037855Y023039D01*
X037985Y023093D01*
X038085Y023193D01*
X038139Y023323D01*
X038139Y023464D01*
X038085Y023594D01*
X038018Y023661D01*
X039776Y023661D01*
X039709Y023594D01*
X039655Y023464D01*
X039655Y023323D01*
X039709Y023193D01*
X039809Y023093D01*
X039939Y023039D01*
X040080Y023039D01*
X040210Y023093D01*
X040310Y023193D01*
X040364Y023323D01*
X040364Y023464D01*
X040310Y023594D01*
X040243Y023661D01*
X041456Y023661D01*
X041446Y023651D01*
X041401Y023585D01*
X041371Y023511D01*
X041355Y023433D01*
X041355Y023395D01*
X041757Y023395D01*
X041757Y023391D01*
X041355Y023391D01*
X041355Y023354D01*
X041371Y023275D01*
X041401Y023202D01*
X041446Y023136D01*
X041502Y023079D01*
X041568Y023035D01*
X041642Y023005D01*
X041720Y022989D01*
X041758Y022989D01*
X041758Y023391D01*
X041762Y023391D01*
X041762Y023395D01*
X042164Y023395D01*
X042164Y023433D01*
X042148Y023511D01*
X042118Y023585D01*
X042073Y023651D01*
X042063Y023661D01*
X043183Y023661D01*
X043116Y023594D01*
X043062Y023464D01*
X043062Y023365D01*
X041570Y021873D01*
X041779Y022081D02*
X037697Y022081D01*
X037699Y022200D02*
X041897Y022200D01*
X042016Y022318D02*
X037639Y022318D01*
X037211Y022318D02*
X036458Y022318D01*
X036414Y022437D02*
X042134Y022437D01*
X042253Y022555D02*
X036414Y022555D01*
X036414Y022674D02*
X042371Y022674D01*
X042490Y022792D02*
X036414Y022792D01*
X036342Y022911D02*
X042608Y022911D01*
X042727Y023029D02*
X041937Y023029D01*
X041951Y023035D02*
X042017Y023079D01*
X042073Y023136D01*
X042118Y023202D01*
X042148Y023275D01*
X042164Y023354D01*
X042164Y023391D01*
X041762Y023391D01*
X041762Y022989D01*
X041799Y022989D01*
X041877Y023005D01*
X041951Y023035D01*
X042081Y023148D02*
X042845Y023148D01*
X042964Y023266D02*
X042144Y023266D01*
X042164Y023385D02*
X043062Y023385D01*
X043078Y023503D02*
X042150Y023503D01*
X042093Y023622D02*
X043144Y023622D01*
X043671Y023148D02*
X044417Y023148D01*
X044669Y023148D02*
X045211Y023148D01*
X045330Y023266D02*
X044788Y023266D01*
X044818Y023385D02*
X045448Y023385D01*
X045635Y023331D02*
X043697Y021393D01*
X043243Y021393D01*
X043243Y021143D01*
X043098Y021489D02*
X041837Y021489D01*
X041955Y021607D02*
X043671Y021607D01*
X043789Y021726D02*
X042074Y021726D01*
X042192Y021844D02*
X043908Y021844D01*
X044026Y021963D02*
X042311Y021963D01*
X042429Y022081D02*
X044145Y022081D01*
X044263Y022200D02*
X042548Y022200D01*
X042666Y022318D02*
X044382Y022318D01*
X044500Y022437D02*
X042785Y022437D01*
X042903Y022555D02*
X044619Y022555D01*
X044737Y022674D02*
X043022Y022674D01*
X043140Y022792D02*
X044856Y022792D01*
X044974Y022911D02*
X043259Y022911D01*
X043377Y023029D02*
X045093Y023029D01*
X044795Y023503D02*
X047722Y023503D01*
X047603Y023622D02*
X044703Y023622D01*
X045635Y023331D02*
X050385Y023331D01*
X050635Y023581D01*
X050635Y027643D01*
X050385Y027893D01*
X050385Y028143D01*
X050135Y028393D01*
X049767Y028393D01*
X049827Y028836D02*
X047702Y028836D01*
X047821Y028954D02*
X049708Y028954D01*
X049760Y029143D02*
X050010Y028893D01*
X050322Y028893D01*
X050572Y028643D01*
X050572Y027956D01*
X050822Y027706D01*
X050822Y023393D01*
X050572Y023143D01*
X045697Y023143D01*
X044110Y021556D01*
X044110Y021143D01*
X044447Y020831D02*
X029957Y020831D01*
X027210Y020831D01*
X027085Y020956D01*
X026803Y020422D02*
X025221Y020422D01*
X024310Y020956D02*
X024310Y019843D01*
X024560Y019593D01*
X035456Y019593D01*
X044110Y019593D01*
X044385Y019593D02*
X045267Y019593D01*
X045183Y019711D02*
X046340Y019711D01*
X046340Y019593D02*
X045550Y019593D01*
X045703Y019474D02*
X046340Y019474D01*
X046340Y019356D02*
X045756Y019356D01*
X045763Y019237D02*
X046340Y019237D01*
X046340Y019119D02*
X045730Y019119D01*
X045641Y019000D02*
X046340Y019000D01*
X046340Y018882D02*
X022026Y018882D01*
X022034Y018901D02*
X021949Y018698D01*
X021794Y018542D01*
X021590Y018458D01*
X021370Y018458D01*
X021166Y018542D01*
X021011Y018698D01*
X020926Y018901D01*
X020926Y019122D01*
X021011Y019325D01*
X021166Y019481D01*
X021370Y019565D01*
X021590Y019565D01*
X021794Y019481D01*
X021949Y019325D01*
X022034Y019122D01*
X022034Y018901D01*
X022034Y019000D02*
X045176Y019000D01*
X045409Y019268D02*
X024260Y019268D01*
X024010Y019518D01*
X024010Y021268D01*
X024265Y021370D02*
X024379Y021370D01*
X024360Y021252D02*
X024285Y021252D01*
X024178Y021489D02*
X024466Y021489D01*
X023841Y021489D02*
X022018Y021489D01*
X022035Y021370D02*
X023754Y021370D01*
X023735Y021252D02*
X021999Y021252D01*
X021899Y021133D02*
X023768Y021133D01*
X023840Y021015D02*
X022007Y021015D01*
X022035Y020896D02*
X023840Y020896D01*
X023840Y020778D02*
X022009Y020778D01*
X021913Y020659D02*
X023840Y020659D01*
X023840Y020541D02*
X016445Y020541D01*
X016445Y020659D02*
X021606Y020659D01*
X021510Y020778D02*
X016445Y020778D01*
X016445Y020896D02*
X021485Y020896D01*
X021398Y021015D02*
X016445Y021015D01*
X016445Y021133D02*
X021279Y021133D01*
X021277Y021252D02*
X016445Y021252D01*
X016445Y021370D02*
X021277Y021370D01*
X021277Y021489D02*
X016445Y021489D01*
X016445Y021607D02*
X021277Y021607D01*
X021277Y021726D02*
X016445Y021726D01*
X016445Y021844D02*
X021277Y021844D01*
X021277Y021963D02*
X018457Y021963D01*
X018446Y021958D02*
X018560Y022006D01*
X018647Y022093D01*
X018695Y022207D01*
X018695Y024455D01*
X018647Y024569D01*
X018560Y024656D01*
X018446Y024703D01*
X018323Y024703D01*
X018209Y024656D01*
X018122Y024569D01*
X018075Y024455D01*
X018075Y022207D01*
X018122Y022093D01*
X018209Y022006D01*
X018323Y021958D01*
X018446Y021958D01*
X018312Y021963D02*
X016445Y021963D01*
X016445Y022081D02*
X018133Y022081D01*
X018077Y022200D02*
X016445Y022200D01*
X016445Y022318D02*
X018075Y022318D01*
X018075Y022437D02*
X016445Y022437D01*
X016445Y022555D02*
X018075Y022555D01*
X018075Y022674D02*
X016445Y022674D01*
X016445Y022792D02*
X018075Y022792D01*
X018075Y022911D02*
X016445Y022911D01*
X016445Y023029D02*
X018075Y023029D01*
X018075Y023148D02*
X016445Y023148D01*
X016445Y023266D02*
X018075Y023266D01*
X018075Y023385D02*
X016445Y023385D01*
X016445Y023503D02*
X018075Y023503D01*
X018075Y023622D02*
X016445Y023622D01*
X016445Y023740D02*
X018075Y023740D01*
X018075Y023859D02*
X016445Y023859D01*
X016445Y023977D02*
X018075Y023977D01*
X018075Y024096D02*
X016445Y024096D01*
X016445Y024214D02*
X018075Y024214D01*
X018075Y024333D02*
X016445Y024333D01*
X016445Y024451D02*
X018075Y024451D01*
X018123Y024570D02*
X016445Y024570D01*
X016445Y024688D02*
X018287Y024688D01*
X018482Y024688D02*
X021277Y024688D01*
X021277Y024570D02*
X018646Y024570D01*
X018695Y024451D02*
X021277Y024451D01*
X021277Y024333D02*
X018695Y024333D01*
X018695Y024214D02*
X021277Y024214D01*
X021277Y024096D02*
X018695Y024096D01*
X018695Y023977D02*
X021277Y023977D01*
X021277Y023859D02*
X018695Y023859D01*
X018695Y023740D02*
X021277Y023740D01*
X021277Y023622D02*
X018695Y023622D01*
X018695Y023503D02*
X021277Y023503D01*
X021277Y023385D02*
X018695Y023385D01*
X018695Y023266D02*
X021277Y023266D01*
X021277Y023148D02*
X018695Y023148D01*
X018695Y023029D02*
X021277Y023029D01*
X021277Y022911D02*
X018695Y022911D01*
X018695Y022792D02*
X021277Y022792D01*
X021277Y022674D02*
X018695Y022674D01*
X018695Y022555D02*
X021277Y022555D01*
X021277Y022437D02*
X018695Y022437D01*
X018695Y022318D02*
X021277Y022318D01*
X021277Y022200D02*
X018692Y022200D01*
X018636Y022081D02*
X021277Y022081D01*
X021760Y021393D02*
X021760Y025643D01*
X022082Y025643D01*
X021760Y025643D02*
X021760Y026621D01*
X022032Y026893D01*
X022346Y027058D02*
X022393Y027058D01*
X022386Y026940D02*
X022890Y026940D01*
X022890Y027058D02*
X022626Y027058D01*
X022794Y027177D02*
X022890Y027177D01*
X022890Y027295D02*
X022852Y027295D01*
X023060Y027443D02*
X022360Y028143D01*
X021760Y028143D01*
X021510Y027893D01*
X020072Y027893D01*
X019572Y028393D01*
X018767Y028393D01*
X018736Y028836D02*
X016445Y028836D01*
X016445Y028954D02*
X018737Y028954D01*
X019010Y028893D02*
X019010Y029151D01*
X018767Y029393D01*
X018707Y029983D02*
X018116Y029983D01*
X018076Y029994D01*
X018039Y030015D01*
X018009Y030045D01*
X017988Y030082D01*
X017977Y030122D01*
X017977Y030333D01*
X018707Y030333D01*
X018707Y030453D01*
X017977Y030453D01*
X017977Y030664D01*
X017988Y030705D01*
X018009Y030742D01*
X018039Y030771D01*
X018076Y030792D01*
X018116Y030803D01*
X018707Y030803D01*
X018707Y030453D01*
X018827Y030453D01*
X018827Y030803D01*
X019418Y030803D01*
X019459Y030792D01*
X019496Y030771D01*
X019525Y030742D01*
X019546Y030705D01*
X019557Y030664D01*
X019557Y030453D01*
X018827Y030453D01*
X018827Y030333D01*
X018827Y029983D01*
X019418Y029983D01*
X019459Y029994D01*
X019496Y030015D01*
X019525Y030045D01*
X019546Y030082D01*
X019557Y030122D01*
X019557Y030333D01*
X018827Y030333D01*
X018707Y030333D01*
X018707Y029983D01*
X018707Y030021D02*
X018827Y030021D01*
X018827Y030139D02*
X018707Y030139D01*
X018707Y030258D02*
X018827Y030258D01*
X018827Y030376D02*
X020012Y030376D01*
X020012Y030258D02*
X019557Y030258D01*
X019557Y030139D02*
X020012Y030139D01*
X020012Y030495D02*
X019557Y030495D01*
X019557Y030613D02*
X020012Y030613D01*
X020055Y030732D02*
X019531Y030732D01*
X018827Y030732D02*
X018707Y030732D01*
X018707Y030613D02*
X018827Y030613D01*
X018827Y030495D02*
X018707Y030495D01*
X018707Y030376D02*
X016445Y030376D01*
X016445Y030258D02*
X017977Y030258D01*
X017977Y030139D02*
X016445Y030139D01*
X016445Y030021D02*
X018034Y030021D01*
X018027Y029665D02*
X016445Y029665D01*
X016445Y029547D02*
X018027Y029547D01*
X018027Y029428D02*
X016445Y029428D01*
X016445Y029310D02*
X018027Y029310D01*
X018027Y029191D02*
X016445Y029191D01*
X016445Y029073D02*
X018052Y029073D01*
X018056Y028717D02*
X016445Y028717D01*
X016445Y028599D02*
X018027Y028599D01*
X018027Y028480D02*
X016445Y028480D01*
X016445Y028362D02*
X018027Y028362D01*
X018027Y028243D02*
X016445Y028243D01*
X016445Y028125D02*
X018027Y028125D01*
X019283Y028836D02*
X020236Y028836D01*
X020237Y028954D02*
X019282Y028954D01*
X019482Y029073D02*
X020037Y029073D01*
X020012Y029191D02*
X019507Y029191D01*
X019507Y029310D02*
X020012Y029310D01*
X020012Y029428D02*
X019507Y029428D01*
X019507Y029547D02*
X020012Y029547D01*
X020012Y029665D02*
X019507Y029665D01*
X019501Y030021D02*
X020515Y030021D01*
X020485Y029902D02*
X016445Y029902D01*
X016445Y029784D02*
X020507Y029784D01*
X020752Y029901D02*
X020760Y029893D01*
X020752Y029901D02*
X020752Y030393D01*
X020752Y030768D01*
X020502Y031018D01*
X017525Y031018D01*
X017726Y031206D02*
X022447Y031206D01*
X022328Y031324D02*
X016445Y031324D01*
X016445Y031206D02*
X017323Y031206D01*
X017256Y031087D02*
X016445Y031087D01*
X016445Y030969D02*
X017250Y030969D01*
X017304Y030850D02*
X016445Y030850D01*
X016445Y030732D02*
X018004Y030732D01*
X017977Y030613D02*
X016445Y030613D01*
X016445Y030495D02*
X017977Y030495D01*
X016445Y031443D02*
X022260Y031443D01*
X022260Y031393D02*
X023760Y029893D01*
X029260Y029893D01*
X031760Y027393D01*
X044260Y027393D01*
X045260Y028393D01*
X047260Y028393D01*
X048260Y029393D01*
X048260Y036208D01*
X052760Y036208D01*
X052931Y036197D01*
X053263Y036108D01*
X053560Y035937D01*
X053803Y035694D01*
X053974Y035397D01*
X054063Y035065D01*
X054075Y034893D01*
X054075Y017893D01*
X054063Y017722D01*
X053974Y017390D01*
X053803Y017093D01*
X053560Y016850D01*
X053263Y016678D01*
X052931Y016590D01*
X052760Y016578D01*
X017760Y016578D01*
X017588Y016590D01*
X017256Y016678D01*
X016959Y016850D01*
X016716Y017093D01*
X016545Y017390D01*
X016456Y017722D01*
X016445Y017893D01*
X016445Y034893D01*
X016456Y035065D01*
X016545Y035397D01*
X016716Y035694D01*
X016959Y035937D01*
X017256Y036108D01*
X017588Y036197D01*
X017760Y036208D01*
X022260Y036208D01*
X022260Y031393D01*
X022260Y031561D02*
X016445Y031561D01*
X016445Y031680D02*
X022260Y031680D01*
X022260Y031798D02*
X016445Y031798D01*
X016445Y031917D02*
X022260Y031917D01*
X022260Y032035D02*
X016445Y032035D01*
X016445Y032154D02*
X022260Y032154D01*
X022260Y032272D02*
X016445Y032272D01*
X016445Y032391D02*
X022260Y032391D01*
X022260Y032509D02*
X016445Y032509D01*
X016445Y032628D02*
X022260Y032628D01*
X022260Y032746D02*
X016445Y032746D01*
X016445Y032865D02*
X022260Y032865D01*
X022260Y032983D02*
X016445Y032983D01*
X016445Y033102D02*
X022260Y033102D01*
X022260Y033220D02*
X016445Y033220D01*
X016445Y033339D02*
X021133Y033339D01*
X021166Y033306D02*
X021370Y033221D01*
X021590Y033221D01*
X021794Y033306D01*
X021949Y033462D01*
X022034Y033665D01*
X022034Y033885D01*
X021949Y034089D01*
X021794Y034245D01*
X021590Y034329D01*
X021370Y034329D01*
X021166Y034245D01*
X021011Y034089D01*
X020926Y033885D01*
X020926Y033665D01*
X021011Y033462D01*
X021166Y033306D01*
X021015Y033457D02*
X016445Y033457D01*
X016445Y033576D02*
X020963Y033576D01*
X020926Y033694D02*
X016445Y033694D01*
X016445Y033813D02*
X020926Y033813D01*
X020945Y033931D02*
X018185Y033931D01*
X018163Y033919D02*
X018402Y034056D01*
X018596Y034251D01*
X018734Y034490D01*
X018805Y034756D01*
X018805Y035031D01*
X018734Y035297D01*
X018596Y035535D01*
X018402Y035730D01*
X018163Y035868D01*
X017897Y035939D01*
X017622Y035939D01*
X017356Y035868D01*
X017117Y035730D01*
X016923Y035535D01*
X016785Y035297D01*
X016714Y035031D01*
X016714Y034756D01*
X016785Y034490D01*
X016923Y034251D01*
X017117Y034056D01*
X017356Y033919D01*
X017622Y033847D01*
X017897Y033847D01*
X018163Y033919D01*
X018390Y034050D02*
X020994Y034050D01*
X021090Y034168D02*
X018514Y034168D01*
X018617Y034287D02*
X021268Y034287D01*
X021692Y034287D02*
X022260Y034287D01*
X022260Y034405D02*
X018685Y034405D01*
X018743Y034524D02*
X022260Y034524D01*
X022260Y034642D02*
X018775Y034642D01*
X018805Y034761D02*
X022260Y034761D01*
X022260Y034879D02*
X018805Y034879D01*
X018805Y034998D02*
X022260Y034998D01*
X022260Y035116D02*
X018782Y035116D01*
X018751Y035235D02*
X022260Y035235D01*
X022260Y035353D02*
X018702Y035353D01*
X018633Y035472D02*
X022260Y035472D01*
X022260Y035590D02*
X018541Y035590D01*
X018423Y035709D02*
X022260Y035709D01*
X022260Y035827D02*
X018233Y035827D01*
X017535Y036183D02*
X022260Y036183D01*
X022260Y036064D02*
X017180Y036064D01*
X016975Y035946D02*
X022260Y035946D01*
X022260Y034168D02*
X021870Y034168D01*
X021966Y034050D02*
X022260Y034050D01*
X022260Y033931D02*
X022015Y033931D01*
X022034Y033813D02*
X022260Y033813D01*
X022260Y033694D02*
X022034Y033694D01*
X021997Y033576D02*
X022260Y033576D01*
X022260Y033457D02*
X021945Y033457D01*
X021827Y033339D02*
X022260Y033339D01*
X022565Y031087D02*
X020673Y031087D01*
X020792Y030969D02*
X022684Y030969D01*
X022802Y030850D02*
X020910Y030850D01*
X021449Y030732D02*
X022921Y030732D01*
X023039Y030613D02*
X021492Y030613D01*
X021492Y030495D02*
X023158Y030495D01*
X023276Y030376D02*
X021492Y030376D01*
X021492Y030258D02*
X023395Y030258D01*
X023513Y030139D02*
X021778Y030139D01*
X021862Y030021D02*
X023632Y030021D01*
X023750Y029902D02*
X021888Y029902D01*
X021909Y029784D02*
X029369Y029784D01*
X029487Y029665D02*
X022028Y029665D01*
X022146Y029547D02*
X029606Y029547D01*
X029724Y029428D02*
X029165Y029428D01*
X029283Y029310D02*
X029843Y029310D01*
X029961Y029191D02*
X029402Y029191D01*
X029520Y029073D02*
X030080Y029073D01*
X030198Y028954D02*
X029639Y028954D01*
X029757Y028836D02*
X030317Y028836D01*
X030435Y028717D02*
X029876Y028717D01*
X029994Y028599D02*
X030554Y028599D01*
X030672Y028480D02*
X030113Y028480D01*
X030231Y028362D02*
X030791Y028362D01*
X030909Y028243D02*
X030350Y028243D01*
X030468Y028125D02*
X031028Y028125D01*
X031146Y028006D02*
X030587Y028006D01*
X030705Y027888D02*
X031265Y027888D01*
X031383Y027769D02*
X030824Y027769D01*
X030942Y027651D02*
X031502Y027651D01*
X031620Y027532D02*
X031061Y027532D01*
X031179Y027414D02*
X031739Y027414D01*
X031298Y027295D02*
X046189Y027295D01*
X046155Y027177D02*
X031330Y027177D01*
X031330Y027058D02*
X046162Y027058D01*
X046212Y026940D02*
X031330Y026940D01*
X031330Y026821D02*
X032039Y026821D01*
X031988Y026800D02*
X031853Y026665D01*
X031780Y026489D01*
X031780Y026298D01*
X031853Y026121D01*
X031988Y025986D01*
X032164Y025913D01*
X032355Y025913D01*
X032531Y025986D01*
X032666Y026121D01*
X032740Y026298D01*
X032740Y026489D01*
X032666Y026665D01*
X032531Y026800D01*
X032355Y026873D01*
X032164Y026873D01*
X031988Y026800D01*
X031890Y026703D02*
X031330Y026703D01*
X031330Y026584D02*
X031819Y026584D01*
X031780Y026466D02*
X031427Y026466D01*
X031546Y026347D02*
X031780Y026347D01*
X031808Y026229D02*
X031664Y026229D01*
X031783Y026110D02*
X031864Y026110D01*
X031901Y025992D02*
X031982Y025992D01*
X032020Y025873D02*
X033090Y025873D01*
X032982Y025992D02*
X032537Y025992D01*
X032655Y026110D02*
X032864Y026110D01*
X032808Y026229D02*
X032711Y026229D01*
X032740Y026347D02*
X032780Y026347D01*
X032780Y026466D02*
X032740Y026466D01*
X032700Y026584D02*
X032819Y026584D01*
X032890Y026703D02*
X032629Y026703D01*
X032480Y026821D02*
X033039Y026821D01*
X033480Y026821D02*
X034039Y026821D01*
X033890Y026703D02*
X033629Y026703D01*
X033700Y026584D02*
X033819Y026584D01*
X033780Y026466D02*
X033740Y026466D01*
X033740Y026347D02*
X033780Y026347D01*
X033808Y026229D02*
X033711Y026229D01*
X033655Y026110D02*
X033864Y026110D01*
X033982Y025992D02*
X033537Y025992D01*
X033430Y025873D02*
X034090Y025873D01*
X034081Y025755D02*
X033430Y025755D01*
X033343Y025636D02*
X033962Y025636D01*
X033960Y025393D02*
X031960Y025393D01*
X030960Y026393D01*
X030960Y027093D01*
X028960Y029093D01*
X021052Y029093D01*
X020752Y029393D01*
X020510Y029151D01*
X020510Y028893D01*
X020749Y028753D02*
X020785Y028839D01*
X020785Y028948D01*
X020749Y029033D01*
X020871Y029033D01*
X020981Y028923D01*
X024838Y028923D01*
X024776Y028862D01*
X024735Y028761D01*
X024735Y028651D01*
X024776Y028550D01*
X024854Y028473D01*
X024955Y028431D01*
X025064Y028431D01*
X025165Y028473D01*
X025168Y028476D01*
X026634Y028476D01*
X026597Y028386D01*
X026597Y028276D01*
X026639Y028175D01*
X026716Y028098D01*
X026817Y028056D01*
X026927Y028056D01*
X027028Y028098D01*
X027091Y028161D01*
X027321Y028161D01*
X027285Y028073D01*
X027285Y027964D01*
X027326Y027863D01*
X027404Y027785D01*
X027505Y027743D01*
X027597Y027743D01*
X027597Y027651D01*
X027639Y027550D01*
X027716Y027473D01*
X027817Y027431D01*
X027885Y027431D01*
X027885Y027339D01*
X027926Y027238D01*
X028004Y027160D01*
X028105Y027118D01*
X028197Y027118D01*
X028197Y027026D01*
X028206Y027005D01*
X028114Y027043D01*
X028005Y027043D01*
X027904Y027001D01*
X027826Y026924D01*
X027785Y026823D01*
X027785Y026714D01*
X027826Y026613D01*
X027904Y026535D01*
X028005Y026493D01*
X028114Y026493D01*
X028206Y026531D01*
X028197Y026511D01*
X028197Y026401D01*
X028239Y026300D01*
X028316Y026223D01*
X028417Y026181D01*
X028527Y026181D01*
X028588Y026206D01*
X028585Y026198D01*
X028585Y026089D01*
X028626Y025988D01*
X028690Y025924D01*
X028690Y023464D01*
X028680Y023487D01*
X028603Y023564D01*
X028502Y023606D01*
X028392Y023606D01*
X028291Y023564D01*
X028228Y023501D01*
X026007Y023501D01*
X026580Y024073D01*
X027302Y024795D01*
X027323Y024832D01*
X027334Y024872D01*
X027334Y024914D01*
X027323Y024955D01*
X027302Y024992D01*
X026580Y025714D01*
X025858Y026436D01*
X025821Y026457D01*
X025781Y026468D01*
X025738Y026468D01*
X025698Y026457D01*
X025661Y026436D01*
X024939Y025714D01*
X025760Y024893D01*
X026580Y024073D01*
X025760Y024893D01*
X025760Y024893D01*
X025760Y024893D01*
X026580Y025714D01*
X025760Y024893D01*
X024939Y024073D01*
X025760Y024893D01*
X025760Y024893D01*
X025760Y024893D01*
X024939Y025714D01*
X024217Y024992D01*
X024196Y024955D01*
X024185Y024914D01*
X024185Y024872D01*
X024196Y024832D01*
X024217Y024795D01*
X024939Y024073D01*
X025512Y023501D01*
X024792Y023501D01*
X023430Y024864D01*
X023430Y027664D01*
X022530Y028563D01*
X021492Y028563D01*
X021492Y028689D01*
X021427Y028753D01*
X020749Y028753D01*
X020783Y028836D02*
X024766Y028836D01*
X024735Y028717D02*
X021463Y028717D01*
X021492Y028599D02*
X024756Y028599D01*
X024846Y028480D02*
X022613Y028480D01*
X022731Y028362D02*
X026597Y028362D01*
X026611Y028243D02*
X022850Y028243D01*
X022968Y028125D02*
X026689Y028125D01*
X026872Y028331D02*
X028972Y028331D01*
X030322Y026981D01*
X030322Y024393D01*
X030572Y024143D01*
X031572Y024143D01*
X031822Y024393D01*
X050157Y024393D01*
X049572Y024081D02*
X049322Y024081D01*
X049197Y024206D01*
X031947Y024206D01*
X031697Y023956D01*
X030385Y023956D01*
X030135Y024206D01*
X030135Y026868D01*
X028985Y028018D01*
X027560Y028018D01*
X027442Y027769D02*
X023324Y027769D01*
X023430Y027651D02*
X027597Y027651D01*
X027657Y027532D02*
X023430Y027532D01*
X023430Y027414D02*
X027885Y027414D01*
X027902Y027295D02*
X023430Y027295D01*
X023430Y027177D02*
X027987Y027177D01*
X028197Y027058D02*
X023430Y027058D01*
X023430Y026940D02*
X027842Y026940D01*
X027785Y026821D02*
X023430Y026821D01*
X023430Y026703D02*
X027789Y026703D01*
X027855Y026584D02*
X023430Y026584D01*
X023430Y026466D02*
X025732Y026466D01*
X025787Y026466D02*
X028197Y026466D01*
X028219Y026347D02*
X025946Y026347D01*
X026064Y026229D02*
X028310Y026229D01*
X028472Y026456D02*
X028997Y026456D01*
X029160Y026293D01*
X029160Y023281D01*
X029422Y023018D01*
X035994Y023018D01*
X036244Y022768D01*
X036244Y022143D01*
X035969Y022145D02*
X035969Y022089D01*
X036011Y021988D01*
X036088Y021910D01*
X036177Y021873D01*
X034839Y021873D01*
X034839Y021924D01*
X034902Y021988D01*
X034944Y022089D01*
X034944Y022198D01*
X034902Y022299D01*
X034825Y022376D01*
X034724Y022418D01*
X034614Y022418D01*
X034513Y022376D01*
X034436Y022299D01*
X034394Y022198D01*
X034394Y022089D01*
X034436Y021988D01*
X034499Y021924D01*
X034499Y021873D01*
X031918Y021873D01*
X031915Y021876D01*
X031814Y021918D01*
X031705Y021918D01*
X031604Y021876D01*
X031601Y021873D01*
X027668Y021873D01*
X027665Y021876D01*
X027564Y021918D01*
X027455Y021918D01*
X027354Y021876D01*
X027351Y021873D01*
X025855Y021873D01*
X024880Y022848D01*
X027916Y022848D01*
X027979Y022785D01*
X028080Y022743D01*
X028189Y022743D01*
X028290Y022785D01*
X028368Y022863D01*
X028410Y022964D01*
X028410Y023056D01*
X028502Y023056D01*
X028603Y023098D01*
X028680Y023175D01*
X028690Y023198D01*
X028690Y023110D01*
X028789Y023011D01*
X029139Y022661D01*
X029280Y022661D01*
X035530Y022661D01*
X035629Y022561D01*
X035617Y022549D01*
X035575Y022448D01*
X035575Y022339D01*
X035617Y022238D01*
X035694Y022160D01*
X035795Y022118D01*
X035905Y022118D01*
X035969Y022145D01*
X035972Y022081D02*
X034941Y022081D01*
X034943Y022200D02*
X035655Y022200D01*
X035583Y022318D02*
X034883Y022318D01*
X034669Y022143D02*
X034669Y021643D01*
X034877Y021963D02*
X036035Y021963D01*
X036452Y021963D02*
X037216Y021963D01*
X037153Y022081D02*
X036516Y022081D01*
X036518Y022200D02*
X037151Y022200D01*
X036223Y023029D02*
X041583Y023029D01*
X041758Y023029D02*
X041762Y023029D01*
X041758Y023148D02*
X041762Y023148D01*
X041758Y023266D02*
X041762Y023266D01*
X041758Y023385D02*
X041762Y023385D01*
X041438Y023148D02*
X040265Y023148D01*
X040340Y023266D02*
X041375Y023266D01*
X041355Y023385D02*
X040364Y023385D01*
X040347Y023503D02*
X041369Y023503D01*
X041426Y023622D02*
X040282Y023622D01*
X040010Y023831D02*
X040010Y023393D01*
X039754Y023148D02*
X038040Y023148D01*
X038115Y023266D02*
X039679Y023266D01*
X039655Y023385D02*
X038139Y023385D01*
X038122Y023503D02*
X039672Y023503D01*
X039737Y023622D02*
X038057Y023622D01*
X037785Y023393D02*
X037597Y023206D01*
X029635Y023206D01*
X029385Y023456D01*
X029385Y026443D01*
X029060Y026768D01*
X028060Y026768D01*
X028472Y027081D02*
X029022Y027081D01*
X029572Y026531D01*
X029572Y023643D01*
X029822Y023393D01*
X036512Y023393D01*
X036637Y023518D01*
X035850Y022581D02*
X035850Y022393D01*
X035850Y022581D02*
X035600Y022831D01*
X029210Y022831D01*
X028860Y023181D01*
X028860Y026143D01*
X028585Y026110D02*
X026183Y026110D01*
X026301Y025992D02*
X028625Y025992D01*
X028690Y025873D02*
X026420Y025873D01*
X026538Y025755D02*
X028690Y025755D01*
X028690Y025636D02*
X026657Y025636D01*
X026503Y025636D02*
X026503Y025636D01*
X026384Y025518D02*
X026384Y025518D01*
X026266Y025399D02*
X026266Y025399D01*
X026147Y025281D02*
X026147Y025281D01*
X026029Y025162D02*
X026029Y025162D01*
X025910Y025044D02*
X025910Y025044D01*
X025792Y024925D02*
X025792Y024925D01*
X025728Y024925D02*
X025727Y024925D01*
X025673Y024807D02*
X025673Y024807D01*
X025555Y024688D02*
X025555Y024688D01*
X025436Y024570D02*
X025436Y024570D01*
X025318Y024451D02*
X025318Y024451D01*
X025199Y024333D02*
X025199Y024333D01*
X025081Y024214D02*
X025081Y024214D01*
X024962Y024096D02*
X024962Y024096D01*
X024917Y024096D02*
X024197Y024096D01*
X024079Y024214D02*
X024798Y024214D01*
X024680Y024333D02*
X023960Y024333D01*
X023842Y024451D02*
X024561Y024451D01*
X024443Y024570D02*
X023723Y024570D01*
X023605Y024688D02*
X024324Y024688D01*
X024210Y024807D02*
X023486Y024807D01*
X023430Y024925D02*
X024188Y024925D01*
X024270Y025044D02*
X023430Y025044D01*
X023430Y025162D02*
X024388Y025162D01*
X024507Y025281D02*
X023430Y025281D01*
X023430Y025399D02*
X024625Y025399D01*
X024744Y025518D02*
X023430Y025518D01*
X023430Y025636D02*
X024862Y025636D01*
X025016Y025636D02*
X025016Y025636D01*
X024981Y025755D02*
X023430Y025755D01*
X023430Y025873D02*
X025099Y025873D01*
X025218Y025992D02*
X023430Y025992D01*
X023430Y026110D02*
X025336Y026110D01*
X025455Y026229D02*
X023430Y026229D01*
X023430Y026347D02*
X025573Y026347D01*
X025135Y025518D02*
X025135Y025518D01*
X025253Y025399D02*
X025254Y025399D01*
X025372Y025281D02*
X025372Y025281D01*
X025490Y025162D02*
X025491Y025162D01*
X025609Y025044D02*
X025609Y025044D01*
X025846Y024807D02*
X025846Y024807D01*
X025964Y024688D02*
X025965Y024688D01*
X026083Y024570D02*
X026083Y024570D01*
X026201Y024451D02*
X026202Y024451D01*
X026320Y024333D02*
X026320Y024333D01*
X026438Y024214D02*
X026439Y024214D01*
X026557Y024096D02*
X026557Y024096D01*
X026603Y024096D02*
X028690Y024096D01*
X028690Y024214D02*
X026721Y024214D01*
X026840Y024333D02*
X028690Y024333D01*
X028690Y024451D02*
X026958Y024451D01*
X027077Y024570D02*
X028690Y024570D01*
X028690Y024688D02*
X027195Y024688D01*
X027309Y024807D02*
X028690Y024807D01*
X028690Y024925D02*
X027331Y024925D01*
X027249Y025044D02*
X028690Y025044D01*
X028690Y025162D02*
X027131Y025162D01*
X027012Y025281D02*
X028690Y025281D01*
X028690Y025399D02*
X026894Y025399D01*
X026775Y025518D02*
X028690Y025518D01*
X029760Y026643D02*
X029760Y023831D01*
X030010Y023581D01*
X031947Y023581D01*
X032197Y023831D01*
X040010Y023831D01*
X047635Y023831D01*
X047947Y023518D01*
X049322Y023518D01*
X049447Y023643D01*
X050157Y023643D01*
X050760Y022956D02*
X051010Y023206D01*
X051010Y027768D01*
X050760Y028018D01*
X050760Y030143D01*
X050510Y030393D01*
X049767Y030393D01*
X049027Y030376D02*
X048260Y030376D01*
X048260Y030258D02*
X049027Y030258D01*
X049027Y030139D02*
X048260Y030139D01*
X048260Y030021D02*
X050590Y030021D01*
X050590Y029902D02*
X048260Y029902D01*
X048260Y029784D02*
X050590Y029784D01*
X050590Y029665D02*
X050507Y029665D01*
X050507Y029547D02*
X050590Y029547D01*
X050590Y029428D02*
X050507Y029428D01*
X050507Y029310D02*
X050590Y029310D01*
X050590Y029191D02*
X050507Y029191D01*
X050482Y029073D02*
X050590Y029073D01*
X050590Y028954D02*
X050501Y028954D01*
X049760Y029143D02*
X049760Y029385D01*
X049767Y029393D01*
X049027Y029428D02*
X048260Y029428D01*
X048260Y029547D02*
X049027Y029547D01*
X049027Y029665D02*
X048260Y029665D01*
X048176Y029310D02*
X049027Y029310D01*
X049027Y029191D02*
X048058Y029191D01*
X047939Y029073D02*
X049052Y029073D01*
X049056Y028717D02*
X047584Y028717D01*
X047465Y028599D02*
X049027Y028599D01*
X049027Y028480D02*
X047347Y028480D01*
X046740Y027414D02*
X048905Y027414D01*
X048905Y027295D02*
X046830Y027295D01*
X046864Y027177D02*
X048905Y027177D01*
X048905Y027058D02*
X046857Y027058D01*
X046807Y026940D02*
X048905Y026940D01*
X048905Y026821D02*
X046657Y026821D01*
X046714Y026703D02*
X048905Y026703D01*
X048905Y026584D02*
X046780Y026584D01*
X046785Y026466D02*
X048905Y026466D01*
X048905Y026347D02*
X046727Y026347D01*
X046680Y026229D02*
X048905Y026229D01*
X048905Y026110D02*
X046680Y026110D01*
X046680Y025992D02*
X048905Y025992D01*
X048905Y025873D02*
X046680Y025873D01*
X046680Y025755D02*
X048905Y025755D01*
X048905Y025636D02*
X046718Y025636D01*
X046781Y025518D02*
X048905Y025518D01*
X048905Y025399D02*
X046784Y025399D01*
X046510Y025456D02*
X046510Y026518D01*
X046305Y026703D02*
X042690Y026703D01*
X042713Y026671D02*
X042664Y026739D01*
X042605Y026798D01*
X042537Y026847D01*
X042463Y026884D01*
X042384Y026910D01*
X042301Y026923D01*
X042300Y026923D01*
X042300Y026433D01*
X042790Y026433D01*
X042790Y026435D01*
X042776Y026517D01*
X042751Y026597D01*
X042713Y026671D01*
X042755Y026584D02*
X046239Y026584D01*
X046235Y026466D02*
X042785Y026466D01*
X042790Y026353D02*
X042300Y026353D01*
X042300Y026433D01*
X042220Y026433D01*
X042220Y026923D01*
X042218Y026923D01*
X042135Y026910D01*
X042056Y026884D01*
X041982Y026847D01*
X041914Y026798D01*
X041855Y026739D01*
X041806Y026671D01*
X041768Y026597D01*
X041743Y026517D01*
X041738Y026491D01*
X041666Y026665D01*
X041531Y026800D01*
X041355Y026873D01*
X041164Y026873D01*
X040988Y026800D01*
X040853Y026665D01*
X040780Y026489D01*
X040780Y026298D01*
X040853Y026121D01*
X040988Y025986D01*
X041164Y025913D01*
X041355Y025913D01*
X041531Y025986D01*
X041666Y026121D01*
X041738Y026295D01*
X041743Y026269D01*
X041768Y026190D01*
X041806Y026116D01*
X041855Y026048D01*
X041914Y025989D01*
X041982Y025940D01*
X042056Y025902D01*
X042135Y025876D01*
X042218Y025863D01*
X042220Y025863D01*
X042220Y026353D01*
X042300Y026353D01*
X042300Y025863D01*
X042301Y025863D01*
X042384Y025876D01*
X042463Y025902D01*
X042537Y025940D01*
X042605Y025989D01*
X042664Y026048D01*
X042713Y026116D01*
X042751Y026190D01*
X042776Y026269D01*
X042790Y026352D01*
X042790Y026353D01*
X042789Y026347D02*
X046292Y026347D01*
X046340Y026229D02*
X042763Y026229D01*
X042709Y026110D02*
X046340Y026110D01*
X046340Y025992D02*
X042608Y025992D01*
X042364Y025873D02*
X046340Y025873D01*
X046340Y025755D02*
X034430Y025755D01*
X034430Y025873D02*
X042155Y025873D01*
X042220Y025873D02*
X042300Y025873D01*
X042300Y025992D02*
X042220Y025992D01*
X042220Y026110D02*
X042300Y026110D01*
X042300Y026229D02*
X042220Y026229D01*
X042220Y026347D02*
X042300Y026347D01*
X042300Y026466D02*
X042220Y026466D01*
X042220Y026584D02*
X042300Y026584D01*
X042300Y026703D02*
X042220Y026703D01*
X042220Y026821D02*
X042300Y026821D01*
X042572Y026821D02*
X046362Y026821D01*
X046279Y027414D02*
X044280Y027414D01*
X044399Y027532D02*
X048948Y027532D01*
X049067Y027651D02*
X044517Y027651D01*
X044636Y027769D02*
X049185Y027769D01*
X049027Y028125D02*
X044991Y028125D01*
X045110Y028243D02*
X049027Y028243D01*
X049027Y028362D02*
X045228Y028362D01*
X044873Y028006D02*
X050215Y028006D01*
X050215Y027888D02*
X050138Y027888D01*
X049881Y027888D02*
X044754Y027888D01*
X041947Y026821D02*
X041480Y026821D01*
X041629Y026703D02*
X041829Y026703D01*
X041764Y026584D02*
X041700Y026584D01*
X041711Y026229D02*
X041756Y026229D01*
X041810Y026110D02*
X041655Y026110D01*
X041537Y025992D02*
X041911Y025992D01*
X040982Y025992D02*
X040537Y025992D01*
X040531Y025986D02*
X040666Y026121D01*
X040740Y026298D01*
X040740Y026489D01*
X040666Y026665D01*
X040531Y026800D01*
X040355Y026873D01*
X040164Y026873D01*
X039988Y026800D01*
X039853Y026665D01*
X039780Y026489D01*
X039780Y026298D01*
X039853Y026121D01*
X039988Y025986D01*
X040164Y025913D01*
X040355Y025913D01*
X040531Y025986D01*
X040655Y026110D02*
X040864Y026110D01*
X040808Y026229D02*
X040711Y026229D01*
X040740Y026347D02*
X040780Y026347D01*
X040780Y026466D02*
X040740Y026466D01*
X040700Y026584D02*
X040819Y026584D01*
X040890Y026703D02*
X040629Y026703D01*
X040480Y026821D02*
X041039Y026821D01*
X040039Y026821D02*
X039480Y026821D01*
X039531Y026800D02*
X039355Y026873D01*
X039164Y026873D01*
X038988Y026800D01*
X038853Y026665D01*
X038780Y026489D01*
X038780Y026298D01*
X038853Y026121D01*
X038988Y025986D01*
X039164Y025913D01*
X039355Y025913D01*
X039531Y025986D01*
X039666Y026121D01*
X039740Y026298D01*
X039740Y026489D01*
X039666Y026665D01*
X039531Y026800D01*
X039629Y026703D02*
X039890Y026703D01*
X039819Y026584D02*
X039700Y026584D01*
X039740Y026466D02*
X039780Y026466D01*
X039780Y026347D02*
X039740Y026347D01*
X039711Y026229D02*
X039808Y026229D01*
X039864Y026110D02*
X039655Y026110D01*
X039537Y025992D02*
X039982Y025992D01*
X038982Y025992D02*
X038537Y025992D01*
X038531Y025986D02*
X038666Y026121D01*
X038740Y026298D01*
X038740Y026489D01*
X038666Y026665D01*
X038531Y026800D01*
X038355Y026873D01*
X038164Y026873D01*
X037988Y026800D01*
X037853Y026665D01*
X037780Y026489D01*
X037780Y026298D01*
X037853Y026121D01*
X037988Y025986D01*
X038164Y025913D01*
X038355Y025913D01*
X038531Y025986D01*
X038655Y026110D02*
X038864Y026110D01*
X038808Y026229D02*
X038711Y026229D01*
X038740Y026347D02*
X038780Y026347D01*
X038780Y026466D02*
X038740Y026466D01*
X038700Y026584D02*
X038819Y026584D01*
X038890Y026703D02*
X038629Y026703D01*
X038480Y026821D02*
X039039Y026821D01*
X038039Y026821D02*
X037480Y026821D01*
X037531Y026800D02*
X037355Y026873D01*
X037164Y026873D01*
X036988Y026800D01*
X036853Y026665D01*
X036780Y026489D01*
X036780Y026298D01*
X036853Y026121D01*
X036988Y025986D01*
X037164Y025913D01*
X037355Y025913D01*
X037531Y025986D01*
X037666Y026121D01*
X037740Y026298D01*
X037740Y026489D01*
X037666Y026665D01*
X037531Y026800D01*
X037629Y026703D02*
X037890Y026703D01*
X037819Y026584D02*
X037700Y026584D01*
X037740Y026466D02*
X037780Y026466D01*
X037780Y026347D02*
X037740Y026347D01*
X037711Y026229D02*
X037808Y026229D01*
X037864Y026110D02*
X037655Y026110D01*
X037537Y025992D02*
X037982Y025992D01*
X036982Y025992D02*
X036537Y025992D01*
X036531Y025986D02*
X036666Y026121D01*
X036740Y026298D01*
X036740Y026489D01*
X036666Y026665D01*
X036531Y026800D01*
X036355Y026873D01*
X036164Y026873D01*
X035988Y026800D01*
X035853Y026665D01*
X035780Y026489D01*
X035780Y026298D01*
X035853Y026121D01*
X035988Y025986D01*
X036164Y025913D01*
X036355Y025913D01*
X036531Y025986D01*
X036655Y026110D02*
X036864Y026110D01*
X036808Y026229D02*
X036711Y026229D01*
X036740Y026347D02*
X036780Y026347D01*
X036780Y026466D02*
X036740Y026466D01*
X036700Y026584D02*
X036819Y026584D01*
X036890Y026703D02*
X036629Y026703D01*
X036480Y026821D02*
X037039Y026821D01*
X036039Y026821D02*
X035480Y026821D01*
X035531Y026800D02*
X035355Y026873D01*
X035164Y026873D01*
X034988Y026800D01*
X034853Y026665D01*
X034780Y026489D01*
X034780Y026298D01*
X034853Y026121D01*
X034988Y025986D01*
X035164Y025913D01*
X035355Y025913D01*
X035531Y025986D01*
X035666Y026121D01*
X035740Y026298D01*
X035740Y026489D01*
X035666Y026665D01*
X035531Y026800D01*
X035629Y026703D02*
X035890Y026703D01*
X035819Y026584D02*
X035700Y026584D01*
X035740Y026466D02*
X035780Y026466D01*
X035780Y026347D02*
X035740Y026347D01*
X035711Y026229D02*
X035808Y026229D01*
X035864Y026110D02*
X035655Y026110D01*
X035537Y025992D02*
X035982Y025992D01*
X034982Y025992D02*
X034537Y025992D01*
X034655Y026110D02*
X034864Y026110D01*
X034808Y026229D02*
X034711Y026229D01*
X034740Y026347D02*
X034780Y026347D01*
X034780Y026466D02*
X034740Y026466D01*
X034700Y026584D02*
X034819Y026584D01*
X034890Y026703D02*
X034629Y026703D01*
X034480Y026821D02*
X035039Y026821D01*
X034260Y026393D02*
X034260Y025693D01*
X033960Y025393D01*
X034206Y025399D02*
X046235Y025399D01*
X046238Y025518D02*
X034324Y025518D01*
X034430Y025636D02*
X046301Y025636D01*
X047760Y024018D02*
X047885Y023893D01*
X049050Y023893D01*
X049260Y024581D02*
X049385Y024706D01*
X049572Y024706D01*
X049260Y024581D02*
X031572Y024581D01*
X031447Y024456D01*
X031172Y024451D02*
X030504Y024451D01*
X030492Y024464D02*
X030492Y025820D01*
X030580Y025784D01*
X030584Y025784D01*
X031211Y025157D01*
X031294Y025157D01*
X031297Y025154D01*
X031399Y025112D01*
X031403Y025112D01*
X031530Y024986D01*
X031577Y024938D01*
X031353Y024938D01*
X031290Y025001D01*
X031189Y025043D01*
X031080Y025043D01*
X030979Y025001D01*
X030901Y024924D01*
X030860Y024823D01*
X030860Y024714D01*
X030901Y024613D01*
X030979Y024535D01*
X031080Y024493D01*
X031172Y024493D01*
X031172Y024401D01*
X031208Y024313D01*
X030642Y024313D01*
X030492Y024464D01*
X030492Y024570D02*
X030944Y024570D01*
X030870Y024688D02*
X030492Y024688D01*
X030492Y024807D02*
X030860Y024807D01*
X030903Y024925D02*
X030492Y024925D01*
X030492Y025044D02*
X031471Y025044D01*
X031206Y025162D02*
X030492Y025162D01*
X030492Y025281D02*
X031087Y025281D01*
X030969Y025399D02*
X030492Y025399D01*
X030492Y025518D02*
X030850Y025518D01*
X030732Y025636D02*
X030492Y025636D01*
X030492Y025755D02*
X030613Y025755D01*
X031160Y026493D02*
X032060Y025593D01*
X033060Y025593D01*
X033260Y025793D01*
X033260Y026393D01*
X031160Y026493D02*
X031160Y027193D01*
X029060Y029293D01*
X022160Y029293D01*
X021560Y029893D01*
X020950Y028954D02*
X020782Y028954D01*
X020752Y028393D02*
X022460Y028393D01*
X023260Y027593D01*
X023260Y024793D01*
X024722Y023331D01*
X028447Y023331D01*
X028653Y023148D02*
X028690Y023148D01*
X028771Y023029D02*
X028410Y023029D01*
X028388Y022911D02*
X028889Y022911D01*
X029008Y022792D02*
X028297Y022792D01*
X028135Y023018D02*
X024735Y023018D01*
X023060Y024693D01*
X023060Y027443D01*
X023205Y027888D02*
X027316Y027888D01*
X027285Y028006D02*
X023087Y028006D01*
X022493Y027769D02*
X021626Y027769D01*
X021744Y027888D02*
X022375Y027888D01*
X022266Y027651D02*
X016445Y027651D01*
X016445Y027769D02*
X019956Y027769D01*
X019837Y027888D02*
X016445Y027888D01*
X016445Y028006D02*
X019719Y028006D01*
X019600Y028125D02*
X019507Y028125D01*
X019844Y028362D02*
X020012Y028362D01*
X020012Y028480D02*
X019725Y028480D01*
X019507Y028599D02*
X020012Y028599D01*
X020040Y028717D02*
X019479Y028717D01*
X019962Y028243D02*
X020012Y028243D01*
X021303Y027177D02*
X016445Y027177D01*
X016445Y027295D02*
X021421Y027295D01*
X021540Y027414D02*
X016445Y027414D01*
X016445Y027532D02*
X021658Y027532D01*
X021760Y027393D02*
X021447Y027081D01*
X021447Y021206D01*
X021760Y020893D01*
X021377Y021036D02*
X021377Y021036D01*
X020812Y020176D02*
X020711Y020218D01*
X020602Y020218D01*
X020501Y020176D01*
X020438Y020113D01*
X019641Y020113D01*
X019578Y020176D01*
X019477Y020218D01*
X019367Y020218D01*
X019266Y020176D01*
X019189Y020099D01*
X019147Y019998D01*
X019147Y019889D01*
X019189Y019788D01*
X019266Y019710D01*
X019367Y019668D01*
X019477Y019668D01*
X019578Y019710D01*
X019641Y019773D01*
X020438Y019773D01*
X020501Y019710D01*
X020602Y019668D01*
X020711Y019668D01*
X020812Y019710D01*
X020890Y019788D01*
X020932Y019889D01*
X020932Y019998D01*
X020890Y020099D01*
X020812Y020176D01*
X020791Y020185D02*
X023840Y020185D01*
X023840Y020067D02*
X020903Y020067D01*
X020932Y019948D02*
X023840Y019948D01*
X023840Y019830D02*
X020907Y019830D01*
X020814Y019711D02*
X023840Y019711D01*
X023840Y019593D02*
X016445Y019593D01*
X016445Y019711D02*
X019265Y019711D01*
X019171Y019830D02*
X016445Y019830D01*
X016445Y019948D02*
X019147Y019948D01*
X019176Y020067D02*
X016445Y020067D01*
X016445Y020185D02*
X019288Y020185D01*
X019556Y020185D02*
X020522Y020185D01*
X020657Y019943D02*
X019422Y019943D01*
X019579Y019711D02*
X020500Y019711D01*
X021041Y019356D02*
X016445Y019356D01*
X016445Y019474D02*
X021160Y019474D01*
X020974Y019237D02*
X016445Y019237D01*
X016445Y019119D02*
X020926Y019119D01*
X020926Y019000D02*
X016445Y019000D01*
X016445Y018882D02*
X017408Y018882D01*
X017356Y018868D02*
X017117Y018730D01*
X016923Y018535D01*
X016785Y018297D01*
X016714Y018031D01*
X016714Y017756D01*
X016785Y017490D01*
X016923Y017251D01*
X017117Y017056D01*
X017356Y016919D01*
X017622Y016847D01*
X017897Y016847D01*
X018163Y016919D01*
X018402Y017056D01*
X018596Y017251D01*
X018734Y017490D01*
X018805Y017756D01*
X018805Y018031D01*
X018734Y018297D01*
X018596Y018535D01*
X018402Y018730D01*
X018163Y018868D01*
X017897Y018939D01*
X017622Y018939D01*
X017356Y018868D01*
X017175Y018763D02*
X016445Y018763D01*
X016445Y018645D02*
X017032Y018645D01*
X016917Y018526D02*
X016445Y018526D01*
X016445Y018408D02*
X016849Y018408D01*
X016783Y018289D02*
X016445Y018289D01*
X016445Y018171D02*
X016751Y018171D01*
X016719Y018052D02*
X016445Y018052D01*
X016445Y017934D02*
X016714Y017934D01*
X016714Y017815D02*
X016450Y017815D01*
X016462Y017697D02*
X016729Y017697D01*
X016761Y017578D02*
X016494Y017578D01*
X016526Y017460D02*
X016802Y017460D01*
X016871Y017341D02*
X016573Y017341D01*
X016641Y017223D02*
X016951Y017223D01*
X017069Y017104D02*
X016710Y017104D01*
X016823Y016986D02*
X017240Y016986D01*
X017134Y016749D02*
X019660Y016749D01*
X019626Y016867D02*
X017971Y016867D01*
X018279Y016986D02*
X019638Y016986D01*
X019708Y017104D02*
X018450Y017104D01*
X018568Y017223D02*
X042824Y017223D01*
X042762Y017341D02*
X018648Y017341D01*
X018717Y017460D02*
X042751Y017460D01*
X042783Y017578D02*
X018758Y017578D01*
X018790Y017697D02*
X022567Y017697D01*
X022507Y017815D02*
X018805Y017815D01*
X018805Y017934D02*
X022510Y017934D01*
X022559Y018052D02*
X018800Y018052D01*
X018768Y018171D02*
X023014Y018171D01*
X022996Y018289D02*
X018736Y018289D01*
X018670Y018408D02*
X023031Y018408D01*
X023176Y018526D02*
X021756Y018526D01*
X021896Y018645D02*
X046146Y018645D01*
X046264Y018763D02*
X021977Y018763D01*
X022034Y019119D02*
X024169Y019119D01*
X024050Y019237D02*
X021986Y019237D01*
X021919Y019356D02*
X023932Y019356D01*
X023840Y019474D02*
X021800Y019474D01*
X020934Y018882D02*
X018111Y018882D01*
X018344Y018763D02*
X020983Y018763D01*
X021064Y018645D02*
X018487Y018645D01*
X018602Y018526D02*
X021204Y018526D01*
X023271Y018268D02*
X046010Y018268D01*
X046510Y018768D01*
X046510Y022143D01*
X046718Y021963D02*
X047643Y021963D01*
X047643Y022081D02*
X046781Y022081D01*
X046784Y022200D02*
X047643Y022200D01*
X047643Y022199D02*
X047643Y022458D01*
X047654Y022498D01*
X047675Y022535D01*
X047705Y022565D01*
X047741Y022586D01*
X047782Y022597D01*
X047981Y022597D01*
X047981Y022199D01*
X047981Y022083D01*
X048097Y022083D01*
X048097Y021686D01*
X048296Y021686D01*
X048337Y021697D01*
X048374Y021718D01*
X048403Y021748D01*
X048424Y021784D01*
X048435Y021825D01*
X048435Y022083D01*
X048097Y022083D01*
X048097Y022199D01*
X048435Y022199D01*
X048435Y022458D01*
X048424Y022498D01*
X048403Y022535D01*
X048374Y022565D01*
X048337Y022586D01*
X048296Y022597D01*
X048097Y022597D01*
X048097Y022199D01*
X047981Y022199D01*
X047643Y022199D01*
X047643Y022083D02*
X047643Y021825D01*
X047654Y021784D01*
X047675Y021748D01*
X047705Y021718D01*
X047741Y021697D01*
X047782Y021686D01*
X047981Y021686D01*
X047981Y022083D01*
X047643Y022083D01*
X047643Y022318D02*
X046723Y022318D01*
X046296Y022318D02*
X045612Y022318D01*
X045494Y022200D02*
X046235Y022200D01*
X046238Y022081D02*
X045375Y022081D01*
X045259Y021963D02*
X045257Y021963D01*
X045182Y021844D02*
X045146Y021844D01*
X045146Y021726D02*
X045182Y021726D01*
X045182Y021607D02*
X045146Y021607D01*
X045146Y021489D02*
X045577Y021489D01*
X045577Y021607D02*
X045697Y021607D01*
X045697Y021591D02*
X045697Y021986D01*
X045954Y021986D01*
X045994Y021975D01*
X046031Y021954D01*
X046061Y021925D01*
X046082Y021888D01*
X046093Y021847D01*
X046093Y021591D01*
X045697Y021591D01*
X045697Y021489D02*
X046340Y021489D01*
X046340Y021607D02*
X046093Y021607D01*
X046093Y021726D02*
X046340Y021726D01*
X046340Y021844D02*
X046093Y021844D01*
X046016Y021963D02*
X046301Y021963D01*
X046680Y021844D02*
X047643Y021844D01*
X047697Y021726D02*
X046680Y021726D01*
X046680Y021607D02*
X053450Y021607D01*
X053450Y021489D02*
X046680Y021489D01*
X046680Y021370D02*
X049441Y021370D01*
X049369Y021252D02*
X048385Y021252D01*
X048385Y021133D02*
X049360Y021133D01*
X049406Y021015D02*
X048385Y021015D01*
X048385Y020896D02*
X049465Y020896D01*
X049465Y020778D02*
X048385Y020778D01*
X048677Y020659D02*
X048717Y020659D01*
X049077Y020659D02*
X049306Y020659D01*
X049463Y020659D02*
X049503Y020659D01*
X049635Y020768D02*
X049760Y020643D01*
X049760Y019643D01*
X049557Y019830D02*
X048385Y019830D01*
X048385Y019948D02*
X049590Y019948D01*
X049490Y019711D02*
X048385Y019711D01*
X048385Y019593D02*
X049485Y019593D01*
X049540Y019474D02*
X049359Y019474D01*
X049353Y019481D02*
X049149Y019565D01*
X048929Y019565D01*
X048725Y019481D01*
X048570Y019325D01*
X048485Y019122D01*
X048485Y018901D01*
X048570Y018698D01*
X048725Y018542D01*
X048929Y018458D01*
X049149Y018458D01*
X049353Y018542D01*
X049508Y018698D01*
X049593Y018901D01*
X049593Y019122D01*
X049508Y019325D01*
X049353Y019481D01*
X049478Y019356D02*
X052190Y019356D01*
X052157Y019347D02*
X052157Y019347D01*
X051967Y019237D02*
X049545Y019237D01*
X049593Y019119D02*
X051779Y019119D01*
X051802Y019142D02*
X051802Y019142D01*
X051660Y019000D02*
X049593Y019000D01*
X049585Y018882D02*
X051542Y018882D01*
X051511Y018851D02*
X051511Y018851D01*
X051460Y018763D02*
X049536Y018763D01*
X049455Y018645D02*
X051392Y018645D01*
X051324Y018526D02*
X049315Y018526D01*
X048763Y018526D02*
X048280Y018526D01*
X048280Y018408D02*
X051282Y018408D01*
X051306Y018495D02*
X051306Y018495D01*
X051251Y018289D02*
X050364Y018289D01*
X050455Y018171D02*
X051219Y018171D01*
X051200Y018052D02*
X050489Y018052D01*
X050483Y017934D02*
X051200Y017934D01*
X051193Y017815D02*
X050445Y017815D01*
X050445Y017697D02*
X051162Y017697D01*
X051191Y017785D02*
X051191Y017785D01*
X051123Y017578D02*
X050445Y017578D01*
X050445Y017460D02*
X051037Y017460D01*
X050909Y017341D02*
X050445Y017341D01*
X050445Y017223D02*
X050651Y017223D01*
X050862Y016630D02*
X053083Y016630D01*
X052971Y016867D02*
X053577Y016867D01*
X053696Y016986D02*
X053279Y016986D01*
X053450Y017104D02*
X053809Y017104D01*
X053878Y017223D02*
X053568Y017223D01*
X053648Y017341D02*
X053946Y017341D01*
X053993Y017460D02*
X053717Y017460D01*
X053758Y017578D02*
X054025Y017578D01*
X054057Y017697D02*
X053790Y017697D01*
X053805Y017815D02*
X054069Y017815D01*
X054063Y017722D02*
X054063Y017722D01*
X054075Y017934D02*
X053805Y017934D01*
X053800Y018052D02*
X054075Y018052D01*
X054075Y018171D02*
X053768Y018171D01*
X053736Y018289D02*
X054075Y018289D01*
X054075Y018408D02*
X053670Y018408D01*
X053602Y018526D02*
X054075Y018526D01*
X054075Y018645D02*
X053487Y018645D01*
X053344Y018763D02*
X054075Y018763D01*
X054075Y018882D02*
X053116Y018882D01*
X053362Y018962D02*
X053362Y018962D01*
X053415Y019000D02*
X054075Y019000D01*
X054075Y019119D02*
X053578Y019119D01*
X053721Y019237D02*
X054075Y019237D01*
X054075Y019356D02*
X053807Y019356D01*
X053893Y019474D02*
X054075Y019474D01*
X054075Y019593D02*
X053958Y019593D01*
X053941Y019541D02*
X053941Y019541D01*
X053997Y019711D02*
X054075Y019711D01*
X054075Y019830D02*
X054035Y019830D01*
X054070Y019948D02*
X054075Y019948D01*
X054070Y020067D02*
X054075Y020067D01*
X054070Y020185D02*
X054075Y020185D01*
X054070Y020304D02*
X054075Y020304D01*
X054070Y020422D02*
X054075Y020422D01*
X054070Y020541D02*
X054075Y020541D01*
X054070Y020659D02*
X054075Y020659D01*
X054070Y020778D02*
X054075Y020778D01*
X054070Y020896D02*
X054075Y020896D01*
X054070Y021015D02*
X054075Y021015D01*
X054070Y021133D02*
X054075Y021133D01*
X054070Y021252D02*
X054075Y021252D01*
X054070Y021370D02*
X054075Y021370D01*
X054070Y021489D02*
X054075Y021489D01*
X054070Y021607D02*
X054075Y021607D01*
X054070Y021726D02*
X054075Y021726D01*
X054070Y021844D02*
X054075Y021844D01*
X054070Y021963D02*
X054075Y021963D01*
X054070Y022081D02*
X054075Y022081D01*
X054070Y022200D02*
X054075Y022200D01*
X054070Y022318D02*
X054075Y022318D01*
X054070Y022437D02*
X054075Y022437D01*
X054070Y022555D02*
X054075Y022555D01*
X054070Y022674D02*
X054075Y022674D01*
X054070Y022792D02*
X054075Y022792D01*
X054070Y022911D02*
X054075Y022911D01*
X054070Y023029D02*
X054075Y023029D01*
X054070Y023148D02*
X054075Y023148D01*
X054070Y023266D02*
X054075Y023266D01*
X054070Y023385D02*
X054075Y023385D01*
X054070Y023503D02*
X054075Y023503D01*
X054070Y023622D02*
X054075Y023622D01*
X054070Y023740D02*
X054075Y023740D01*
X054070Y023859D02*
X054075Y023859D01*
X054070Y023977D02*
X054075Y023977D01*
X054070Y024096D02*
X054075Y024096D01*
X054070Y024214D02*
X054075Y024214D01*
X054070Y024333D02*
X054075Y024333D01*
X054070Y024451D02*
X054075Y024451D01*
X054070Y024570D02*
X054075Y024570D01*
X054070Y024688D02*
X054075Y024688D01*
X054070Y024807D02*
X054075Y024807D01*
X054070Y024925D02*
X054075Y024925D01*
X054070Y025044D02*
X054075Y025044D01*
X054070Y025162D02*
X054075Y025162D01*
X054070Y025281D02*
X054075Y025281D01*
X054070Y025399D02*
X054075Y025399D01*
X054070Y025518D02*
X054075Y025518D01*
X054070Y025636D02*
X054075Y025636D01*
X054070Y025755D02*
X054075Y025755D01*
X054070Y025873D02*
X054075Y025873D01*
X054070Y025992D02*
X054075Y025992D01*
X054070Y026110D02*
X054075Y026110D01*
X054070Y026229D02*
X054075Y026229D01*
X054070Y026347D02*
X054075Y026347D01*
X054070Y026466D02*
X054075Y026466D01*
X054070Y026584D02*
X054075Y026584D01*
X054070Y026703D02*
X054075Y026703D01*
X054070Y026821D02*
X054075Y026821D01*
X054070Y026940D02*
X054075Y026940D01*
X054070Y027058D02*
X054075Y027058D01*
X054070Y027177D02*
X054075Y027177D01*
X054070Y027295D02*
X054075Y027295D01*
X054070Y027414D02*
X054075Y027414D01*
X054070Y027532D02*
X054075Y027532D01*
X054070Y027651D02*
X054075Y027651D01*
X054070Y027769D02*
X054075Y027769D01*
X054070Y027888D02*
X054075Y027888D01*
X054070Y028006D02*
X054075Y028006D01*
X054070Y028125D02*
X054075Y028125D01*
X054075Y028243D02*
X054054Y028243D01*
X054075Y028362D02*
X053979Y028362D01*
X054075Y028480D02*
X053861Y028480D01*
X053742Y028599D02*
X054075Y028599D01*
X054075Y028717D02*
X052463Y028717D01*
X052467Y029073D02*
X054075Y029073D01*
X054075Y029191D02*
X052492Y029191D01*
X052492Y029310D02*
X054075Y029310D01*
X054075Y029428D02*
X052492Y029428D01*
X052492Y029547D02*
X054075Y029547D01*
X054075Y029665D02*
X052492Y029665D01*
X052485Y030021D02*
X054075Y030021D01*
X054075Y030139D02*
X052542Y030139D01*
X051812Y030139D02*
X051692Y030139D01*
X051692Y030021D02*
X051812Y030021D01*
X051692Y030453D02*
X050962Y030453D01*
X050962Y030664D01*
X050973Y030705D01*
X050994Y030742D01*
X051023Y030771D01*
X051060Y030792D01*
X051101Y030803D01*
X051692Y030803D01*
X051692Y030453D01*
X051692Y030495D02*
X051812Y030495D01*
X051812Y030613D02*
X051692Y030613D01*
X051692Y030732D02*
X051812Y030732D01*
X050988Y030732D02*
X050464Y030732D01*
X050507Y030613D02*
X050962Y030613D01*
X050962Y030495D02*
X050648Y030495D01*
X050523Y030139D02*
X050507Y030139D01*
X051752Y029393D02*
X051752Y029143D01*
X051502Y028893D01*
X051197Y028893D01*
X051685Y028836D02*
X054075Y028836D01*
X054075Y028954D02*
X051803Y028954D01*
X051262Y028006D02*
X053450Y028006D01*
X053450Y027888D02*
X053122Y027888D01*
X053150Y027876D02*
X053049Y027918D01*
X052939Y027918D01*
X052838Y027876D01*
X052835Y027873D01*
X051918Y027873D01*
X051915Y027876D01*
X051814Y027918D01*
X051705Y027918D01*
X051604Y027876D01*
X051526Y027799D01*
X051485Y027698D01*
X051485Y027589D01*
X051526Y027488D01*
X051604Y027410D01*
X051705Y027368D01*
X051814Y027368D01*
X051915Y027410D01*
X051918Y027413D01*
X052835Y027413D01*
X052838Y027410D01*
X052939Y027368D01*
X053049Y027368D01*
X053150Y027410D01*
X053227Y027488D01*
X053269Y027589D01*
X053269Y027698D01*
X053227Y027799D01*
X053150Y027876D01*
X053240Y027769D02*
X053450Y027769D01*
X053450Y027651D02*
X053269Y027651D01*
X053246Y027532D02*
X053450Y027532D01*
X053450Y027414D02*
X053154Y027414D01*
X053450Y027295D02*
X051367Y027295D01*
X051367Y027177D02*
X053450Y027177D01*
X053450Y027058D02*
X051367Y027058D01*
X051367Y026940D02*
X053450Y026940D01*
X053450Y026821D02*
X051367Y026821D01*
X051367Y026703D02*
X053450Y026703D01*
X053450Y026584D02*
X051367Y026584D01*
X051367Y026466D02*
X053450Y026466D01*
X053450Y026347D02*
X051367Y026347D01*
X051367Y026229D02*
X053450Y026229D01*
X053450Y026110D02*
X051367Y026110D01*
X051367Y025992D02*
X053450Y025992D01*
X053450Y025873D02*
X051367Y025873D01*
X051367Y025755D02*
X053450Y025755D01*
X053450Y025636D02*
X051367Y025636D01*
X051367Y025518D02*
X053450Y025518D01*
X053450Y025399D02*
X051367Y025399D01*
X051367Y025281D02*
X053450Y025281D01*
X053450Y025162D02*
X051367Y025162D01*
X051367Y025044D02*
X053450Y025044D01*
X053450Y024925D02*
X051367Y024925D01*
X051367Y024807D02*
X053450Y024807D01*
X053450Y024688D02*
X051367Y024688D01*
X051367Y024570D02*
X053450Y024570D01*
X053450Y024451D02*
X051367Y024451D01*
X051367Y024333D02*
X053450Y024333D01*
X053450Y024214D02*
X051367Y024214D01*
X051367Y024096D02*
X053450Y024096D01*
X053450Y023977D02*
X051367Y023977D01*
X051367Y023859D02*
X053450Y023859D01*
X053450Y023740D02*
X051367Y023740D01*
X051367Y023622D02*
X053450Y023622D01*
X053450Y023503D02*
X051367Y023503D01*
X051367Y023385D02*
X053450Y023385D01*
X053450Y023266D02*
X051367Y023266D01*
X051367Y023148D02*
X053450Y023148D01*
X053450Y023029D02*
X051367Y023029D01*
X051330Y022911D02*
X053450Y022911D01*
X053450Y022792D02*
X051211Y022792D01*
X051093Y022674D02*
X053450Y022674D01*
X053450Y022555D02*
X048383Y022555D01*
X048435Y022437D02*
X053450Y022437D01*
X053450Y022318D02*
X051109Y022318D01*
X051084Y022343D02*
X050954Y022397D01*
X050813Y022397D01*
X050683Y022343D01*
X050583Y022244D01*
X050530Y022114D01*
X050530Y021973D01*
X050583Y021843D01*
X050683Y021743D01*
X050813Y021689D01*
X050954Y021689D01*
X051084Y021743D01*
X051184Y021843D01*
X051238Y021973D01*
X051238Y022114D01*
X051184Y022244D01*
X051084Y022343D01*
X051202Y022200D02*
X053450Y022200D01*
X053450Y022081D02*
X051238Y022081D01*
X051233Y021963D02*
X053450Y021963D01*
X053450Y021844D02*
X051184Y021844D01*
X051042Y021726D02*
X053450Y021726D01*
X053450Y021370D02*
X049828Y021370D01*
X049900Y021252D02*
X053450Y021252D01*
X053450Y021133D02*
X049910Y021133D01*
X049863Y021015D02*
X053450Y021015D01*
X053450Y020896D02*
X049805Y020896D01*
X049865Y020778D02*
X053450Y020778D01*
X053450Y020659D02*
X049930Y020659D01*
X049930Y020541D02*
X053450Y020541D01*
X053450Y020422D02*
X049930Y020422D01*
X049930Y020304D02*
X053450Y020304D01*
X053450Y020185D02*
X049930Y020185D01*
X049930Y020067D02*
X053443Y020067D01*
X053413Y019948D02*
X049930Y019948D01*
X050035Y019593D02*
X053161Y019593D01*
X053247Y019655D02*
X053374Y019830D01*
X052906Y019474D02*
X049979Y019474D01*
X048719Y019474D02*
X048385Y019474D01*
X048382Y019356D02*
X048600Y019356D01*
X048533Y019237D02*
X046680Y019237D01*
X046680Y019119D02*
X047846Y019119D01*
X047756Y019000D02*
X046680Y019000D01*
X046680Y018882D02*
X047735Y018882D01*
X047740Y018763D02*
X046680Y018763D01*
X046626Y018645D02*
X047740Y018645D01*
X047740Y018526D02*
X046508Y018526D01*
X046389Y018408D02*
X047642Y018408D01*
X047524Y018289D02*
X046271Y018289D01*
X046152Y018171D02*
X047405Y018171D01*
X047813Y017815D02*
X049825Y017815D01*
X049825Y017697D02*
X047695Y017697D01*
X047932Y017934D02*
X049786Y017934D01*
X049780Y018052D02*
X048050Y018052D01*
X048169Y018171D02*
X049814Y018171D01*
X049905Y018289D02*
X048259Y018289D01*
X048280Y018645D02*
X048623Y018645D01*
X048542Y018763D02*
X048280Y018763D01*
X048285Y018882D02*
X048493Y018882D01*
X048485Y019000D02*
X048263Y019000D01*
X048173Y019119D02*
X048485Y019119D01*
X047697Y019356D02*
X046680Y019356D01*
X046680Y019474D02*
X047693Y019474D01*
X047693Y019593D02*
X046680Y019593D01*
X046680Y019711D02*
X047693Y019711D01*
X047693Y019830D02*
X046680Y019830D01*
X046680Y019948D02*
X047693Y019948D01*
X047718Y020067D02*
X046680Y020067D01*
X046680Y020185D02*
X047809Y020185D01*
X047834Y020304D02*
X046680Y020304D01*
X046680Y020422D02*
X047952Y020422D01*
X047732Y020541D02*
X046680Y020541D01*
X046680Y020659D02*
X047693Y020659D01*
X047693Y020778D02*
X046680Y020778D01*
X046680Y020896D02*
X047693Y020896D01*
X047693Y021015D02*
X046680Y021015D01*
X046680Y021133D02*
X047693Y021133D01*
X047693Y021252D02*
X046680Y021252D01*
X046340Y021252D02*
X046093Y021252D01*
X046093Y021370D02*
X046340Y021370D01*
X046340Y021133D02*
X046057Y021133D01*
X046340Y021015D02*
X045146Y021015D01*
X045146Y021133D02*
X045218Y021133D01*
X045182Y021252D02*
X045146Y021252D01*
X045146Y021370D02*
X045182Y021370D01*
X044806Y021370D02*
X044742Y021370D01*
X044742Y021252D02*
X044806Y021252D01*
X044806Y021133D02*
X044742Y021133D01*
X044742Y021015D02*
X044806Y021015D01*
X044806Y020896D02*
X044742Y020896D01*
X044806Y020778D02*
X044634Y020778D01*
X044572Y020956D02*
X044447Y020831D01*
X044572Y020956D02*
X044572Y021768D01*
X045760Y022956D01*
X050760Y022956D01*
X050658Y022318D02*
X048435Y022318D01*
X048435Y022200D02*
X050565Y022200D01*
X050530Y022081D02*
X048435Y022081D01*
X048435Y021963D02*
X050534Y021963D01*
X050583Y021844D02*
X048435Y021844D01*
X048381Y021726D02*
X050725Y021726D01*
X049635Y021175D02*
X049635Y020768D01*
X048097Y021726D02*
X047981Y021726D01*
X047981Y021844D02*
X048097Y021844D01*
X048097Y021963D02*
X047981Y021963D01*
X047981Y022081D02*
X048097Y022081D01*
X048097Y022200D02*
X047981Y022200D01*
X047981Y022318D02*
X048097Y022318D01*
X048097Y022437D02*
X047981Y022437D01*
X047981Y022555D02*
X048097Y022555D01*
X047695Y022555D02*
X045849Y022555D01*
X045731Y022437D02*
X047643Y022437D01*
X045697Y021963D02*
X045577Y021963D01*
X045577Y021844D02*
X045697Y021844D01*
X045697Y021726D02*
X045577Y021726D01*
X045577Y021370D02*
X045697Y021370D01*
X045697Y021252D02*
X045577Y021252D01*
X045577Y021133D02*
X045697Y021133D01*
X045697Y020766D02*
X045697Y020371D01*
X045577Y020371D01*
X045577Y020251D01*
X045697Y020251D01*
X045697Y019855D01*
X045954Y019855D01*
X045994Y019866D01*
X046031Y019887D01*
X046061Y019917D01*
X046082Y019954D01*
X046093Y019994D01*
X046093Y020251D01*
X045697Y020251D01*
X045697Y020371D01*
X046093Y020371D01*
X046093Y020627D01*
X046082Y020668D01*
X046061Y020704D01*
X046031Y020734D01*
X045994Y020755D01*
X045954Y020766D01*
X045697Y020766D01*
X045697Y020659D02*
X045577Y020659D01*
X045577Y020766D02*
X045321Y020766D01*
X045280Y020755D01*
X045244Y020734D01*
X045214Y020704D01*
X045193Y020668D01*
X045182Y020627D01*
X045182Y020371D01*
X045577Y020371D01*
X045577Y020766D01*
X045577Y020541D02*
X045697Y020541D01*
X045697Y020422D02*
X045577Y020422D01*
X045577Y020304D02*
X045146Y020304D01*
X045146Y020422D02*
X045182Y020422D01*
X045182Y020541D02*
X045146Y020541D01*
X045146Y020659D02*
X045191Y020659D01*
X045146Y020778D02*
X046340Y020778D01*
X046340Y020896D02*
X045146Y020896D01*
X044806Y020422D02*
X043403Y020422D01*
X043495Y020304D02*
X044806Y020304D01*
X044806Y020185D02*
X043518Y020185D01*
X043489Y020067D02*
X044760Y020067D01*
X044769Y019711D02*
X044358Y019711D01*
X044358Y019474D02*
X045114Y019474D01*
X045247Y019830D02*
X046340Y019830D01*
X046340Y019948D02*
X046079Y019948D01*
X046093Y020067D02*
X046340Y020067D01*
X046340Y020185D02*
X046093Y020185D01*
X046093Y020422D02*
X046340Y020422D01*
X046340Y020304D02*
X045697Y020304D01*
X045697Y020185D02*
X045577Y020185D01*
X045577Y020067D02*
X045697Y020067D01*
X045697Y019948D02*
X045577Y019948D01*
X045182Y020185D02*
X045146Y020185D01*
X046093Y020541D02*
X046340Y020541D01*
X046340Y020659D02*
X046084Y020659D01*
X044806Y021489D02*
X044742Y021489D01*
X044742Y021607D02*
X044806Y021607D01*
X044806Y021726D02*
X044770Y021726D01*
X047760Y024018D02*
X032072Y024018D01*
X031822Y023768D01*
X030197Y023768D01*
X029947Y024018D01*
X029947Y026756D01*
X028997Y027706D01*
X027872Y027706D01*
X028160Y027393D02*
X029010Y027393D01*
X029760Y026643D01*
X027306Y028125D02*
X027055Y028125D01*
X022890Y026821D02*
X022385Y026821D01*
X022336Y026703D02*
X022890Y026703D01*
X022890Y026584D02*
X022211Y026584D01*
X021930Y026466D02*
X022890Y026466D01*
X022890Y026347D02*
X021930Y026347D01*
X021930Y026229D02*
X022890Y026229D01*
X022890Y026110D02*
X021930Y026110D01*
X022439Y026053D02*
X022439Y025646D01*
X022722Y025646D01*
X022722Y025914D01*
X022711Y025955D01*
X022690Y025992D01*
X022660Y026021D01*
X022623Y026042D01*
X022583Y026053D01*
X022439Y026053D01*
X022434Y025992D02*
X022439Y025992D01*
X022434Y025873D02*
X022439Y025873D01*
X022434Y025755D02*
X022439Y025755D01*
X022439Y025641D02*
X022722Y025641D01*
X022722Y025372D01*
X022711Y025332D01*
X022690Y025295D01*
X022660Y025265D01*
X022623Y025244D01*
X022583Y025233D01*
X022439Y025233D01*
X022439Y025641D01*
X022439Y025636D02*
X022434Y025636D01*
X022434Y025518D02*
X022439Y025518D01*
X022434Y025399D02*
X022439Y025399D01*
X022434Y025281D02*
X022439Y025281D01*
X022675Y025281D02*
X022890Y025281D01*
X022890Y025399D02*
X022722Y025399D01*
X022722Y025518D02*
X022890Y025518D01*
X022890Y025636D02*
X022722Y025636D01*
X022722Y025755D02*
X022890Y025755D01*
X022890Y025873D02*
X022722Y025873D01*
X022689Y025992D02*
X022890Y025992D01*
X022890Y025162D02*
X022829Y025162D01*
X022690Y025162D02*
X021930Y025162D01*
X021930Y025044D02*
X022524Y025044D01*
X022485Y024925D02*
X021930Y024925D01*
X021930Y024807D02*
X022498Y024807D01*
X022530Y024688D02*
X021930Y024688D01*
X021930Y024570D02*
X022530Y024570D01*
X022626Y024451D02*
X021930Y024451D01*
X021930Y024333D02*
X022310Y024333D01*
X022241Y024214D02*
X021930Y024214D01*
X021930Y024096D02*
X022235Y024096D01*
X022287Y023977D02*
X021930Y023977D01*
X021930Y023859D02*
X022340Y023859D01*
X022340Y023740D02*
X021930Y023740D01*
X021930Y023622D02*
X022340Y023622D01*
X022340Y023503D02*
X021930Y023503D01*
X021930Y023385D02*
X022340Y023385D01*
X022396Y023266D02*
X021930Y023266D01*
X021930Y023148D02*
X022515Y023148D01*
X022633Y023029D02*
X021930Y023029D01*
X021930Y022911D02*
X022752Y022911D01*
X022870Y022792D02*
X021930Y022792D01*
X022510Y023393D02*
X023385Y022518D01*
X023510Y022893D02*
X024010Y023393D01*
X023693Y023385D02*
X022758Y023385D01*
X022680Y023503D02*
X023574Y023503D01*
X023456Y023622D02*
X022680Y023622D01*
X022680Y023740D02*
X023337Y023740D01*
X023219Y023859D02*
X022680Y023859D01*
X022732Y023977D02*
X023100Y023977D01*
X022982Y024096D02*
X022785Y024096D01*
X022778Y024214D02*
X022863Y024214D01*
X022745Y024333D02*
X022709Y024333D01*
X022510Y024143D02*
X022510Y023393D01*
X022877Y023266D02*
X023642Y023266D01*
X023405Y023148D02*
X022995Y023148D01*
X023114Y023029D02*
X023268Y023029D01*
X023235Y022911D02*
X023232Y022911D01*
X024316Y023977D02*
X025035Y023977D01*
X025154Y023859D02*
X024434Y023859D01*
X024553Y023740D02*
X025272Y023740D01*
X025391Y023622D02*
X024671Y023622D01*
X024790Y023503D02*
X025509Y023503D01*
X026010Y023503D02*
X028231Y023503D01*
X028663Y023503D02*
X028690Y023503D01*
X028690Y023622D02*
X026129Y023622D01*
X026247Y023740D02*
X028690Y023740D01*
X028690Y023859D02*
X026366Y023859D01*
X026484Y023977D02*
X028690Y023977D01*
X027972Y022792D02*
X024936Y022792D01*
X025054Y022674D02*
X029126Y022674D01*
X030623Y024333D02*
X031200Y024333D01*
X031135Y024768D02*
X049135Y024768D01*
X049447Y025081D01*
X050157Y025081D01*
X051367Y027414D02*
X051600Y027414D01*
X051508Y027532D02*
X051367Y027532D01*
X051367Y027651D02*
X051485Y027651D01*
X051514Y027769D02*
X051367Y027769D01*
X051367Y027888D02*
X051631Y027888D01*
X051888Y027888D02*
X052866Y027888D01*
X051267Y028001D02*
X051267Y028001D01*
X049027Y030495D02*
X048260Y030495D01*
X048260Y030613D02*
X049027Y030613D01*
X048260Y030969D02*
X054075Y030969D01*
X054075Y031087D02*
X048260Y031087D01*
X048260Y031206D02*
X054075Y031206D01*
X054075Y031324D02*
X048260Y031324D01*
X048260Y031443D02*
X054075Y031443D01*
X054075Y031561D02*
X048260Y031561D01*
X048260Y031680D02*
X054075Y031680D01*
X054075Y031798D02*
X048260Y031798D01*
X048260Y031917D02*
X054075Y031917D01*
X054075Y032035D02*
X048260Y032035D01*
X048260Y032154D02*
X054075Y032154D01*
X054075Y032272D02*
X048260Y032272D01*
X048260Y032391D02*
X054075Y032391D01*
X054075Y032509D02*
X048260Y032509D01*
X048260Y032628D02*
X054075Y032628D01*
X054075Y032746D02*
X048260Y032746D01*
X048260Y032865D02*
X054075Y032865D01*
X054075Y032983D02*
X048260Y032983D01*
X048260Y033102D02*
X054075Y033102D01*
X054075Y033220D02*
X048260Y033220D01*
X048260Y033339D02*
X048692Y033339D01*
X048725Y033306D02*
X048570Y033462D01*
X048485Y033665D01*
X048485Y033885D01*
X048570Y034089D01*
X048725Y034245D01*
X048929Y034329D01*
X049149Y034329D01*
X049353Y034245D01*
X049508Y034089D01*
X049593Y033885D01*
X049593Y033665D01*
X049508Y033462D01*
X049353Y033306D01*
X049149Y033221D01*
X048929Y033221D01*
X048725Y033306D01*
X048574Y033457D02*
X048260Y033457D01*
X048260Y033576D02*
X048522Y033576D01*
X048485Y033694D02*
X048260Y033694D01*
X048260Y033813D02*
X048485Y033813D01*
X048504Y033931D02*
X048260Y033931D01*
X048260Y034050D02*
X048553Y034050D01*
X048649Y034168D02*
X048260Y034168D01*
X048260Y034287D02*
X048827Y034287D01*
X049251Y034287D02*
X051902Y034287D01*
X051923Y034251D02*
X052117Y034056D01*
X052356Y033919D01*
X052622Y033847D01*
X052897Y033847D01*
X053163Y033919D01*
X053402Y034056D01*
X053596Y034251D01*
X053734Y034490D01*
X053805Y034756D01*
X053805Y035031D01*
X053734Y035297D01*
X053596Y035535D01*
X053402Y035730D01*
X053163Y035868D01*
X052897Y035939D01*
X052622Y035939D01*
X052356Y035868D01*
X052117Y035730D01*
X051923Y035535D01*
X051785Y035297D01*
X051714Y035031D01*
X051714Y034756D01*
X051785Y034490D01*
X051923Y034251D01*
X052005Y034168D02*
X049429Y034168D01*
X049525Y034050D02*
X052129Y034050D01*
X052334Y033931D02*
X049574Y033931D01*
X049593Y033813D02*
X054075Y033813D01*
X054075Y033931D02*
X053185Y033931D01*
X053390Y034050D02*
X054075Y034050D01*
X054075Y034168D02*
X053514Y034168D01*
X053617Y034287D02*
X054075Y034287D01*
X054075Y034405D02*
X053685Y034405D01*
X053743Y034524D02*
X054075Y034524D01*
X054075Y034642D02*
X053775Y034642D01*
X053805Y034761D02*
X054075Y034761D01*
X054075Y034879D02*
X053805Y034879D01*
X053805Y034998D02*
X054068Y034998D01*
X054049Y035116D02*
X053782Y035116D01*
X053751Y035235D02*
X054018Y035235D01*
X053986Y035353D02*
X053702Y035353D01*
X053633Y035472D02*
X053931Y035472D01*
X053863Y035590D02*
X053541Y035590D01*
X053423Y035709D02*
X053788Y035709D01*
X053669Y035827D02*
X053233Y035827D01*
X053339Y036064D02*
X048260Y036064D01*
X048260Y035946D02*
X053544Y035946D01*
X052984Y036183D02*
X048260Y036183D01*
X048260Y035827D02*
X052286Y035827D01*
X052096Y035709D02*
X048260Y035709D01*
X048260Y035590D02*
X051978Y035590D01*
X051886Y035472D02*
X048260Y035472D01*
X048260Y035353D02*
X051818Y035353D01*
X051768Y035235D02*
X048260Y035235D01*
X048260Y035116D02*
X051737Y035116D01*
X051714Y034998D02*
X048260Y034998D01*
X048260Y034879D02*
X051714Y034879D01*
X051714Y034761D02*
X048260Y034761D01*
X048260Y034642D02*
X051744Y034642D01*
X051776Y034524D02*
X048260Y034524D01*
X048260Y034405D02*
X051834Y034405D01*
X049593Y033694D02*
X054075Y033694D01*
X054075Y033576D02*
X049556Y033576D01*
X049504Y033457D02*
X054075Y033457D01*
X054075Y033339D02*
X049386Y033339D01*
X035623Y022555D02*
X025173Y022555D01*
X025291Y022437D02*
X035575Y022437D01*
X034455Y022318D02*
X025410Y022318D01*
X025528Y022200D02*
X034395Y022200D01*
X034397Y022081D02*
X025647Y022081D01*
X025765Y021963D02*
X034461Y021963D01*
X023840Y020422D02*
X016445Y020422D01*
X016445Y020304D02*
X023840Y020304D01*
X023367Y018526D02*
X046027Y018526D01*
X046539Y017578D02*
X049825Y017578D01*
X049825Y017460D02*
X046570Y017460D01*
X046559Y017341D02*
X049825Y017341D01*
X049825Y017223D02*
X046497Y017223D01*
X051112Y016712D02*
X051112Y016712D01*
X051163Y016749D02*
X053385Y016749D01*
X052548Y016867D02*
X051326Y016867D01*
X051469Y016986D02*
X052240Y016986D01*
X052069Y017104D02*
X051556Y017104D01*
X051642Y017223D02*
X051951Y017223D01*
X051871Y017341D02*
X051708Y017341D01*
X051691Y017291D02*
X051691Y017291D01*
X051746Y017460D02*
X051802Y017460D01*
X022198Y025281D02*
X021930Y025281D01*
X021277Y025281D02*
X019972Y025281D01*
X019946Y025344D02*
X020000Y025214D01*
X020000Y025073D01*
X019946Y024943D01*
X019846Y024843D01*
X019716Y024789D01*
X019575Y024789D01*
X019445Y024843D01*
X019346Y024943D01*
X019292Y025073D01*
X019292Y025214D01*
X019346Y025344D01*
X019445Y025443D01*
X019575Y025497D01*
X019716Y025497D01*
X019846Y025443D01*
X019946Y025344D01*
X019890Y025399D02*
X021277Y025399D01*
X021277Y025518D02*
X016445Y025518D01*
X016445Y025636D02*
X021277Y025636D01*
X021277Y025755D02*
X016445Y025755D01*
X016445Y025873D02*
X021277Y025873D01*
X021277Y025992D02*
X016445Y025992D01*
X016445Y026110D02*
X021277Y026110D01*
X021277Y026229D02*
X016445Y026229D01*
X016445Y026347D02*
X021277Y026347D01*
X021277Y026466D02*
X016445Y026466D01*
X016445Y026584D02*
X021277Y026584D01*
X021277Y026703D02*
X016445Y026703D01*
X016445Y026821D02*
X021277Y026821D01*
X021277Y026940D02*
X016445Y026940D01*
X016445Y027058D02*
X021277Y027058D01*
X021760Y027393D02*
X022510Y027393D01*
X021277Y025162D02*
X020000Y025162D01*
X019988Y025044D02*
X021277Y025044D01*
X021277Y024925D02*
X019929Y024925D01*
X019759Y024807D02*
X021277Y024807D01*
X019533Y024807D02*
X016445Y024807D01*
X016445Y024925D02*
X019363Y024925D01*
X019304Y025044D02*
X016445Y025044D01*
X016445Y025162D02*
X019292Y025162D01*
X019320Y025281D02*
X016445Y025281D01*
X016445Y025399D02*
X019401Y025399D01*
X017334Y033931D02*
X016445Y033931D01*
X016445Y034050D02*
X017129Y034050D01*
X017005Y034168D02*
X016445Y034168D01*
X016445Y034287D02*
X016902Y034287D01*
X016834Y034405D02*
X016445Y034405D01*
X016445Y034524D02*
X016776Y034524D01*
X016744Y034642D02*
X016445Y034642D01*
X016445Y034761D02*
X016714Y034761D01*
X016714Y034879D02*
X016445Y034879D01*
X016451Y034998D02*
X016714Y034998D01*
X016737Y035116D02*
X016470Y035116D01*
X016501Y035235D02*
X016768Y035235D01*
X016818Y035353D02*
X016533Y035353D01*
X016588Y035472D02*
X016886Y035472D01*
X016978Y035590D02*
X016657Y035590D01*
X016731Y035709D02*
X017096Y035709D01*
X017286Y035827D02*
X016850Y035827D01*
X016942Y016867D02*
X017548Y016867D01*
X017436Y016630D02*
X019761Y016630D01*
D24*
X025760Y021643D02*
X027510Y021643D01*
X031760Y021643D01*
X034669Y021643D01*
X037425Y021643D01*
X041666Y021643D01*
X043416Y023393D01*
X044543Y023393D01*
X043416Y025081D02*
X048947Y025081D01*
X049135Y025268D01*
X049135Y027393D01*
X049385Y027643D01*
X050010Y027643D01*
X051760Y027643D02*
X052994Y027643D01*
X043416Y025081D02*
X032335Y025081D01*
X031760Y025081D01*
X031453Y025387D01*
X031306Y025387D01*
X030635Y026059D01*
X030635Y027056D01*
X028985Y028706D01*
X025010Y028706D01*
X022760Y024893D02*
X022760Y024643D01*
X024010Y023393D01*
X025760Y021643D01*
X048039Y020184D02*
X048039Y019700D01*
X048039Y020184D02*
X048164Y020309D01*
X048497Y020309D01*
X048897Y020309D02*
X049385Y020309D01*
D25*
X050135Y018018D02*
X050135Y016893D01*
X050510Y016893D01*
X050135Y016893D02*
X048635Y016893D01*
X019936Y016893D01*
X018385Y022268D02*
X018385Y024393D01*
X050510Y016893D02*
X050570Y016895D01*
X050631Y016900D01*
X050690Y016909D01*
X050749Y016922D01*
X050808Y016938D01*
X050865Y016958D01*
X050920Y016981D01*
X050975Y017008D01*
X051027Y017037D01*
X051078Y017070D01*
X051127Y017106D01*
X051173Y017144D01*
X051217Y017186D01*
X051259Y017230D01*
X051297Y017276D01*
X051333Y017325D01*
X051366Y017376D01*
X051395Y017428D01*
X051422Y017483D01*
X051445Y017538D01*
X051465Y017595D01*
X051481Y017654D01*
X051494Y017713D01*
X051503Y017772D01*
X051508Y017833D01*
X051510Y017893D01*
X051512Y017961D01*
X051517Y018028D01*
X051526Y018095D01*
X051539Y018162D01*
X051556Y018227D01*
X051575Y018292D01*
X051599Y018356D01*
X051626Y018418D01*
X051656Y018479D01*
X051689Y018537D01*
X051725Y018594D01*
X051765Y018649D01*
X051807Y018702D01*
X051853Y018753D01*
X051900Y018800D01*
X051951Y018846D01*
X052004Y018888D01*
X052059Y018928D01*
X052116Y018964D01*
X052174Y018997D01*
X052235Y019027D01*
X052297Y019054D01*
X052361Y019078D01*
X052426Y019097D01*
X052491Y019114D01*
X052558Y019127D01*
X052625Y019136D01*
X052692Y019141D01*
X052760Y019143D01*
X052820Y019145D01*
X052881Y019150D01*
X052940Y019159D01*
X052999Y019172D01*
X053058Y019188D01*
X053115Y019208D01*
X053170Y019231D01*
X053225Y019258D01*
X053277Y019287D01*
X053328Y019320D01*
X053377Y019356D01*
X053423Y019394D01*
X053467Y019436D01*
X053509Y019480D01*
X053547Y019526D01*
X053583Y019575D01*
X053616Y019626D01*
X053645Y019678D01*
X053672Y019733D01*
X053695Y019788D01*
X053715Y019845D01*
X053731Y019904D01*
X053744Y019963D01*
X053753Y020022D01*
X053758Y020083D01*
X053760Y020143D01*
X053760Y028143D01*
X053510Y028393D01*
X051752Y028393D01*
D26*
X048010Y018893D02*
X048010Y018393D01*
X047510Y017893D01*
X022782Y017893D01*
X022782Y017871D01*
D27*
X021560Y029893D03*
M02*
