%
M48
M72
T01C0.0130
T02C0.0236
T03C0.0248
T04C0.0350
T05C0.0400
T06C0.0787
T07C0.1772
%
T01
X19936Y16893
X22782Y17871
X23271Y18268
X24160Y18793
X25860Y20693
X24960Y20956
X24635Y21268
X24310Y20956
X24010Y21268
X21760Y21393
X21760Y20893
X20657Y19943
X19422Y19943
X18385Y22268
X18385Y24393
X19660Y26493
X22760Y24893
X22510Y24143
X23510Y22893
X25760Y24893
X28060Y26768
X28472Y26456
X28860Y26143
X28472Y27081
X28160Y27393
X27872Y27706
X27560Y28018
X26872Y28331
X25760Y27768
X24635Y27831
X24360Y28293
X25010Y28706
X20760Y29893
X20510Y28893
X19010Y28893
X17525Y31018
X19960Y33593
X21060Y32093
X30635Y26059
X30660Y25293
X31135Y24768
X31447Y24456
X32335Y25081
X31453Y25387
X28447Y23331
X28135Y23018
X27510Y21643
X27085Y20956
X26760Y20706
X29957Y20831
X31760Y21643
X32260Y22293
X30160Y22293
X30260Y18793
X35063Y19893
X35456Y19593
X37760Y20193
X38572Y21268
X39135Y20518
X40360Y21193
X41160Y20493
X43243Y20193
X43243Y21143
X44110Y21143
X44976Y19893
X44110Y19593
X42960Y18693
X48010Y18893
X49760Y19643
X49635Y21175
X46510Y22143
X45260Y23493
X44543Y23393
X43416Y25081
X46510Y25456
X46510Y26518
X47960Y27493
X50010Y27643
X51760Y27643
X52994Y27643
X50157Y25081
X49572Y24706
X49572Y24081
X49050Y23893
X50157Y23643
X50157Y24393
X51660Y23593
X48635Y16893
X37960Y18693
X37425Y22143
X36244Y22143
X35850Y22393
X34669Y22143
X36637Y23518
X49460Y31493
T02
X21560Y29893
T03
X22782Y22268
X19646Y25143
X22032Y26893
X22510Y27393
X37785Y23393
X40010Y23393
X41760Y23393
X43416Y23393
X45409Y19268
X49385Y20309
X50884Y22043
X50135Y18018
X46510Y27143
T04
X43086Y17435
X46235Y17435
T05
X32260Y26393
X33260Y26393
X34260Y26393
X35260Y26393
X36260Y26393
X37260Y26393
X38260Y26393
X39260Y26393
X40260Y26393
X41260Y26393
X42260Y26393
X42260Y28393
X43260Y28393
X44260Y28393
X44260Y29393
X43260Y29393
X43260Y30393
X44260Y30393
X45260Y30393
X46260Y30393
X47260Y30393
X47260Y29393
X46260Y29393
X45260Y29393
X45260Y31393
X46260Y31393
X47260Y31393
X47260Y32393
X46260Y32393
X46260Y33393
X47260Y33393
X47260Y34393
X46260Y34393
X45260Y34393
X45260Y33393
X45260Y32393
X44260Y32393
X43260Y32393
X43260Y33393
X44260Y33393
X44260Y34393
X43260Y34393
X42260Y34393
X42260Y33393
X42260Y32393
X41260Y32393
X40260Y32393
X40260Y33393
X41260Y33393
X41260Y34393
X40260Y34393
X39260Y34393
X38260Y34393
X38260Y33393
X39260Y33393
X39260Y32393
X38260Y32393
X37260Y32393
X37260Y33393
X37260Y34393
X36260Y34393
X35260Y34393
X35260Y33393
X36260Y33393
X36260Y32393
X35260Y32393
X34260Y32393
X34260Y33393
X34260Y34393
X33260Y34393
X32260Y34393
X32260Y33393
X33260Y33393
X33260Y32393
X32260Y32393
X31260Y32393
X30260Y32393
X30260Y33393
X31260Y33393
X31260Y34393
X30260Y34393
X29260Y34393
X29260Y33393
X29260Y32393
X28260Y32393
X27260Y32393
X27260Y33393
X28260Y33393
X28260Y34393
X27260Y34393
X26260Y34393
X26260Y33393
X26260Y32393
X25260Y32393
X24260Y32393
X24260Y33393
X25260Y33393
X25260Y34393
X24260Y34393
X23260Y34393
X23260Y33393
X23260Y32393
X23260Y31393
X24260Y31393
X25260Y31393
X26260Y31393
X27260Y31393
X28260Y31393
X29260Y31393
X30260Y31393
X31260Y31393
X32260Y31393
X33260Y31393
X34260Y31393
X35260Y31393
X36260Y31393
X37260Y31393
X38260Y31393
X39260Y31393
X40260Y31393
X41260Y31393
X42260Y31393
X43260Y31393
X44260Y31393
X42260Y30393
X42260Y29393
X41260Y29393
X40260Y29393
X40260Y28393
X41260Y28393
X39260Y28393
X38260Y28393
X38260Y29393
X39260Y29393
X39260Y30393
X38260Y30393
X37260Y30393
X37260Y29393
X37260Y28393
X36260Y28393
X35260Y28393
X35260Y29393
X36260Y29393
X36260Y30393
X35260Y30393
X34260Y30393
X34260Y29393
X34260Y28393
X33260Y28393
X32260Y28393
X32260Y29393
X33260Y29393
X33260Y30393
X32260Y30393
X31260Y30393
X30260Y30393
X31260Y29393
X31260Y35393
X30260Y35393
X29260Y35393
X28260Y35393
X27260Y35393
X26260Y35393
X25260Y35393
X24260Y35393
X23260Y35393
X32260Y35393
X33260Y35393
X34260Y35393
X35260Y35393
X36260Y35393
X37260Y35393
X38260Y35393
X39260Y35393
X40260Y35393
X41260Y35393
X42260Y35393
X43260Y35393
X44260Y35393
X45260Y35393
X46260Y35393
X47260Y35393
X41260Y30393
X40260Y30393
T06
X21480Y19011
X21480Y33775
X49039Y19011
X49039Y33775
T07
X52760Y17893
X52760Y34893
X17760Y17893
X17760Y34893
M30
