G75*
%MOIN*%
%OFA0B0*%
%FSLAX24Y24*%
%IPPOS*%
%LPD*%
%AMOC8*
5,1,8,0,0,1.08239X$1,22.5*
%
%ADD10C,0.0080*%
%ADD11C,0.0060*%
%ADD12C,0.0020*%
%ADD13C,0.0050*%
%ADD14C,0.0059*%
%ADD15R,0.0160X0.0010*%
%ADD16R,0.0360X0.0010*%
%ADD17R,0.0480X0.0010*%
%ADD18R,0.0580X0.0010*%
%ADD19R,0.0660X0.0010*%
%ADD20R,0.0730X0.0010*%
%ADD21R,0.0800X0.0010*%
%ADD22R,0.0860X0.0010*%
%ADD23R,0.0910X0.0010*%
%ADD24R,0.0960X0.0010*%
%ADD25R,0.1010X0.0010*%
%ADD26R,0.1060X0.0010*%
%ADD27R,0.1100X0.0010*%
%ADD28R,0.1140X0.0010*%
%ADD29R,0.1180X0.0010*%
%ADD30R,0.1220X0.0010*%
%ADD31R,0.1260X0.0010*%
%ADD32R,0.1290X0.0010*%
%ADD33R,0.1320X0.0010*%
%ADD34R,0.1360X0.0010*%
%ADD35R,0.1380X0.0010*%
%ADD36R,0.1420X0.0010*%
%ADD37R,0.1440X0.0010*%
%ADD38R,0.1480X0.0010*%
%ADD39R,0.1500X0.0010*%
%ADD40R,0.1530X0.0010*%
%ADD41R,0.1560X0.0010*%
%ADD42R,0.1580X0.0010*%
%ADD43R,0.1610X0.0010*%
%ADD44R,0.1640X0.0010*%
%ADD45R,0.1660X0.0010*%
%ADD46R,0.1680X0.0010*%
%ADD47R,0.1700X0.0010*%
%ADD48R,0.1720X0.0010*%
%ADD49R,0.1750X0.0010*%
%ADD50R,0.1770X0.0010*%
%ADD51R,0.1790X0.0010*%
%ADD52R,0.1810X0.0010*%
%ADD53R,0.1830X0.0010*%
%ADD54R,0.1850X0.0010*%
%ADD55R,0.1870X0.0010*%
%ADD56R,0.1890X0.0010*%
%ADD57R,0.1900X0.0010*%
%ADD58R,0.0490X0.0010*%
%ADD59R,0.0930X0.0010*%
%ADD60R,0.0500X0.0010*%
%ADD61R,0.0940X0.0010*%
%ADD62R,0.0510X0.0010*%
%ADD63R,0.0950X0.0010*%
%ADD64R,0.0520X0.0010*%
%ADD65R,0.0530X0.0010*%
%ADD66R,0.0970X0.0010*%
%ADD67R,0.0980X0.0010*%
%ADD68R,0.0540X0.0010*%
%ADD69R,0.0550X0.0010*%
%ADD70R,0.0990X0.0010*%
%ADD71R,0.0560X0.0010*%
%ADD72R,0.1000X0.0010*%
%ADD73R,0.0570X0.0010*%
%ADD74R,0.1020X0.0010*%
%ADD75R,0.0690X0.0010*%
%ADD76R,0.1130X0.0010*%
%ADD77R,0.0720X0.0010*%
%ADD78R,0.1160X0.0010*%
%ADD79R,0.0740X0.0010*%
%ADD80R,0.0750X0.0010*%
%ADD81R,0.1190X0.0010*%
%ADD82R,0.0770X0.0010*%
%ADD83R,0.1200X0.0010*%
%ADD84R,0.0780X0.0010*%
%ADD85R,0.0790X0.0010*%
%ADD86R,0.1230X0.0010*%
%ADD87R,0.1240X0.0010*%
%ADD88R,0.1250X0.0010*%
%ADD89R,0.0810X0.0010*%
%ADD90R,0.0820X0.0010*%
%ADD91R,0.0830X0.0010*%
%ADD92R,0.1270X0.0010*%
%ADD93R,0.0840X0.0010*%
%ADD94R,0.1280X0.0010*%
%ADD95R,0.0850X0.0010*%
%ADD96R,0.1300X0.0010*%
%ADD97R,0.1310X0.0010*%
%ADD98R,0.0870X0.0010*%
%ADD99R,0.0880X0.0010*%
%ADD100R,0.0890X0.0010*%
%ADD101R,0.1330X0.0010*%
%ADD102R,0.1340X0.0010*%
%ADD103R,0.0900X0.0010*%
%ADD104R,0.1350X0.0010*%
%ADD105R,0.0920X0.0010*%
%ADD106R,0.1370X0.0010*%
%ADD107R,0.0110X0.0010*%
%ADD108R,0.1080X0.0010*%
%ADD109R,0.0060X0.0010*%
%ADD110R,0.1040X0.0010*%
%ADD111R,0.0030X0.0010*%
%ADD112R,0.0070X0.0010*%
%ADD113R,0.0180X0.0010*%
%ADD114R,0.0240X0.0010*%
%ADD115R,0.0280X0.0010*%
%ADD116R,0.0320X0.0010*%
%ADD117R,0.0390X0.0010*%
%ADD118R,0.0410X0.0010*%
%ADD119R,0.0760X0.0010*%
%ADD120R,0.0420X0.0010*%
%ADD121R,0.0430X0.0010*%
%ADD122R,0.0440X0.0010*%
%ADD123R,0.0450X0.0010*%
%ADD124R,0.0460X0.0010*%
%ADD125R,0.0470X0.0010*%
%ADD126R,0.0710X0.0010*%
%ADD127R,0.0700X0.0010*%
%ADD128R,0.0370X0.0010*%
%ADD129R,0.0380X0.0010*%
%ADD130R,0.0680X0.0010*%
%ADD131R,0.1690X0.0010*%
%ADD132R,0.0670X0.0010*%
%ADD133R,0.1670X0.0010*%
%ADD134R,0.1650X0.0010*%
%ADD135R,0.1170X0.0010*%
%ADD136R,0.1150X0.0010*%
%ADD137R,0.1120X0.0010*%
%ADD138R,0.1110X0.0010*%
%ADD139R,0.1090X0.0010*%
%ADD140R,0.1070X0.0010*%
%ADD141R,0.1050X0.0010*%
%ADD142R,0.0400X0.0010*%
%ADD143R,0.0050X0.0010*%
%ADD144R,0.0290X0.0010*%
%ADD145R,0.0270X0.0010*%
%ADD146R,0.0250X0.0010*%
%ADD147R,0.0230X0.0010*%
%ADD148R,0.0220X0.0010*%
%ADD149R,0.0200X0.0010*%
%ADD150R,0.0170X0.0010*%
%ADD151R,0.0150X0.0010*%
%ADD152R,0.0130X0.0010*%
%ADD153R,0.1030X0.0010*%
%ADD154R,0.0080X0.0010*%
%ADD155R,0.0020X0.0010*%
%ADD156R,0.1620X0.0010*%
%ADD157R,0.1600X0.0010*%
%ADD158R,0.1550X0.0010*%
%ADD159R,0.1520X0.0010*%
%ADD160R,0.1470X0.0010*%
%ADD161R,0.1410X0.0010*%
%ADD162R,0.0640X0.0010*%
%ADD163R,0.0310X0.0010*%
D10*
X021945Y025250D02*
X022574Y025250D01*
X022575Y025250D02*
X022591Y025255D01*
X022607Y025263D01*
X022621Y025273D01*
X022633Y025285D01*
X022643Y025300D01*
X022650Y025316D01*
X022654Y025333D01*
X022655Y025350D01*
X022653Y025368D01*
X022653Y025919D02*
X022655Y025937D01*
X022654Y025954D01*
X022650Y025971D01*
X022643Y025987D01*
X022633Y026002D01*
X022621Y026014D01*
X022607Y026024D01*
X022591Y026032D01*
X022575Y026037D01*
X022574Y026037D02*
X021945Y026037D01*
X021944Y026037D02*
X021928Y026032D01*
X021912Y026024D01*
X021898Y026014D01*
X021886Y026002D01*
X021876Y025987D01*
X021869Y025971D01*
X021865Y025954D01*
X021864Y025937D01*
X021866Y025919D01*
X021866Y025368D02*
X021864Y025350D01*
X021865Y025333D01*
X021869Y025316D01*
X021876Y025300D01*
X021886Y025285D01*
X021898Y025273D01*
X021912Y025263D01*
X021928Y025255D01*
X021944Y025250D01*
X037957Y021433D02*
X038237Y021433D01*
X038097Y021433D02*
X038097Y021854D01*
X038237Y021714D01*
X038417Y021643D02*
X038417Y021433D01*
X038627Y021433D01*
X038697Y021503D01*
X038627Y021573D01*
X038417Y021573D01*
X038417Y021643D02*
X038487Y021714D01*
X038627Y021714D01*
X038864Y021714D02*
X039004Y021714D01*
X038934Y021784D02*
X038934Y021503D01*
X038864Y021433D01*
X039184Y021573D02*
X039465Y021573D01*
X039465Y021503D02*
X039465Y021643D01*
X039395Y021714D01*
X039254Y021714D01*
X039184Y021643D01*
X039184Y021573D01*
X039254Y021433D02*
X039395Y021433D01*
X039465Y021503D01*
X039645Y021503D02*
X039645Y021643D01*
X039715Y021714D01*
X039925Y021714D01*
X039925Y021854D02*
X039925Y021433D01*
X039715Y021433D01*
X039645Y021503D01*
X040105Y021643D02*
X040385Y021643D01*
X040566Y021503D02*
X040636Y021433D01*
X040776Y021433D01*
X040846Y021503D01*
X040566Y021784D01*
X040566Y021503D01*
X040846Y021503D02*
X040846Y021784D01*
X040776Y021854D01*
X040636Y021854D01*
X040566Y021784D01*
X041026Y021433D02*
X041306Y021433D01*
X041166Y021433D02*
X041166Y021854D01*
X041306Y021714D01*
X041466Y021503D02*
X041466Y021433D01*
X041536Y021433D01*
X041536Y021503D01*
X041466Y021503D01*
X041717Y021503D02*
X041787Y021433D01*
X041927Y021433D01*
X041997Y021503D01*
X041717Y021784D01*
X041717Y021503D01*
X041997Y021503D02*
X041997Y021784D01*
X041927Y021854D01*
X041787Y021854D01*
X041717Y021784D01*
X042177Y021714D02*
X042317Y021433D01*
X042457Y021714D01*
X043098Y021784D02*
X043168Y021854D01*
X043378Y021854D01*
X043378Y021433D01*
X043168Y021433D01*
X043098Y021503D01*
X043098Y021784D01*
X043558Y021784D02*
X043628Y021854D01*
X043768Y021854D01*
X043838Y021784D01*
X043838Y021503D01*
X043558Y021784D01*
X043558Y021503D01*
X043628Y021433D01*
X043768Y021433D01*
X043838Y021503D01*
X044018Y021503D02*
X044089Y021433D01*
X044229Y021433D01*
X044299Y021503D01*
X044018Y021784D01*
X044018Y021503D01*
X044018Y021784D02*
X044089Y021854D01*
X044229Y021854D01*
X044299Y021784D01*
X044299Y021503D01*
X044479Y021643D02*
X044759Y021643D01*
X044549Y021854D01*
X044549Y021433D01*
X045079Y021433D02*
X045079Y021854D01*
X044939Y021854D02*
X045220Y021854D01*
X048372Y020709D02*
X049022Y020709D01*
X049039Y020707D01*
X049056Y020703D01*
X049072Y020696D01*
X049086Y020686D01*
X049099Y020673D01*
X049109Y020659D01*
X049116Y020643D01*
X049120Y020626D01*
X049122Y020609D01*
X048372Y020709D02*
X048355Y020707D01*
X048338Y020703D01*
X048322Y020696D01*
X048308Y020686D01*
X048295Y020673D01*
X048285Y020659D01*
X048278Y020643D01*
X048274Y020626D01*
X048272Y020609D01*
X048272Y020009D02*
X048274Y019992D01*
X048278Y019975D01*
X048285Y019959D01*
X048295Y019945D01*
X048308Y019932D01*
X048322Y019922D01*
X048338Y019915D01*
X048355Y019911D01*
X048372Y019909D01*
X049022Y019909D01*
X049039Y019911D01*
X049056Y019915D01*
X049072Y019922D01*
X049086Y019932D01*
X049099Y019945D01*
X049109Y019959D01*
X049116Y019975D01*
X049120Y019992D01*
X049122Y020009D01*
D11*
X022516Y017423D02*
X022290Y017423D01*
X022460Y017423D02*
X022460Y017650D01*
X022516Y017650D02*
X022290Y017650D01*
X022346Y017792D02*
X022290Y017848D01*
X022290Y017962D01*
X022346Y018018D01*
X022460Y018018D01*
X022516Y017962D01*
X022516Y017905D01*
X022460Y017792D01*
X022630Y017792D01*
X022630Y018018D01*
X022890Y017962D02*
X023230Y017962D01*
X023060Y017792D01*
X023060Y018018D01*
X023060Y017650D02*
X023060Y017423D01*
X023116Y017423D02*
X023230Y017537D01*
X023116Y017650D01*
X022890Y017650D01*
X022890Y017423D02*
X023116Y017423D01*
X023490Y017423D02*
X023716Y017423D01*
X023830Y017537D01*
X023716Y017650D01*
X023490Y017650D01*
X023546Y017792D02*
X023490Y017848D01*
X023490Y017962D01*
X023546Y018018D01*
X023603Y018018D01*
X023660Y017962D01*
X023660Y017905D01*
X023660Y017962D02*
X023716Y018018D01*
X023773Y018018D01*
X023830Y017962D01*
X023830Y017848D01*
X023773Y017792D01*
X023660Y017650D02*
X023660Y017423D01*
X024090Y017423D02*
X024316Y017423D01*
X024430Y017537D01*
X024316Y017650D01*
X024090Y017650D01*
X024090Y017792D02*
X024316Y018018D01*
X024373Y018018D01*
X024430Y017962D01*
X024430Y017848D01*
X024373Y017792D01*
X024260Y017650D02*
X024260Y017423D01*
X024090Y017792D02*
X024090Y018018D01*
X024690Y018018D02*
X024690Y017792D01*
X024690Y017905D02*
X025030Y017905D01*
X024916Y017792D01*
X024916Y017650D02*
X024690Y017650D01*
X024860Y017650D02*
X024860Y017423D01*
X024916Y017423D02*
X025030Y017537D01*
X024916Y017650D01*
X024916Y017423D02*
X024690Y017423D01*
X025290Y017423D02*
X025516Y017423D01*
X025630Y017537D01*
X025516Y017650D01*
X025290Y017650D01*
X025346Y017792D02*
X025573Y018018D01*
X025346Y018018D01*
X025290Y017962D01*
X025290Y017848D01*
X025346Y017792D01*
X025573Y017792D01*
X025630Y017848D01*
X025630Y017962D01*
X025573Y018018D01*
X025890Y018018D02*
X025890Y017792D01*
X025890Y017905D02*
X026230Y017905D01*
X026116Y017792D01*
X026173Y017650D02*
X026230Y017593D01*
X026230Y017423D01*
X025890Y017423D01*
X025890Y017593D01*
X025946Y017650D01*
X026173Y017650D01*
X026490Y017593D02*
X026546Y017650D01*
X026773Y017650D01*
X026830Y017593D01*
X026830Y017423D01*
X026490Y017423D01*
X026490Y017593D01*
X026490Y017792D02*
X026490Y018018D01*
X026490Y017905D02*
X026830Y017905D01*
X026716Y017792D01*
X026660Y018160D02*
X026660Y018330D01*
X026603Y018387D01*
X026546Y018387D01*
X026490Y018330D01*
X026490Y018217D01*
X026546Y018160D01*
X026660Y018160D01*
X026773Y018273D01*
X026830Y018387D01*
X027090Y018330D02*
X027090Y018217D01*
X027146Y018160D01*
X027260Y018160D02*
X027316Y018273D01*
X027316Y018330D01*
X027260Y018387D01*
X027146Y018387D01*
X027090Y018330D01*
X027260Y018160D02*
X027430Y018160D01*
X027430Y018387D01*
X027690Y018330D02*
X028030Y018330D01*
X027860Y018160D01*
X027860Y018387D01*
X027690Y018018D02*
X027690Y017792D01*
X027690Y017905D02*
X028030Y017905D01*
X027916Y017792D01*
X027973Y017650D02*
X028030Y017593D01*
X028030Y017423D01*
X027690Y017423D01*
X027690Y017593D01*
X027746Y017650D01*
X027973Y017650D01*
X028290Y017593D02*
X028346Y017650D01*
X028573Y017650D01*
X028630Y017593D01*
X028630Y017423D01*
X028290Y017423D01*
X028290Y017593D01*
X028290Y017792D02*
X028290Y018018D01*
X028290Y017905D02*
X028630Y017905D01*
X028516Y017792D01*
X028573Y018160D02*
X028630Y018217D01*
X028630Y018330D01*
X028573Y018387D01*
X028516Y018387D01*
X028460Y018330D01*
X028403Y018387D01*
X028346Y018387D01*
X028290Y018330D01*
X028290Y018217D01*
X028346Y018160D01*
X028460Y018273D02*
X028460Y018330D01*
X028890Y018387D02*
X028890Y018160D01*
X029116Y018387D01*
X029173Y018387D01*
X029230Y018330D01*
X029230Y018217D01*
X029173Y018160D01*
X029230Y017905D02*
X028890Y017905D01*
X028890Y017792D02*
X028890Y018018D01*
X029116Y017792D02*
X029230Y017905D01*
X029173Y017650D02*
X028946Y017650D01*
X028890Y017593D01*
X028890Y017423D01*
X029230Y017423D01*
X029230Y017593D01*
X029173Y017650D01*
X029690Y017593D02*
X029690Y017423D01*
X030030Y017423D01*
X030030Y017593D01*
X029973Y017650D01*
X029746Y017650D01*
X029690Y017593D01*
X029690Y017792D02*
X029690Y018018D01*
X029690Y017905D02*
X030030Y017905D01*
X029916Y017792D01*
X029916Y018160D02*
X030030Y018273D01*
X029690Y018273D01*
X029690Y018160D02*
X029690Y018387D01*
X029690Y018897D02*
X029690Y019067D01*
X029746Y019123D01*
X029973Y019123D01*
X030030Y019067D01*
X030030Y018897D01*
X029690Y018897D01*
X029690Y019265D02*
X029916Y019265D01*
X030030Y019378D01*
X029916Y019492D01*
X029690Y019492D01*
X029860Y019492D02*
X029860Y019265D01*
X030030Y019633D02*
X030030Y019860D01*
X030030Y019747D02*
X029690Y019747D01*
X029690Y020002D02*
X029916Y020002D01*
X030030Y020115D01*
X029916Y020228D01*
X029690Y020228D01*
X029860Y020228D02*
X029860Y020002D01*
X029860Y020370D02*
X029860Y020597D01*
X030030Y020540D02*
X029860Y020370D01*
X029690Y020540D02*
X030030Y020540D01*
X030233Y020597D02*
X030233Y020370D01*
X030290Y020115D02*
X030630Y020115D01*
X030630Y020002D02*
X030630Y020228D01*
X030833Y020370D02*
X030833Y020597D01*
X030946Y020738D02*
X030890Y020795D01*
X030890Y020908D01*
X030946Y020965D01*
X031003Y020965D01*
X031060Y020908D01*
X031060Y020795D01*
X031116Y020738D01*
X031173Y020738D01*
X031230Y020795D01*
X031230Y020908D01*
X031173Y020965D01*
X031230Y021106D02*
X030890Y021106D01*
X030890Y021333D01*
X030890Y021475D02*
X031230Y021475D01*
X030890Y021702D01*
X031230Y021702D01*
X031173Y021843D02*
X031116Y021843D01*
X031060Y021900D01*
X031060Y022013D01*
X031003Y022070D01*
X030946Y022070D01*
X030890Y022013D01*
X030890Y021900D01*
X030946Y021843D01*
X031173Y021843D02*
X031230Y021900D01*
X031230Y022013D01*
X031173Y022070D01*
X031230Y022211D02*
X030890Y022211D01*
X030890Y022438D01*
X031060Y022325D02*
X031060Y022211D01*
X031230Y022211D02*
X031230Y022438D01*
X031230Y021333D02*
X031230Y021106D01*
X031060Y021106D02*
X031060Y021220D01*
X030630Y021333D02*
X030290Y021333D01*
X030630Y021106D01*
X030290Y021106D01*
X030290Y020965D02*
X030290Y020738D01*
X030630Y020738D01*
X030630Y020965D01*
X030460Y020852D02*
X030460Y020738D01*
X030890Y020115D02*
X031230Y020115D01*
X031230Y020002D02*
X031230Y020228D01*
X031433Y020228D02*
X031433Y020002D01*
X031546Y019860D02*
X031773Y019860D01*
X031830Y019803D01*
X031830Y019633D01*
X031490Y019633D01*
X031490Y019803D01*
X031546Y019860D01*
X031230Y019747D02*
X031116Y019633D01*
X030890Y019633D01*
X030946Y019492D02*
X030890Y019435D01*
X030890Y019265D01*
X031230Y019265D01*
X031230Y019435D01*
X031173Y019492D01*
X031116Y019492D01*
X031060Y019435D01*
X031060Y019265D01*
X031003Y019123D02*
X031230Y019123D01*
X031230Y018897D02*
X031003Y018897D01*
X030890Y019010D01*
X031003Y019123D01*
X031060Y019435D02*
X031003Y019492D01*
X030946Y019492D01*
X031060Y019633D02*
X031060Y019860D01*
X031116Y019860D02*
X030890Y019860D01*
X031116Y019860D02*
X031230Y019747D01*
X031490Y019435D02*
X031546Y019492D01*
X031490Y019435D02*
X031490Y019322D01*
X031546Y019265D01*
X031773Y019265D01*
X031830Y019322D01*
X031830Y019435D01*
X031773Y019492D01*
X032090Y019492D02*
X032316Y019492D01*
X032430Y019378D01*
X032316Y019265D01*
X032090Y019265D01*
X032146Y019123D02*
X032373Y019123D01*
X032430Y019067D01*
X032430Y018897D01*
X032090Y018897D01*
X032090Y019067D01*
X032146Y019123D01*
X032260Y019265D02*
X032260Y019492D01*
X032430Y019633D02*
X032430Y019860D01*
X032430Y019747D02*
X032090Y019747D01*
X032090Y020002D02*
X032316Y020002D01*
X032430Y020115D01*
X032316Y020228D01*
X032090Y020228D01*
X032146Y020370D02*
X032090Y020427D01*
X032090Y020540D01*
X032146Y020597D01*
X032203Y020597D01*
X032260Y020540D01*
X032260Y020483D01*
X032260Y020540D02*
X032316Y020597D01*
X032373Y020597D01*
X032430Y020540D01*
X032430Y020427D01*
X032373Y020370D01*
X032260Y020228D02*
X032260Y020002D01*
X032633Y020002D02*
X032633Y020228D01*
X032690Y020370D02*
X032690Y020540D01*
X032746Y020597D01*
X032803Y020597D01*
X032860Y020540D01*
X032860Y020370D01*
X033030Y020370D02*
X033030Y020540D01*
X032973Y020597D01*
X032916Y020597D01*
X032860Y020540D01*
X032690Y020370D02*
X033030Y020370D01*
X033233Y020370D02*
X033233Y020597D01*
X033346Y020738D02*
X033290Y020795D01*
X033290Y020908D01*
X033346Y020965D01*
X033403Y020965D01*
X033460Y020908D01*
X033460Y020795D01*
X033516Y020738D01*
X033573Y020738D01*
X033630Y020795D01*
X033630Y020908D01*
X033573Y020965D01*
X033630Y021106D02*
X033630Y021333D01*
X033630Y021220D02*
X033290Y021220D01*
X033290Y021475D02*
X033516Y021475D01*
X033630Y021588D01*
X033516Y021702D01*
X033290Y021702D01*
X033460Y021702D02*
X033460Y021475D01*
X033630Y021843D02*
X033630Y022070D01*
X033630Y021957D02*
X033290Y021957D01*
X032690Y020965D02*
X032690Y020738D01*
X033030Y020738D01*
X033290Y020115D02*
X033630Y020115D01*
X033630Y020002D02*
X033630Y020228D01*
X033833Y020228D02*
X033833Y020002D01*
X033946Y019860D02*
X033890Y019803D01*
X033890Y019633D01*
X034230Y019633D01*
X034230Y019803D01*
X034173Y019860D01*
X033946Y019860D01*
X033630Y019860D02*
X033630Y019633D01*
X033630Y019747D02*
X033290Y019747D01*
X033290Y019492D02*
X033516Y019492D01*
X033630Y019378D01*
X033516Y019265D01*
X033290Y019265D01*
X033346Y019123D02*
X033290Y019067D01*
X033290Y018897D01*
X033630Y018897D01*
X033630Y019067D01*
X033573Y019123D01*
X033516Y019123D01*
X033460Y019067D01*
X033460Y018897D01*
X033460Y019067D02*
X033403Y019123D01*
X033346Y019123D01*
X033460Y019265D02*
X033460Y019492D01*
X033890Y019435D02*
X033946Y019492D01*
X033890Y019435D02*
X033890Y019322D01*
X033946Y019265D01*
X034173Y019265D01*
X034230Y019322D01*
X034230Y019435D01*
X034173Y019492D01*
X034490Y019435D02*
X034546Y019492D01*
X034490Y019435D02*
X034490Y019322D01*
X034546Y019265D01*
X034773Y019265D01*
X034830Y019322D01*
X034830Y019435D01*
X034773Y019492D01*
X034830Y019633D02*
X034490Y019633D01*
X034490Y019860D01*
X035090Y019860D02*
X035316Y019860D01*
X035430Y019747D01*
X035316Y019633D01*
X035090Y019633D01*
X035146Y019492D02*
X035090Y019435D01*
X035090Y019265D01*
X035430Y019265D01*
X035430Y019435D01*
X035373Y019492D01*
X035146Y019492D01*
X035260Y019633D02*
X035260Y019860D01*
X035633Y019860D02*
X035633Y019633D01*
X035690Y019492D02*
X036030Y019492D01*
X036030Y019265D02*
X035690Y019265D01*
X035803Y019378D01*
X035690Y019492D01*
X035746Y019123D02*
X035690Y019067D01*
X035690Y018953D01*
X035746Y018897D01*
X035860Y018953D02*
X035860Y019067D01*
X035803Y019123D01*
X035746Y019123D01*
X035860Y018953D02*
X035916Y018897D01*
X035973Y018897D01*
X036030Y018953D01*
X036030Y019067D01*
X035973Y019123D01*
X036290Y019067D02*
X036290Y018953D01*
X036346Y018897D01*
X036460Y018953D02*
X036460Y019067D01*
X036403Y019123D01*
X036346Y019123D01*
X036290Y019067D01*
X036290Y019265D02*
X036403Y019378D01*
X036290Y019492D01*
X036630Y019492D01*
X036630Y019265D02*
X036290Y019265D01*
X036573Y019123D02*
X036630Y019067D01*
X036630Y018953D01*
X036573Y018897D01*
X036516Y018897D01*
X036460Y018953D01*
X036890Y018949D02*
X036890Y018835D01*
X036890Y018892D02*
X037116Y018892D01*
X037116Y018835D01*
X037230Y018892D02*
X037287Y018892D01*
X037116Y019081D02*
X037116Y019251D01*
X037060Y019308D01*
X036890Y019308D01*
X036946Y019449D02*
X036890Y019506D01*
X036890Y019619D01*
X036946Y019676D01*
X037060Y019676D01*
X037116Y019619D01*
X037116Y019506D01*
X037060Y019449D01*
X036946Y019449D01*
X036890Y019081D02*
X037116Y019081D01*
X037116Y018694D02*
X036890Y018694D01*
X036890Y018524D01*
X036946Y018467D01*
X037116Y018467D01*
X037116Y018325D02*
X037116Y018155D01*
X037060Y018099D01*
X036946Y018099D01*
X036890Y018155D01*
X036890Y018325D01*
X037230Y018325D01*
X037116Y017962D02*
X037116Y017905D01*
X037003Y017792D01*
X036890Y017792D02*
X037116Y017792D01*
X037116Y017650D02*
X036890Y017650D01*
X037060Y017650D02*
X037060Y017423D01*
X037116Y017423D02*
X037230Y017537D01*
X037116Y017650D01*
X037116Y017423D02*
X036890Y017423D01*
X036630Y017423D02*
X036630Y017593D01*
X036573Y017650D01*
X036346Y017650D01*
X036290Y017593D01*
X036290Y017423D01*
X036630Y017423D01*
X036573Y017792D02*
X036346Y017792D01*
X036573Y018018D01*
X036346Y018018D01*
X036290Y017962D01*
X036290Y017848D01*
X036346Y017792D01*
X036573Y017792D02*
X036630Y017848D01*
X036630Y017962D01*
X036573Y018018D01*
X036030Y017905D02*
X035916Y017792D01*
X035973Y017650D02*
X036030Y017593D01*
X036030Y017423D01*
X035690Y017423D01*
X035690Y017593D01*
X035746Y017650D01*
X035973Y017650D01*
X036030Y017905D02*
X035690Y017905D01*
X035690Y017792D02*
X035690Y018018D01*
X035430Y017962D02*
X035430Y017848D01*
X035373Y017792D01*
X035373Y017650D02*
X035430Y017593D01*
X035430Y017423D01*
X035090Y017423D01*
X035090Y017593D01*
X035146Y017650D01*
X035373Y017650D01*
X035090Y017792D02*
X035090Y018018D01*
X035090Y017792D02*
X035316Y018018D01*
X035373Y018018D01*
X035430Y017962D01*
X034830Y017962D02*
X034830Y017848D01*
X034773Y017792D01*
X034773Y017650D02*
X034830Y017593D01*
X034830Y017423D01*
X034490Y017423D01*
X034490Y017593D01*
X034546Y017650D01*
X034773Y017650D01*
X034546Y017792D02*
X034490Y017848D01*
X034490Y017962D01*
X034546Y018018D01*
X034603Y018018D01*
X034660Y017962D01*
X034660Y017905D01*
X034660Y017962D02*
X034716Y018018D01*
X034773Y018018D01*
X034830Y017962D01*
X034230Y017962D02*
X034060Y017792D01*
X034060Y018018D01*
X033890Y017962D02*
X034230Y017962D01*
X034173Y017650D02*
X034230Y017593D01*
X034230Y017423D01*
X033890Y017423D01*
X033890Y017593D01*
X033946Y017650D01*
X034173Y017650D01*
X033630Y017593D02*
X033630Y017423D01*
X033290Y017423D01*
X033290Y017593D01*
X033346Y017650D01*
X033573Y017650D01*
X033630Y017593D01*
X033630Y017792D02*
X033460Y017792D01*
X033516Y017905D01*
X033516Y017962D01*
X033460Y018018D01*
X033346Y018018D01*
X033290Y017962D01*
X033290Y017848D01*
X033346Y017792D01*
X033630Y017792D02*
X033630Y018018D01*
X033030Y018018D02*
X032973Y017905D01*
X032860Y017792D01*
X032860Y017962D01*
X032803Y018018D01*
X032746Y018018D01*
X032690Y017962D01*
X032690Y017848D01*
X032746Y017792D01*
X032860Y017792D01*
X032973Y017650D02*
X033030Y017593D01*
X033030Y017423D01*
X032690Y017423D01*
X032690Y017593D01*
X032746Y017650D01*
X032973Y017650D01*
X032430Y017593D02*
X032430Y017423D01*
X032090Y017423D01*
X032090Y017593D01*
X032146Y017650D01*
X032373Y017650D01*
X032430Y017593D01*
X032430Y017792D02*
X032430Y018018D01*
X032373Y018018D01*
X032146Y017792D01*
X032090Y017792D01*
X031830Y017848D02*
X031830Y017962D01*
X031773Y018018D01*
X031716Y018018D01*
X031660Y017962D01*
X031660Y017848D01*
X031716Y017792D01*
X031773Y017792D01*
X031830Y017848D01*
X031660Y017848D02*
X031603Y017792D01*
X031546Y017792D01*
X031490Y017848D01*
X031490Y017962D01*
X031546Y018018D01*
X031603Y018018D01*
X031660Y017962D01*
X031773Y017650D02*
X031830Y017593D01*
X031830Y017423D01*
X031490Y017423D01*
X031490Y017593D01*
X031546Y017650D01*
X031773Y017650D01*
X031230Y017593D02*
X031230Y017423D01*
X030890Y017423D01*
X030890Y017593D01*
X030946Y017650D01*
X031173Y017650D01*
X031230Y017593D01*
X031173Y017792D02*
X031116Y017792D01*
X031060Y017848D01*
X031060Y018018D01*
X031173Y018018D02*
X031230Y017962D01*
X031230Y017848D01*
X031173Y017792D01*
X031173Y018018D02*
X030946Y018018D01*
X030890Y017962D01*
X030890Y017848D01*
X030946Y017792D01*
X030630Y017905D02*
X030290Y017905D01*
X030290Y017792D02*
X030290Y018018D01*
X030346Y018160D02*
X030573Y018387D01*
X030346Y018387D01*
X030290Y018330D01*
X030290Y018217D01*
X030346Y018160D01*
X030573Y018160D01*
X030630Y018217D01*
X030630Y018330D01*
X030573Y018387D01*
X030630Y017905D02*
X030516Y017792D01*
X030573Y017650D02*
X030630Y017593D01*
X030630Y017423D01*
X030290Y017423D01*
X030290Y017593D01*
X030346Y017650D01*
X030573Y017650D01*
X030630Y018897D02*
X030403Y018897D01*
X030290Y019010D01*
X030403Y019123D01*
X030630Y019123D01*
X030630Y019265D02*
X030630Y019435D01*
X030573Y019492D01*
X030516Y019492D01*
X030460Y019435D01*
X030460Y019265D01*
X030290Y019265D02*
X030630Y019265D01*
X030460Y019435D02*
X030403Y019492D01*
X030346Y019492D01*
X030290Y019435D01*
X030290Y019265D01*
X030290Y019633D02*
X030516Y019633D01*
X030630Y019747D01*
X030516Y019860D01*
X030290Y019860D01*
X030460Y019860D02*
X030460Y019633D01*
X031490Y019123D02*
X031490Y018897D01*
X031830Y018897D01*
X032690Y018897D02*
X032690Y019123D01*
X032746Y019265D02*
X032690Y019322D01*
X032690Y019435D01*
X032746Y019492D01*
X032690Y019633D02*
X032690Y019803D01*
X032746Y019860D01*
X032973Y019860D01*
X033030Y019803D01*
X033030Y019633D01*
X032690Y019633D01*
X032973Y019492D02*
X033030Y019435D01*
X033030Y019322D01*
X032973Y019265D01*
X032746Y019265D01*
X032690Y018897D02*
X033030Y018897D01*
X033890Y018897D02*
X033890Y019123D01*
X033890Y018897D02*
X034230Y018897D01*
X034490Y018953D02*
X034546Y018897D01*
X034490Y018953D02*
X034490Y019067D01*
X034546Y019123D01*
X034603Y019123D01*
X034660Y019067D01*
X034660Y018953D01*
X034716Y018897D01*
X034773Y018897D01*
X034830Y018953D01*
X034830Y019067D01*
X034773Y019123D01*
X035090Y019067D02*
X035090Y018953D01*
X035146Y018897D01*
X035260Y018953D02*
X035260Y019067D01*
X035203Y019123D01*
X035146Y019123D01*
X035090Y019067D01*
X035260Y018953D02*
X035316Y018897D01*
X035373Y018897D01*
X035430Y018953D01*
X035430Y019067D01*
X035373Y019123D01*
X036233Y019633D02*
X036233Y019860D01*
X036290Y020002D02*
X036290Y020172D01*
X036346Y020228D01*
X036403Y020228D01*
X036460Y020172D01*
X036460Y020002D01*
X036460Y020172D02*
X036516Y020228D01*
X036573Y020228D01*
X036630Y020172D01*
X036630Y020002D01*
X036290Y020002D01*
X036030Y020115D02*
X035916Y020002D01*
X035690Y020002D01*
X035860Y020002D02*
X035860Y020228D01*
X035916Y020228D02*
X035690Y020228D01*
X035916Y020228D02*
X036030Y020115D01*
X036776Y020186D02*
X037116Y020186D01*
X037116Y020356D01*
X037060Y020413D01*
X036946Y020413D01*
X036890Y020356D01*
X036890Y020186D01*
X036890Y020554D02*
X036890Y020667D01*
X036890Y020611D02*
X037116Y020611D01*
X037116Y020554D01*
X037230Y020611D02*
X037287Y020611D01*
X037116Y020800D02*
X037116Y020970D01*
X037060Y021026D01*
X036890Y021026D01*
X036890Y020800D02*
X037116Y020800D01*
X037116Y021536D02*
X036890Y021536D01*
X036890Y021650D02*
X037060Y021650D01*
X037116Y021706D01*
X037060Y021763D01*
X036890Y021763D01*
X036946Y021904D02*
X037003Y021961D01*
X037003Y022131D01*
X037060Y022131D02*
X036890Y022131D01*
X036890Y021961D01*
X036946Y021904D01*
X037116Y021961D02*
X037116Y022075D01*
X037060Y022131D01*
X037116Y022273D02*
X036776Y022273D01*
X036890Y022273D02*
X036890Y022443D01*
X036946Y022500D01*
X037060Y022500D01*
X037116Y022443D01*
X037116Y022273D01*
X037060Y021650D02*
X037116Y021593D01*
X037116Y021536D01*
X034230Y020908D02*
X034173Y020965D01*
X033946Y020738D01*
X033890Y020795D01*
X033890Y020908D01*
X033946Y020965D01*
X034173Y020965D01*
X034230Y020908D02*
X034230Y020795D01*
X034173Y020738D01*
X033946Y020738D01*
X033890Y020597D02*
X034116Y020597D01*
X034230Y020483D01*
X034116Y020370D01*
X033890Y020370D01*
X034060Y020370D02*
X034060Y020597D01*
X031830Y020540D02*
X031830Y020427D01*
X031773Y020370D01*
X031546Y020370D01*
X031490Y020427D01*
X031490Y020540D01*
X031546Y020597D01*
X031546Y020738D02*
X031490Y020795D01*
X031490Y020908D01*
X031546Y020965D01*
X031603Y020965D01*
X031660Y020908D01*
X031660Y020795D01*
X031716Y020738D01*
X031773Y020738D01*
X031830Y020795D01*
X031830Y020908D01*
X031773Y020965D01*
X031773Y020597D02*
X031830Y020540D01*
X029230Y020540D02*
X029230Y020370D01*
X028890Y020370D01*
X029003Y020370D02*
X029003Y020540D01*
X029060Y020597D01*
X029173Y020597D01*
X029230Y020540D01*
X029173Y020738D02*
X029116Y020738D01*
X029060Y020795D01*
X029060Y020908D01*
X029003Y020965D01*
X028946Y020965D01*
X028890Y020908D01*
X028890Y020795D01*
X028946Y020738D01*
X028890Y020597D02*
X029003Y020483D01*
X028833Y020228D02*
X028833Y020002D01*
X028946Y019860D02*
X029173Y019860D01*
X029230Y019803D01*
X029230Y019633D01*
X028890Y019633D01*
X028890Y019803D01*
X028946Y019860D01*
X028946Y019492D02*
X028890Y019435D01*
X028890Y019322D01*
X028946Y019265D01*
X029173Y019265D01*
X029230Y019322D01*
X029230Y019435D01*
X029173Y019492D01*
X028890Y019123D02*
X028890Y018897D01*
X029230Y018897D01*
X028630Y018953D02*
X028573Y018897D01*
X028516Y018897D01*
X028460Y018953D01*
X028460Y019067D01*
X028403Y019123D01*
X028346Y019123D01*
X028290Y019067D01*
X028290Y018953D01*
X028346Y018897D01*
X028630Y018953D02*
X028630Y019067D01*
X028573Y019123D01*
X028630Y019265D02*
X028290Y019265D01*
X028403Y019378D01*
X028290Y019492D01*
X028630Y019492D01*
X028233Y019633D02*
X028233Y019860D01*
X028346Y020002D02*
X028290Y020058D01*
X028290Y020172D01*
X028346Y020228D01*
X028346Y020002D02*
X028573Y020002D01*
X028630Y020058D01*
X028630Y020172D01*
X028573Y020228D01*
X028030Y020049D02*
X027973Y020106D01*
X027746Y020106D01*
X027690Y020049D01*
X027690Y019935D01*
X027746Y019879D01*
X027973Y019879D01*
X028030Y019935D01*
X028030Y020049D01*
X027973Y019737D02*
X028030Y019681D01*
X028030Y019567D01*
X027973Y019510D01*
X027916Y019510D01*
X027860Y019567D01*
X027860Y019681D01*
X027803Y019737D01*
X027746Y019737D01*
X027690Y019681D01*
X027690Y019567D01*
X027746Y019510D01*
X027690Y019378D02*
X027690Y019265D01*
X027690Y019322D02*
X028030Y019322D01*
X028030Y019378D02*
X028030Y019265D01*
X028030Y019123D02*
X027690Y019123D01*
X027690Y018897D02*
X028030Y018897D01*
X027916Y019010D01*
X028030Y019123D01*
X027430Y019067D02*
X027430Y018953D01*
X027373Y018897D01*
X027316Y018897D01*
X027260Y018953D01*
X027260Y019067D01*
X027203Y019123D01*
X027146Y019123D01*
X027090Y019067D01*
X027090Y018953D01*
X027146Y018897D01*
X026830Y018897D02*
X026716Y019010D01*
X026830Y019123D01*
X026490Y019123D01*
X026546Y019265D02*
X026490Y019322D01*
X026490Y019435D01*
X026546Y019492D01*
X026773Y019492D01*
X026830Y019435D01*
X026830Y019322D01*
X026773Y019265D01*
X026546Y019265D01*
X026230Y019265D02*
X026230Y019435D01*
X026173Y019492D01*
X025946Y019492D01*
X025890Y019435D01*
X025890Y019265D01*
X026230Y019265D01*
X026173Y019123D02*
X026230Y019067D01*
X026230Y018953D01*
X026173Y018897D01*
X026116Y018897D01*
X026060Y018953D01*
X026060Y019067D01*
X026003Y019123D01*
X025946Y019123D01*
X025890Y019067D01*
X025890Y018953D01*
X025946Y018897D01*
X025630Y018897D02*
X025630Y019067D01*
X025573Y019123D01*
X025346Y019123D01*
X025290Y019067D01*
X025290Y018897D01*
X025630Y018897D01*
X025516Y019265D02*
X025630Y019378D01*
X025516Y019492D01*
X025290Y019492D01*
X025460Y019492D02*
X025460Y019265D01*
X025516Y019265D02*
X025290Y019265D01*
X025030Y019378D02*
X024916Y019492D01*
X024690Y019492D01*
X024860Y019492D02*
X024860Y019265D01*
X024916Y019265D02*
X025030Y019378D01*
X024916Y019265D02*
X024690Y019265D01*
X024746Y019123D02*
X024973Y019123D01*
X025030Y019067D01*
X025030Y018897D01*
X024690Y018897D01*
X024690Y019067D01*
X024746Y019123D01*
X024430Y019067D02*
X024430Y018953D01*
X024373Y018897D01*
X024316Y018897D01*
X024260Y018953D01*
X024260Y019067D01*
X024203Y019123D01*
X024146Y019123D01*
X024090Y019067D01*
X024090Y018953D01*
X024146Y018897D01*
X024373Y019123D02*
X024430Y019067D01*
X024430Y019265D02*
X024090Y019265D01*
X024203Y019378D01*
X024090Y019492D01*
X024430Y019492D01*
X024690Y019747D02*
X025030Y019747D01*
X025030Y019860D02*
X025030Y019633D01*
X025290Y019747D02*
X025630Y019747D01*
X025630Y019860D02*
X025630Y019633D01*
X025833Y019633D02*
X025833Y019860D01*
X025946Y020002D02*
X025890Y020058D01*
X025890Y020172D01*
X025946Y020228D01*
X025946Y020370D02*
X025890Y020427D01*
X025890Y020540D01*
X025946Y020597D01*
X026003Y020597D01*
X026060Y020540D01*
X026060Y020427D01*
X026116Y020370D01*
X026173Y020370D01*
X026230Y020427D01*
X026230Y020540D01*
X026173Y020597D01*
X026173Y020228D02*
X026230Y020172D01*
X026230Y020058D01*
X026173Y020002D01*
X025946Y020002D01*
X025630Y020115D02*
X025516Y020228D01*
X025290Y020228D01*
X025290Y020370D02*
X025516Y020597D01*
X025573Y020597D01*
X025630Y020540D01*
X025630Y020427D01*
X025573Y020370D01*
X025460Y020228D02*
X025460Y020002D01*
X025516Y020002D02*
X025630Y020115D01*
X025516Y020002D02*
X025290Y020002D01*
X025030Y020115D02*
X024916Y020228D01*
X024690Y020228D01*
X024690Y020370D02*
X024690Y020597D01*
X024690Y020483D02*
X025030Y020483D01*
X024916Y020370D01*
X024860Y020228D02*
X024860Y020002D01*
X024916Y020002D02*
X025030Y020115D01*
X024916Y020002D02*
X024690Y020002D01*
X024430Y020002D02*
X024430Y020172D01*
X024373Y020228D01*
X024146Y020228D01*
X024090Y020172D01*
X024090Y020002D01*
X024430Y020002D01*
X024033Y019860D02*
X024033Y019633D01*
X023830Y019492D02*
X023490Y019492D01*
X023603Y019378D01*
X023490Y019265D01*
X023830Y019265D01*
X023773Y019123D02*
X023830Y019067D01*
X023830Y018953D01*
X023773Y018897D01*
X023716Y018897D01*
X023660Y018953D01*
X023660Y019067D01*
X023603Y019123D01*
X023546Y019123D01*
X023490Y019067D01*
X023490Y018953D01*
X023546Y018897D01*
X023230Y018953D02*
X023173Y018897D01*
X023116Y018897D01*
X023060Y018953D01*
X023060Y019067D01*
X023003Y019123D01*
X022946Y019123D01*
X022890Y019067D01*
X022890Y018953D01*
X022946Y018897D01*
X023230Y018953D02*
X023230Y019067D01*
X023173Y019123D01*
X023230Y019265D02*
X022890Y019265D01*
X023003Y019378D01*
X022890Y019492D01*
X023230Y019492D01*
X023433Y019633D02*
X023433Y019860D01*
X023490Y020002D02*
X023490Y020228D01*
X023660Y020115D02*
X023660Y020002D01*
X023830Y020002D02*
X023490Y020002D01*
X023230Y020002D02*
X023230Y020172D01*
X023173Y020228D01*
X023060Y020228D01*
X023003Y020172D01*
X023003Y020002D01*
X022890Y020002D02*
X023230Y020002D01*
X023230Y020370D02*
X022890Y020370D01*
X023003Y020483D01*
X022890Y020597D01*
X023230Y020597D01*
X023230Y020738D02*
X023230Y020908D01*
X023173Y020965D01*
X023060Y020965D01*
X023003Y020908D01*
X023003Y020738D01*
X022890Y020738D02*
X023230Y020738D01*
X023003Y020852D02*
X022890Y020965D01*
X022630Y020908D02*
X022573Y020965D01*
X022346Y020965D01*
X022290Y020908D01*
X022290Y020795D01*
X022346Y020738D01*
X022573Y020738D01*
X022630Y020795D01*
X022630Y020908D01*
X022630Y021106D02*
X022630Y021333D01*
X022630Y021475D02*
X022630Y021702D01*
X022460Y021588D02*
X022460Y021475D01*
X022290Y021475D02*
X022630Y021475D01*
X022460Y021220D02*
X022460Y021106D01*
X022290Y021106D02*
X022630Y021106D01*
X022630Y020597D02*
X022290Y020597D01*
X022630Y020370D01*
X022290Y020370D01*
X022346Y020228D02*
X022573Y020228D01*
X022630Y020172D01*
X022630Y020058D01*
X022573Y020002D01*
X022346Y020002D01*
X022290Y020058D01*
X022290Y020172D01*
X022346Y020228D01*
X022233Y019860D02*
X022233Y019633D01*
X022290Y019492D02*
X022403Y019378D01*
X022403Y019435D02*
X022403Y019265D01*
X022290Y019265D02*
X022630Y019265D01*
X022630Y019435D01*
X022573Y019492D01*
X022460Y019492D01*
X022403Y019435D01*
X022290Y019123D02*
X022630Y019123D01*
X022630Y018897D02*
X022290Y018897D01*
X022403Y019010D01*
X022290Y019123D01*
X022460Y018755D02*
X022403Y018698D01*
X022403Y018528D01*
X022290Y018528D02*
X022630Y018528D01*
X022630Y018698D01*
X022573Y018755D01*
X022460Y018755D01*
X022833Y019633D02*
X022833Y019860D01*
X023830Y020002D02*
X023830Y020228D01*
X025290Y020370D02*
X025290Y020597D01*
X026490Y020115D02*
X026490Y020002D01*
X026490Y020058D02*
X026830Y020058D01*
X026830Y020002D02*
X026830Y020115D01*
X026773Y019860D02*
X026830Y019803D01*
X026830Y019690D01*
X026773Y019633D01*
X026716Y019633D01*
X026660Y019690D01*
X026660Y019803D01*
X026603Y019860D01*
X026546Y019860D01*
X026490Y019803D01*
X026490Y019690D01*
X026546Y019633D01*
X027090Y019633D02*
X027430Y019633D01*
X027373Y019492D02*
X027430Y019435D01*
X027430Y019322D01*
X027373Y019265D01*
X027146Y019265D01*
X027090Y019322D01*
X027090Y019435D01*
X027146Y019492D01*
X027203Y019633D02*
X027430Y019860D01*
X027260Y019690D02*
X027090Y019860D01*
X027373Y019123D02*
X027430Y019067D01*
X026830Y018897D02*
X026490Y018897D01*
X026230Y018387D02*
X026173Y018387D01*
X025946Y018160D01*
X025890Y018160D01*
X026230Y018160D02*
X026230Y018387D01*
X027090Y018018D02*
X027090Y017792D01*
X027090Y017905D02*
X027430Y017905D01*
X027316Y017792D01*
X027373Y017650D02*
X027430Y017593D01*
X027430Y017423D01*
X027090Y017423D01*
X027090Y017593D01*
X027146Y017650D01*
X027373Y017650D01*
X025460Y017650D02*
X025460Y017423D01*
X022630Y017537D02*
X022516Y017423D01*
X022630Y017537D02*
X022516Y017650D01*
X028890Y021220D02*
X029230Y021220D01*
X029230Y021333D02*
X029230Y021106D01*
X029173Y020965D02*
X029230Y020908D01*
X029230Y020795D01*
X029173Y020738D01*
X033089Y023777D02*
X033430Y023777D01*
X033430Y023890D02*
X033430Y023663D01*
X033203Y023890D02*
X033089Y023777D01*
X033203Y024032D02*
X033430Y024032D01*
X033259Y024032D02*
X033259Y024258D01*
X033203Y024258D02*
X033089Y024145D01*
X033203Y024032D01*
X033203Y024258D02*
X033430Y024258D01*
X033430Y024513D02*
X033089Y024513D01*
X033089Y024400D02*
X033089Y024627D01*
X033203Y024768D02*
X033430Y024768D01*
X033259Y024768D02*
X033259Y024995D01*
X033203Y024995D02*
X033089Y024882D01*
X033203Y024768D01*
X033203Y024995D02*
X033430Y024995D01*
X033373Y025136D02*
X033146Y025136D01*
X033089Y025193D01*
X033089Y025363D01*
X033430Y025363D01*
X033430Y025193D01*
X033373Y025136D01*
X034089Y025193D02*
X034089Y025363D01*
X034430Y025363D01*
X034430Y025193D01*
X034373Y025136D01*
X034146Y025136D01*
X034089Y025193D01*
X034203Y024995D02*
X034089Y024882D01*
X034203Y024768D01*
X034430Y024768D01*
X034259Y024768D02*
X034259Y024995D01*
X034203Y024995D02*
X034430Y024995D01*
X034430Y024513D02*
X034089Y024513D01*
X034089Y024400D02*
X034089Y024627D01*
X034203Y024258D02*
X034089Y024145D01*
X034203Y024032D01*
X034430Y024032D01*
X034430Y023890D02*
X034203Y023663D01*
X034146Y023663D01*
X034089Y023720D01*
X034089Y023833D01*
X034146Y023890D01*
X034259Y024032D02*
X034259Y024258D01*
X034203Y024258D02*
X034430Y024258D01*
X034430Y023890D02*
X034430Y023663D01*
X035203Y024400D02*
X035089Y024513D01*
X035203Y024627D01*
X035430Y024627D01*
X035373Y024768D02*
X035146Y024768D01*
X035089Y024825D01*
X035089Y024995D01*
X035430Y024995D01*
X035430Y024825D01*
X035373Y024768D01*
X035259Y024627D02*
X035259Y024400D01*
X035203Y024400D02*
X035430Y024400D01*
X036089Y024627D02*
X036430Y024627D01*
X036430Y024400D01*
X036373Y024768D02*
X036430Y024825D01*
X036430Y024938D01*
X036373Y024995D01*
X036146Y024995D01*
X036089Y024938D01*
X036089Y024825D01*
X036146Y024768D01*
X036146Y025136D02*
X036089Y025193D01*
X036089Y025307D01*
X036146Y025363D01*
X036203Y025363D01*
X036259Y025307D01*
X036259Y025193D01*
X036316Y025136D01*
X036373Y025136D01*
X036430Y025193D01*
X036430Y025307D01*
X036373Y025363D01*
X035430Y025307D02*
X035373Y025363D01*
X035430Y025307D02*
X035430Y025193D01*
X035373Y025136D01*
X035316Y025136D01*
X035259Y025193D01*
X035259Y025307D01*
X035203Y025363D01*
X035146Y025363D01*
X035089Y025307D01*
X035089Y025193D01*
X035146Y025136D01*
X037089Y025136D02*
X037430Y025136D01*
X037373Y024995D02*
X037430Y024938D01*
X037430Y024825D01*
X037373Y024768D01*
X037146Y024768D01*
X037089Y024825D01*
X037089Y024938D01*
X037146Y024995D01*
X037373Y024995D01*
X037203Y025250D02*
X037089Y025136D01*
X037203Y025250D02*
X037089Y025363D01*
X037430Y025363D01*
X038089Y025307D02*
X038146Y025363D01*
X038203Y025363D01*
X038259Y025307D01*
X038259Y025193D01*
X038316Y025136D01*
X038373Y025136D01*
X038430Y025193D01*
X038430Y025307D01*
X038373Y025363D01*
X038089Y025307D02*
X038089Y025193D01*
X038146Y025136D01*
X038146Y024995D02*
X038373Y024995D01*
X038430Y024938D01*
X038430Y024825D01*
X038373Y024768D01*
X038430Y024627D02*
X038089Y024627D01*
X038146Y024768D02*
X038089Y024825D01*
X038089Y024938D01*
X038146Y024995D01*
X038316Y024627D02*
X038089Y024400D01*
X038259Y024570D02*
X038430Y024400D01*
X039089Y024324D02*
X039146Y024381D01*
X039373Y024381D01*
X039430Y024324D01*
X039430Y024211D01*
X039373Y024154D01*
X039146Y024154D01*
X039089Y024211D01*
X039089Y024324D01*
X039146Y024523D02*
X039089Y024579D01*
X039089Y024693D01*
X039146Y024749D01*
X039203Y024749D01*
X039259Y024693D01*
X039259Y024579D01*
X039316Y024523D01*
X039373Y024523D01*
X039430Y024579D01*
X039430Y024693D01*
X039373Y024749D01*
X039430Y024882D02*
X039430Y024995D01*
X039430Y024938D02*
X039089Y024938D01*
X039089Y024882D02*
X039089Y024995D01*
X039089Y025136D02*
X039430Y025136D01*
X039430Y025363D02*
X039089Y025363D01*
X039203Y025250D01*
X039089Y025136D01*
X040089Y025193D02*
X040089Y025363D01*
X040430Y025363D01*
X040430Y025193D01*
X040373Y025136D01*
X040146Y025136D01*
X040089Y025193D01*
X040203Y024995D02*
X040089Y024882D01*
X040203Y024768D01*
X040430Y024768D01*
X040259Y024768D02*
X040259Y024995D01*
X040203Y024995D02*
X040430Y024995D01*
X040430Y024513D02*
X040089Y024513D01*
X040089Y024400D02*
X040089Y024627D01*
X040203Y024258D02*
X040089Y024145D01*
X040203Y024032D01*
X040430Y024032D01*
X040373Y023890D02*
X040430Y023833D01*
X040430Y023720D01*
X040373Y023663D01*
X040316Y023663D01*
X040259Y023720D01*
X040259Y023777D01*
X040259Y023720D02*
X040203Y023663D01*
X040146Y023663D01*
X040089Y023720D01*
X040089Y023833D01*
X040146Y023890D01*
X040259Y024032D02*
X040259Y024258D01*
X040203Y024258D02*
X040430Y024258D01*
X041089Y024145D02*
X041203Y024032D01*
X041430Y024032D01*
X041259Y024032D02*
X041259Y024258D01*
X041203Y024258D02*
X041089Y024145D01*
X041203Y024258D02*
X041430Y024258D01*
X041430Y024513D02*
X041089Y024513D01*
X041089Y024400D02*
X041089Y024627D01*
X041203Y024768D02*
X041430Y024768D01*
X041259Y024768D02*
X041259Y024995D01*
X041203Y024995D02*
X041089Y024882D01*
X041203Y024768D01*
X041203Y024995D02*
X041430Y024995D01*
X041373Y025136D02*
X041146Y025136D01*
X041089Y025193D01*
X041089Y025363D01*
X041430Y025363D01*
X041430Y025193D01*
X041373Y025136D01*
X042089Y025193D02*
X042089Y025307D01*
X042146Y025363D01*
X042373Y025363D01*
X042430Y025307D01*
X042430Y025193D01*
X042373Y025136D01*
X042259Y025136D01*
X042259Y025250D01*
X042146Y025136D02*
X042089Y025193D01*
X042089Y024995D02*
X042430Y024768D01*
X042089Y024768D01*
X042089Y024627D02*
X042089Y024457D01*
X042146Y024400D01*
X042373Y024400D01*
X042430Y024457D01*
X042430Y024627D01*
X042089Y024627D01*
X042089Y024995D02*
X042430Y024995D01*
X041259Y023890D02*
X041259Y023663D01*
X041089Y023720D02*
X041259Y023890D01*
X041089Y023720D02*
X041430Y023720D01*
X037430Y024145D02*
X037430Y024258D01*
X037430Y024202D02*
X037089Y024202D01*
X037089Y024258D02*
X037089Y024145D01*
X037146Y024400D02*
X037089Y024457D01*
X037089Y024570D01*
X037146Y024627D01*
X037203Y024627D01*
X037259Y024570D01*
X037259Y024457D01*
X037316Y024400D01*
X037373Y024400D01*
X037430Y024457D01*
X037430Y024570D01*
X037373Y024627D01*
X032230Y025280D02*
X032173Y025223D01*
X032059Y025223D01*
X032003Y025280D01*
X032003Y025337D01*
X032059Y025393D01*
X032116Y025393D01*
X032059Y025393D02*
X032003Y025450D01*
X032003Y025507D01*
X032059Y025564D01*
X032173Y025564D01*
X032230Y025507D01*
X031861Y025280D02*
X031804Y025280D01*
X031804Y025223D01*
X031861Y025223D01*
X031861Y025280D01*
X031677Y025280D02*
X031620Y025223D01*
X031507Y025223D01*
X031450Y025280D01*
X031450Y025337D01*
X031507Y025393D01*
X031564Y025393D01*
X031507Y025393D02*
X031450Y025450D01*
X031450Y025507D01*
X031507Y025564D01*
X031620Y025564D01*
X031677Y025507D01*
X031309Y025564D02*
X031309Y025337D01*
X031195Y025223D01*
X031082Y025337D01*
X031082Y025564D01*
D12*
X037461Y022898D02*
X037555Y022898D01*
X037555Y023038D01*
X037609Y023015D02*
X037609Y022992D01*
X037632Y022968D01*
X037702Y022968D01*
X037702Y022898D02*
X037632Y022898D01*
X037609Y022922D01*
X037609Y022945D01*
X037632Y022968D01*
X037609Y023015D02*
X037632Y023038D01*
X037702Y023038D01*
X037702Y022898D01*
X037756Y022875D02*
X037850Y022875D01*
X037903Y022922D02*
X037903Y023015D01*
X037927Y023038D01*
X037997Y023038D01*
X037997Y022898D01*
X037927Y022898D01*
X037903Y022922D01*
X038051Y022922D02*
X038074Y022898D01*
X038121Y022898D01*
X038144Y022922D01*
X038144Y023015D01*
X038121Y023038D01*
X038074Y023038D01*
X038051Y023015D01*
X038198Y022898D02*
X038291Y022898D01*
X038291Y023038D01*
X039317Y023038D02*
X039410Y023038D01*
X039410Y022898D01*
X039317Y022898D01*
X039364Y022968D02*
X039410Y022968D01*
X039464Y022945D02*
X039464Y022922D01*
X039487Y022898D01*
X039534Y022898D01*
X039558Y022922D01*
X039534Y022968D02*
X039487Y022968D01*
X039464Y022945D01*
X039464Y023015D02*
X039487Y023038D01*
X039534Y023038D01*
X039558Y023015D01*
X039558Y022992D01*
X039534Y022968D01*
X039611Y022898D02*
X039611Y023038D01*
X039705Y023038D02*
X039611Y022898D01*
X039705Y022898D02*
X039705Y023038D01*
X039759Y023038D02*
X039852Y023038D01*
X039852Y022898D01*
X039759Y022898D01*
X039805Y022968D02*
X039852Y022968D01*
X039906Y022945D02*
X039906Y022922D01*
X039929Y022898D01*
X039976Y022898D01*
X040000Y022922D01*
X039976Y022968D02*
X039929Y022968D01*
X039906Y022945D01*
X039906Y023015D02*
X039929Y023038D01*
X039976Y023038D01*
X040000Y023015D01*
X040000Y022992D01*
X039976Y022968D01*
X040053Y022875D02*
X040147Y022875D01*
X040247Y022898D02*
X040247Y023038D01*
X040201Y023038D02*
X040294Y023038D01*
X040348Y022992D02*
X040348Y022898D01*
X040348Y022968D02*
X040441Y022968D01*
X040441Y022992D02*
X040395Y023038D01*
X040348Y022992D01*
X040441Y022992D02*
X040441Y022898D01*
X040495Y022922D02*
X040519Y022898D01*
X040589Y022898D01*
X040589Y023038D01*
X040519Y023038D01*
X040495Y023015D01*
X040495Y022992D01*
X040519Y022968D01*
X040589Y022968D01*
X040643Y022945D02*
X040643Y023038D01*
X040643Y022945D02*
X040689Y022898D01*
X040736Y022945D01*
X040736Y023038D01*
X040519Y022968D02*
X040495Y022945D01*
X040495Y022922D01*
X041582Y022922D02*
X041582Y023015D01*
X041606Y023038D01*
X041676Y023038D01*
X041676Y022898D01*
X041606Y022898D01*
X041582Y022922D01*
X041730Y022898D02*
X041730Y023038D01*
X041823Y023038D02*
X041730Y022898D01*
X041823Y022898D02*
X041823Y023038D01*
X041877Y023015D02*
X041900Y023038D01*
X041947Y023038D01*
X041971Y023015D01*
X041971Y022922D01*
X041947Y022898D01*
X041900Y022898D01*
X041877Y022922D01*
X041877Y022968D01*
X041924Y022968D01*
X043233Y023745D02*
X043233Y023838D01*
X043233Y023745D02*
X043280Y023698D01*
X043327Y023745D01*
X043327Y023838D01*
X043380Y023815D02*
X043380Y023792D01*
X043404Y023768D01*
X043380Y023745D01*
X043380Y023722D01*
X043404Y023698D01*
X043450Y023698D01*
X043474Y023722D01*
X043524Y023722D02*
X043524Y023698D01*
X043548Y023698D01*
X043548Y023722D01*
X043524Y023722D01*
X043601Y023722D02*
X043625Y023698D01*
X043671Y023698D01*
X043695Y023722D01*
X043648Y023768D02*
X043625Y023768D01*
X043601Y023745D01*
X043601Y023722D01*
X043625Y023768D02*
X043601Y023792D01*
X043601Y023815D01*
X043625Y023838D01*
X043671Y023838D01*
X043695Y023815D01*
X043474Y023815D02*
X043450Y023838D01*
X043404Y023838D01*
X043380Y023815D01*
X043404Y023768D02*
X043427Y023768D01*
X046111Y027448D02*
X046111Y027588D01*
X046205Y027588D02*
X046111Y027448D01*
X046205Y027448D02*
X046205Y027588D01*
X046259Y027588D02*
X046352Y027588D01*
X046352Y027448D01*
X046259Y027448D01*
X046305Y027518D02*
X046352Y027518D01*
X046406Y027425D02*
X046500Y027425D01*
X046553Y027472D02*
X046577Y027448D01*
X046623Y027448D01*
X046647Y027472D01*
X046701Y027495D02*
X046701Y027588D01*
X046647Y027565D02*
X046623Y027588D01*
X046577Y027588D01*
X046553Y027565D01*
X046553Y027542D01*
X046577Y027518D01*
X046553Y027495D01*
X046553Y027472D01*
X046577Y027518D02*
X046600Y027518D01*
X046701Y027495D02*
X046747Y027448D01*
X046794Y027495D01*
X046794Y027588D01*
X046848Y027565D02*
X046848Y027542D01*
X046871Y027518D01*
X046848Y027495D01*
X046848Y027472D01*
X046871Y027448D01*
X046918Y027448D01*
X046941Y027472D01*
X046895Y027518D02*
X046871Y027518D01*
X046848Y027565D02*
X046871Y027588D01*
X046918Y027588D01*
X046941Y027565D01*
X048283Y028347D02*
X048283Y028440D01*
X048307Y028463D01*
X048353Y028463D01*
X048377Y028440D01*
X048377Y028347D01*
X048353Y028323D01*
X048307Y028323D01*
X048283Y028347D01*
X048431Y028347D02*
X048454Y028323D01*
X048501Y028323D01*
X048524Y028347D01*
X048501Y028393D02*
X048454Y028393D01*
X048431Y028370D01*
X048431Y028347D01*
X048501Y028393D02*
X048524Y028417D01*
X048524Y028440D01*
X048501Y028463D01*
X048454Y028463D01*
X048431Y028440D01*
X048576Y028463D02*
X048622Y028463D01*
X048599Y028463D02*
X048599Y028323D01*
X048622Y028323D02*
X048576Y028323D01*
X048676Y028323D02*
X048676Y028463D01*
X048723Y028417D01*
X048770Y028463D01*
X048770Y028323D01*
X048747Y029386D02*
X048700Y029386D01*
X048677Y029409D01*
X048677Y029433D01*
X048700Y029456D01*
X048747Y029456D01*
X048771Y029479D01*
X048771Y029503D01*
X048747Y029526D01*
X048700Y029526D01*
X048677Y029503D01*
X048623Y029503D02*
X048623Y029409D01*
X048600Y029386D01*
X048553Y029386D01*
X048530Y029409D01*
X048476Y029386D02*
X048476Y029526D01*
X048530Y029503D02*
X048553Y029526D01*
X048600Y029526D01*
X048623Y029503D01*
X048476Y029433D02*
X048382Y029526D01*
X048452Y029456D02*
X048382Y029386D01*
X048747Y029386D02*
X048771Y029409D01*
X048747Y030323D02*
X048701Y030370D01*
X048701Y030463D01*
X048647Y030440D02*
X048623Y030463D01*
X048577Y030463D01*
X048553Y030440D01*
X048553Y030417D01*
X048577Y030393D01*
X048553Y030370D01*
X048553Y030347D01*
X048577Y030323D01*
X048623Y030323D01*
X048647Y030347D01*
X048600Y030393D02*
X048577Y030393D01*
X048500Y030300D02*
X048406Y030300D01*
X048352Y030323D02*
X048259Y030323D01*
X048205Y030323D02*
X048205Y030463D01*
X048111Y030323D01*
X048111Y030463D01*
X048259Y030463D02*
X048352Y030463D01*
X048352Y030323D01*
X048352Y030393D02*
X048305Y030393D01*
X048747Y030323D02*
X048794Y030370D01*
X048794Y030463D01*
X048848Y030440D02*
X048848Y030417D01*
X048871Y030393D01*
X048848Y030370D01*
X048848Y030347D01*
X048871Y030323D01*
X048918Y030323D01*
X048941Y030347D01*
X048895Y030393D02*
X048871Y030393D01*
X048848Y030440D02*
X048871Y030463D01*
X048918Y030463D01*
X048941Y030440D01*
X052832Y030440D02*
X052856Y030463D01*
X052926Y030463D01*
X052926Y030323D01*
X052856Y030323D01*
X052832Y030347D01*
X052832Y030440D01*
X052980Y030463D02*
X052980Y030323D01*
X053073Y030463D01*
X053073Y030323D01*
X053127Y030347D02*
X053127Y030393D01*
X053174Y030393D01*
X053221Y030347D02*
X053197Y030323D01*
X053150Y030323D01*
X053127Y030347D01*
X053127Y030440D02*
X053150Y030463D01*
X053197Y030463D01*
X053221Y030440D01*
X053221Y030347D01*
X053176Y029463D02*
X053176Y029323D01*
X053122Y029347D02*
X053099Y029323D01*
X053052Y029323D01*
X053029Y029347D01*
X053029Y029440D01*
X053052Y029463D01*
X053099Y029463D01*
X053122Y029440D01*
X053122Y029347D01*
X053223Y029417D02*
X053176Y029463D01*
X053223Y029417D02*
X053270Y029463D01*
X053270Y029323D01*
X052975Y029347D02*
X052952Y029323D01*
X052905Y029323D01*
X052882Y029347D01*
X052882Y029370D01*
X052905Y029393D01*
X052952Y029393D01*
X052975Y029417D01*
X052975Y029440D01*
X052952Y029463D01*
X052905Y029463D01*
X052882Y029440D01*
X052828Y029463D02*
X052781Y029463D01*
X052804Y029463D02*
X052804Y029323D01*
X052781Y029323D02*
X052828Y029323D01*
X052828Y028463D02*
X052781Y028463D01*
X052804Y028463D02*
X052804Y028323D01*
X052781Y028323D02*
X052828Y028323D01*
X052882Y028300D02*
X052975Y028300D01*
X053029Y028347D02*
X053052Y028323D01*
X053099Y028323D01*
X053122Y028347D01*
X053099Y028393D02*
X053052Y028393D01*
X053029Y028370D01*
X053029Y028347D01*
X053099Y028393D02*
X053122Y028417D01*
X053122Y028440D01*
X053099Y028463D01*
X053052Y028463D01*
X053029Y028440D01*
X053176Y028440D02*
X053176Y028417D01*
X053200Y028393D01*
X053270Y028393D01*
X053324Y028370D02*
X053324Y028463D01*
X053270Y028463D02*
X053200Y028463D01*
X053176Y028440D01*
X053200Y028393D02*
X053176Y028370D01*
X053176Y028347D01*
X053200Y028323D01*
X053270Y028323D01*
X053270Y028463D01*
X053324Y028370D02*
X053370Y028323D01*
X053417Y028370D01*
X053417Y028463D01*
X052729Y028463D02*
X052636Y028323D01*
X052636Y028463D01*
X052729Y028463D02*
X052729Y028323D01*
X051537Y022526D02*
X051467Y022526D01*
X051444Y022503D01*
X051444Y022479D01*
X051467Y022456D01*
X051537Y022456D01*
X051467Y022456D02*
X051444Y022433D01*
X051444Y022409D01*
X051467Y022386D01*
X051537Y022386D01*
X051537Y022526D01*
X051390Y022479D02*
X051343Y022526D01*
X051297Y022479D01*
X051297Y022386D01*
X051297Y022456D02*
X051390Y022456D01*
X051390Y022479D02*
X051390Y022386D01*
X051196Y022386D02*
X051196Y022526D01*
X051243Y022526D02*
X051149Y022526D01*
X051096Y022526D02*
X051002Y022526D01*
X051049Y022526D02*
X051049Y022386D01*
X050948Y022362D02*
X050855Y022362D01*
X050801Y022409D02*
X050778Y022386D01*
X050731Y022386D01*
X050707Y022409D01*
X050707Y022433D01*
X050731Y022456D01*
X050778Y022456D01*
X050801Y022479D01*
X050801Y022503D01*
X050778Y022526D01*
X050731Y022526D01*
X050707Y022503D01*
X050654Y022526D02*
X050560Y022526D01*
X050607Y022526D02*
X050607Y022386D01*
X050506Y022386D02*
X050506Y022479D01*
X050459Y022526D01*
X050413Y022479D01*
X050413Y022386D01*
X050413Y022456D02*
X050506Y022456D01*
X050359Y022526D02*
X050265Y022526D01*
X050312Y022526D02*
X050312Y022386D01*
X049669Y019963D02*
X049669Y019870D01*
X049622Y019823D01*
X049576Y019870D01*
X049576Y019963D01*
X049522Y019963D02*
X049452Y019963D01*
X049428Y019940D01*
X049428Y019917D01*
X049452Y019893D01*
X049522Y019893D01*
X049522Y019823D02*
X049452Y019823D01*
X049428Y019847D01*
X049428Y019870D01*
X049452Y019893D01*
X049375Y019893D02*
X049281Y019893D01*
X049281Y019917D02*
X049281Y019823D01*
X049375Y019823D02*
X049375Y019917D01*
X049328Y019963D01*
X049281Y019917D01*
X049227Y019963D02*
X049134Y019963D01*
X049180Y019963D02*
X049180Y019823D01*
X049522Y019823D02*
X049522Y019963D01*
X050502Y018528D02*
X050642Y018528D01*
X050642Y018435D02*
X050502Y018528D01*
X050502Y018435D02*
X050642Y018435D01*
X050642Y018383D02*
X050642Y018336D01*
X050642Y018360D02*
X050502Y018360D01*
X050502Y018383D02*
X050502Y018336D01*
X050479Y018282D02*
X050479Y018189D01*
X050525Y018135D02*
X050502Y018112D01*
X050502Y018065D01*
X050525Y018042D01*
X050572Y018065D02*
X050572Y018112D01*
X050549Y018135D01*
X050525Y018135D01*
X050572Y018065D02*
X050595Y018042D01*
X050619Y018042D01*
X050642Y018065D01*
X050642Y018112D01*
X050619Y018135D01*
X050642Y017988D02*
X050525Y017988D01*
X050502Y017964D01*
X050502Y017918D01*
X050525Y017894D01*
X050642Y017894D01*
X050619Y017840D02*
X050595Y017840D01*
X050572Y017817D01*
X050572Y017747D01*
X050549Y017693D02*
X050642Y017693D01*
X050642Y017747D02*
X050642Y017817D01*
X050619Y017840D01*
X050572Y017817D02*
X050549Y017840D01*
X050525Y017840D01*
X050502Y017817D01*
X050502Y017747D01*
X050642Y017747D01*
X050549Y017693D02*
X050502Y017646D01*
X050549Y017600D01*
X050642Y017600D01*
X045805Y018784D02*
X045782Y018761D01*
X045735Y018761D01*
X045712Y018784D01*
X045712Y018808D01*
X045735Y018831D01*
X045782Y018831D01*
X045805Y018854D01*
X045805Y018878D01*
X045782Y018901D01*
X045735Y018901D01*
X045712Y018878D01*
X045658Y018901D02*
X045588Y018901D01*
X045565Y018878D01*
X045565Y018784D01*
X045588Y018761D01*
X045658Y018761D01*
X045658Y018901D01*
X045511Y018737D02*
X045417Y018737D01*
X045363Y018784D02*
X045340Y018761D01*
X045293Y018761D01*
X045270Y018784D01*
X045216Y018784D02*
X045193Y018761D01*
X045146Y018761D01*
X045123Y018784D01*
X045123Y018808D01*
X045146Y018831D01*
X045193Y018831D01*
X045216Y018854D01*
X045216Y018878D01*
X045193Y018901D01*
X045146Y018901D01*
X045123Y018878D01*
X045270Y018878D02*
X045293Y018901D01*
X045340Y018901D01*
X045363Y018878D01*
X045363Y018784D01*
X023799Y026823D02*
X023799Y026963D01*
X023729Y026963D01*
X023705Y026940D01*
X023705Y026893D01*
X023729Y026870D01*
X023799Y026870D01*
X023651Y026823D02*
X023605Y026870D01*
X023558Y026823D01*
X023558Y026963D01*
X023504Y026963D02*
X023434Y026963D01*
X023411Y026940D01*
X023411Y026893D01*
X023434Y026870D01*
X023504Y026870D01*
X023504Y026823D02*
X023504Y026963D01*
X023457Y026870D02*
X023411Y026823D01*
X023357Y026800D02*
X023263Y026800D01*
X023209Y026847D02*
X023186Y026823D01*
X023139Y026823D01*
X023116Y026847D01*
X023116Y026940D01*
X023139Y026963D01*
X023186Y026963D01*
X023209Y026940D01*
X023209Y026847D01*
X023062Y026823D02*
X023062Y026963D01*
X022969Y026823D01*
X022969Y026963D01*
X022821Y026963D02*
X022915Y026823D01*
X022767Y026847D02*
X022744Y026823D01*
X022697Y026823D01*
X022674Y026847D01*
X022674Y026940D01*
X022697Y026963D01*
X022744Y026963D01*
X022767Y026940D01*
X022767Y026847D01*
X022620Y026823D02*
X022620Y026963D01*
X022527Y026963D01*
X022473Y026963D02*
X022379Y026963D01*
X022426Y026893D02*
X022473Y026893D01*
X022473Y026823D02*
X022473Y026963D01*
X022573Y026893D02*
X022620Y026893D01*
X022861Y027323D02*
X022908Y027370D01*
X022885Y027370D02*
X022955Y027370D01*
X022955Y027323D02*
X022955Y027463D01*
X022885Y027463D01*
X022861Y027440D01*
X022861Y027393D01*
X022885Y027370D01*
X023009Y027323D02*
X023009Y027463D01*
X023102Y027463D02*
X023102Y027323D01*
X023055Y027370D01*
X023009Y027323D01*
X023156Y027393D02*
X023179Y027370D01*
X023250Y027370D01*
X023250Y027323D02*
X023250Y027463D01*
X023179Y027463D01*
X023156Y027440D01*
X023156Y027393D01*
X023303Y027300D02*
X023397Y027300D01*
X023451Y027323D02*
X023451Y027463D01*
X023544Y027463D02*
X023544Y027323D01*
X023497Y027370D01*
X023451Y027323D01*
X023598Y027347D02*
X023621Y027323D01*
X023668Y027323D01*
X023691Y027347D01*
X023668Y027393D02*
X023621Y027393D01*
X023598Y027370D01*
X023598Y027347D01*
X023668Y027393D02*
X023691Y027417D01*
X023691Y027440D01*
X023668Y027463D01*
X023621Y027463D01*
X023598Y027440D01*
X023651Y026963D02*
X023651Y026823D01*
X021971Y028347D02*
X021947Y028323D01*
X021900Y028323D01*
X021877Y028347D01*
X021877Y028370D01*
X021900Y028393D01*
X021947Y028393D01*
X021971Y028417D01*
X021971Y028440D01*
X021947Y028463D01*
X021900Y028463D01*
X021877Y028440D01*
X021823Y028463D02*
X021753Y028463D01*
X021730Y028440D01*
X021730Y028347D01*
X021753Y028323D01*
X021823Y028323D01*
X021823Y028463D01*
X021676Y028417D02*
X021629Y028463D01*
X021582Y028417D01*
X021582Y028323D01*
X021582Y028393D02*
X021676Y028393D01*
X021676Y028417D02*
X021676Y028323D01*
X022060Y029386D02*
X022154Y029386D01*
X022060Y029479D01*
X022060Y029503D01*
X022083Y029526D01*
X022130Y029526D01*
X022154Y029503D01*
X022207Y029479D02*
X022207Y029386D01*
X022207Y029456D02*
X022301Y029456D01*
X022301Y029479D02*
X022254Y029526D01*
X022207Y029479D01*
X022301Y029479D02*
X022301Y029386D01*
X022401Y029386D02*
X022401Y029526D01*
X022355Y029526D02*
X022448Y029526D01*
X022502Y029479D02*
X022502Y029386D01*
X022502Y029456D02*
X022596Y029456D01*
X022596Y029479D02*
X022549Y029526D01*
X022502Y029479D01*
X022596Y029479D02*
X022596Y029386D01*
X022649Y029409D02*
X022649Y029503D01*
X022673Y029526D01*
X022743Y029526D01*
X022743Y029386D01*
X022673Y029386D01*
X022649Y029409D01*
X022484Y030323D02*
X022507Y030347D01*
X022484Y030323D02*
X022437Y030323D01*
X022414Y030347D01*
X022414Y030370D01*
X022437Y030393D01*
X022461Y030393D01*
X022437Y030393D02*
X022414Y030417D01*
X022414Y030440D01*
X022437Y030463D01*
X022484Y030463D01*
X022507Y030440D01*
X022360Y030347D02*
X022337Y030347D01*
X022337Y030323D01*
X022360Y030323D01*
X022360Y030347D01*
X022286Y030347D02*
X022263Y030323D01*
X022216Y030323D01*
X022193Y030347D01*
X022193Y030370D01*
X022216Y030393D01*
X022240Y030393D01*
X022216Y030393D02*
X022193Y030417D01*
X022193Y030440D01*
X022216Y030463D01*
X022263Y030463D01*
X022286Y030440D01*
X022139Y030463D02*
X022139Y030370D01*
X022092Y030323D01*
X022046Y030370D01*
X022046Y030463D01*
X017971Y030440D02*
X017971Y030347D01*
X017947Y030323D01*
X017900Y030323D01*
X017877Y030347D01*
X017877Y030393D01*
X017924Y030393D01*
X017971Y030440D02*
X017947Y030463D01*
X017900Y030463D01*
X017877Y030440D01*
X017823Y030463D02*
X017730Y030323D01*
X017730Y030463D01*
X017676Y030463D02*
X017606Y030463D01*
X017582Y030440D01*
X017582Y030347D01*
X017606Y030323D01*
X017676Y030323D01*
X017676Y030463D01*
X017823Y030463D02*
X017823Y030323D01*
X017860Y029463D02*
X017930Y029463D01*
X017930Y029323D01*
X017860Y029323D01*
X017837Y029347D01*
X017837Y029440D01*
X017860Y029463D01*
X017783Y029417D02*
X017736Y029463D01*
X017690Y029417D01*
X017690Y029323D01*
X017690Y029393D02*
X017783Y029393D01*
X017783Y029417D02*
X017783Y029323D01*
X017589Y029323D02*
X017589Y029463D01*
X017636Y029463D02*
X017542Y029463D01*
X017488Y029417D02*
X017442Y029463D01*
X017395Y029417D01*
X017395Y029323D01*
X017341Y029323D02*
X017248Y029323D01*
X017294Y029323D02*
X017294Y029463D01*
X017341Y029417D01*
X017395Y029393D02*
X017488Y029393D01*
X017488Y029417D02*
X017488Y029323D01*
X017676Y028463D02*
X017676Y028323D01*
X017582Y028323D01*
X017730Y028347D02*
X017753Y028323D01*
X017800Y028323D01*
X017823Y028347D01*
X017823Y028440D01*
X017800Y028463D01*
X017753Y028463D01*
X017730Y028440D01*
X017877Y028440D02*
X017900Y028463D01*
X017947Y028463D01*
X017971Y028440D01*
X017971Y028417D01*
X017947Y028393D01*
X017900Y028393D01*
X017877Y028370D01*
X017877Y028347D01*
X017900Y028323D01*
X017947Y028323D01*
X017971Y028347D01*
X019260Y024838D02*
X019307Y024838D01*
X019330Y024815D01*
X019330Y024722D01*
X019307Y024698D01*
X019260Y024698D01*
X019236Y024722D01*
X019236Y024815D02*
X019260Y024838D01*
X019384Y024815D02*
X019407Y024838D01*
X019454Y024838D01*
X019477Y024815D01*
X019477Y024722D01*
X019454Y024698D01*
X019407Y024698D01*
X019384Y024722D01*
X019531Y024745D02*
X019531Y024838D01*
X019531Y024745D02*
X019578Y024698D01*
X019625Y024745D01*
X019625Y024838D01*
X019678Y024815D02*
X019678Y024792D01*
X019702Y024768D01*
X019772Y024768D01*
X019826Y024745D02*
X019826Y024722D01*
X019849Y024698D01*
X019896Y024698D01*
X019919Y024722D01*
X019896Y024768D02*
X019849Y024768D01*
X019826Y024745D01*
X019826Y024815D02*
X019849Y024838D01*
X019896Y024838D01*
X019919Y024815D01*
X019919Y024792D01*
X019896Y024768D01*
X019973Y024722D02*
X019973Y024838D01*
X020066Y024838D02*
X020066Y024722D01*
X020043Y024698D01*
X019996Y024698D01*
X019973Y024722D01*
X019772Y024698D02*
X019702Y024698D01*
X019678Y024722D01*
X019678Y024745D01*
X019702Y024768D01*
X019678Y024815D02*
X019702Y024838D01*
X019772Y024838D01*
X019772Y024698D01*
X022509Y021940D02*
X022532Y021963D01*
X022579Y021963D01*
X022602Y021940D01*
X022602Y021917D01*
X022579Y021893D01*
X022532Y021893D01*
X022509Y021870D01*
X022509Y021847D01*
X022532Y021823D01*
X022579Y021823D01*
X022602Y021847D01*
X022656Y021847D02*
X022656Y021963D01*
X022750Y021963D02*
X022750Y021847D01*
X022726Y021823D01*
X022679Y021823D01*
X022656Y021847D01*
X022803Y021847D02*
X022827Y021823D01*
X022897Y021823D01*
X022897Y021963D01*
X022827Y021963D01*
X022803Y021940D01*
X022803Y021917D01*
X022827Y021893D01*
X022897Y021893D01*
X022951Y021870D02*
X022951Y021963D01*
X022951Y021870D02*
X022997Y021823D01*
X023044Y021870D01*
X023044Y021963D01*
X022827Y021893D02*
X022803Y021870D01*
X022803Y021847D01*
D13*
X020760Y027893D02*
X018760Y027893D01*
X018760Y028143D01*
X019010Y027768D02*
X019210Y027518D01*
X018810Y027518D01*
X019010Y027768D01*
X018760Y028693D02*
X018760Y029043D01*
X018760Y029693D02*
X018760Y030093D01*
X018760Y030643D02*
X018760Y030893D01*
X020760Y030893D01*
X020760Y030643D01*
X020760Y030093D02*
X020760Y029693D01*
X020760Y029093D02*
X020760Y028693D01*
X020760Y028143D02*
X020760Y027893D01*
X046071Y022673D02*
X046071Y019169D01*
X047960Y019169D01*
X047960Y022673D01*
X046071Y022673D01*
X049810Y027518D02*
X050210Y027518D01*
X050010Y027768D01*
X049810Y027518D01*
X049760Y027893D02*
X049760Y028143D01*
X049760Y027893D02*
X051760Y027893D01*
X051760Y028143D01*
X051760Y028693D02*
X051760Y029093D01*
X051760Y029693D02*
X051760Y030093D01*
X051760Y030643D02*
X051760Y030893D01*
X049760Y030893D01*
X049760Y030643D01*
X049760Y030093D02*
X049760Y029693D01*
X049760Y029043D02*
X049760Y028693D01*
D14*
X042223Y019809D02*
X042325Y019707D01*
X042204Y019558D01*
X042235Y019499D01*
X042255Y019435D01*
X042446Y019415D01*
X042446Y019271D01*
X042255Y019252D01*
X042235Y019188D01*
X042204Y019128D01*
X042325Y018980D01*
X042223Y018878D01*
X042075Y018999D01*
X042015Y018968D01*
X041930Y019173D01*
X041968Y019194D01*
X042000Y019223D01*
X042024Y019260D01*
X042039Y019300D01*
X042044Y019343D01*
X042039Y019387D01*
X042023Y019429D01*
X041998Y019465D01*
X041965Y019494D01*
X041926Y019515D01*
X041884Y019526D01*
X041839Y019527D01*
X041796Y019517D01*
X041757Y019497D01*
X041723Y019468D01*
X041698Y019432D01*
X041681Y019391D01*
X041675Y019347D01*
X041679Y019303D01*
X041694Y019262D01*
X041718Y019225D01*
X041750Y019194D01*
X041789Y019173D01*
X041704Y018968D01*
X041644Y018999D01*
X041496Y018878D01*
X041394Y018980D01*
X041515Y019128D01*
X041484Y019188D01*
X041464Y019252D01*
X041273Y019271D01*
X041273Y019415D01*
X041464Y019435D01*
X041484Y019499D01*
X041515Y019558D01*
X041394Y019707D01*
X041496Y019809D01*
X041644Y019688D01*
X041704Y019718D01*
X041768Y019739D01*
X041788Y019929D01*
X041931Y019929D01*
X041951Y019739D01*
X042015Y019718D01*
X042075Y019688D01*
X042223Y019809D01*
X042243Y019789D02*
X042199Y019789D01*
X042128Y019732D02*
X042300Y019732D01*
X042298Y019674D02*
X041421Y019674D01*
X041419Y019732D02*
X041591Y019732D01*
X041520Y019789D02*
X041476Y019789D01*
X041468Y019616D02*
X042251Y019616D01*
X042204Y019559D02*
X041515Y019559D01*
X041486Y019501D02*
X041766Y019501D01*
X041706Y019444D02*
X041467Y019444D01*
X041273Y019386D02*
X041681Y019386D01*
X041677Y019329D02*
X041273Y019329D01*
X041276Y019271D02*
X041691Y019271D01*
X041730Y019214D02*
X041476Y019214D01*
X041501Y019156D02*
X041782Y019156D01*
X041758Y019098D02*
X041491Y019098D01*
X041444Y019041D02*
X041734Y019041D01*
X041710Y018983D02*
X041675Y018983D01*
X041625Y018983D02*
X041397Y018983D01*
X041448Y018926D02*
X041555Y018926D01*
X041961Y019098D02*
X042228Y019098D01*
X042218Y019156D02*
X041937Y019156D01*
X041989Y019214D02*
X042243Y019214D01*
X042275Y019041D02*
X041985Y019041D01*
X042009Y018983D02*
X042044Y018983D01*
X042094Y018983D02*
X042322Y018983D01*
X042271Y018926D02*
X042164Y018926D01*
X042028Y019271D02*
X042443Y019271D01*
X042446Y019329D02*
X042042Y019329D01*
X042039Y019386D02*
X042446Y019386D01*
X042252Y019444D02*
X042013Y019444D01*
X041953Y019501D02*
X042233Y019501D01*
X041974Y019732D02*
X041745Y019732D01*
X041773Y019789D02*
X041946Y019789D01*
X041940Y019847D02*
X041779Y019847D01*
X041785Y019904D02*
X041934Y019904D01*
D15*
X039165Y018453D03*
D16*
X039165Y018463D03*
X039085Y019653D03*
X038955Y019803D03*
X038955Y019813D03*
X038955Y019823D03*
D17*
X039165Y018473D03*
D18*
X039165Y018483D03*
D19*
X039165Y018493D03*
X039875Y018983D03*
X038235Y019983D03*
X038245Y020033D03*
X038245Y020043D03*
X038255Y020073D03*
X038255Y020083D03*
X038265Y020103D03*
X038265Y020113D03*
X038275Y020133D03*
X038285Y020163D03*
D20*
X038380Y020323D03*
X038390Y020333D03*
X038500Y020503D03*
X038620Y020643D03*
X038630Y020653D03*
X038240Y019753D03*
X038240Y019743D03*
X038240Y019733D03*
X039160Y018503D03*
D21*
X039165Y018513D03*
X039885Y019103D03*
X039885Y019113D03*
X038285Y019603D03*
X038465Y020403D03*
X038495Y020453D03*
D22*
X038325Y019533D03*
X039165Y018523D03*
X039915Y019223D03*
X039915Y019233D03*
D23*
X039940Y019353D03*
X039940Y019363D03*
X039940Y019373D03*
X039160Y018533D03*
X038360Y019493D03*
X039580Y020683D03*
X039590Y020673D03*
X039600Y020663D03*
D24*
X039695Y020533D03*
X039705Y020523D03*
X039705Y020513D03*
X039715Y020503D03*
X039735Y020473D03*
X039975Y019753D03*
X039975Y019743D03*
X039975Y019733D03*
X039965Y019703D03*
X039965Y019693D03*
X039965Y019683D03*
X039965Y019673D03*
X039965Y019663D03*
X039965Y019653D03*
X039965Y019643D03*
X039965Y019633D03*
X039965Y019623D03*
X039965Y019613D03*
X039965Y019603D03*
X039965Y019593D03*
X039965Y019583D03*
X039165Y018543D03*
X038655Y018913D03*
D25*
X038420Y019443D03*
X039160Y018553D03*
X039840Y020243D03*
D26*
X039825Y020213D03*
X039835Y020193D03*
X039845Y020183D03*
X039845Y020173D03*
X039855Y020153D03*
X039165Y018563D03*
D27*
X039165Y018573D03*
X038675Y018983D03*
D28*
X039165Y018583D03*
D29*
X039165Y018593D03*
X038685Y019023D03*
D30*
X038675Y019063D03*
X038675Y019073D03*
X039165Y018603D03*
D31*
X039165Y018613D03*
X038655Y019133D03*
X038655Y019143D03*
D32*
X038640Y019193D03*
X038640Y019203D03*
X039160Y018623D03*
D33*
X039165Y018633D03*
X038625Y019263D03*
X038625Y019273D03*
X038625Y019283D03*
X039165Y020843D03*
D34*
X038605Y019403D03*
X038605Y019393D03*
X038605Y019383D03*
X038605Y019373D03*
X039165Y018643D03*
D35*
X039165Y018653D03*
X039165Y020823D03*
D36*
X039165Y018663D03*
D37*
X039165Y018673D03*
X039165Y020803D03*
D38*
X039165Y018683D03*
D39*
X039165Y018693D03*
X039165Y020783D03*
D40*
X039160Y018703D03*
D41*
X039165Y018713D03*
D42*
X039165Y018723D03*
X039165Y020753D03*
D43*
X039160Y018733D03*
D44*
X039165Y018743D03*
D45*
X039165Y018753D03*
X039595Y020013D03*
D46*
X039595Y019953D03*
X039595Y019943D03*
X039595Y019933D03*
X039595Y019923D03*
X039595Y019913D03*
X039595Y019903D03*
X039165Y020713D03*
X039165Y018763D03*
D47*
X039165Y018773D03*
X039165Y020703D03*
D48*
X039165Y018783D03*
D49*
X039160Y018793D03*
D50*
X039160Y018803D03*
D51*
X039160Y018813D03*
D52*
X039160Y018823D03*
D53*
X039160Y018833D03*
D54*
X039160Y018843D03*
D55*
X039160Y018853D03*
D56*
X039160Y018863D03*
D57*
X039165Y018873D03*
D58*
X039880Y018883D03*
D59*
X039950Y019423D03*
X039950Y019433D03*
X039950Y019443D03*
X039950Y019453D03*
X038670Y018883D03*
X038370Y019483D03*
X039620Y020633D03*
X039630Y020623D03*
D60*
X039885Y018893D03*
D61*
X039955Y019463D03*
X039955Y019473D03*
X039955Y019483D03*
X039955Y019493D03*
X039955Y019503D03*
X039975Y019773D03*
X039655Y020593D03*
X039645Y020603D03*
X039635Y020613D03*
X039165Y020933D03*
X038665Y018893D03*
D62*
X039890Y018903D03*
D63*
X039960Y019513D03*
X039960Y019523D03*
X039960Y019533D03*
X039960Y019543D03*
X039960Y019553D03*
X039960Y019563D03*
X039960Y019573D03*
X039980Y019763D03*
X039690Y020543D03*
X039680Y020553D03*
X039670Y020563D03*
X039670Y020573D03*
X039660Y020583D03*
X038380Y019473D03*
X038660Y018903D03*
D64*
X039895Y018913D03*
D65*
X039900Y018923D03*
X039900Y018933D03*
D66*
X039970Y019713D03*
X039970Y019723D03*
X039840Y020283D03*
X039840Y020293D03*
X039830Y020303D03*
X039830Y020313D03*
X039820Y020323D03*
X039820Y020333D03*
X039810Y020343D03*
X039800Y020363D03*
X039790Y020383D03*
X039780Y020403D03*
X039770Y020413D03*
X039760Y020433D03*
X039750Y020443D03*
X039750Y020453D03*
X039740Y020463D03*
X039730Y020483D03*
X039720Y020493D03*
X038390Y019463D03*
X038650Y018923D03*
D67*
X038645Y018933D03*
X038645Y018943D03*
X039845Y020273D03*
X039805Y020353D03*
X039795Y020373D03*
X039785Y020393D03*
X039765Y020423D03*
D68*
X039905Y018943D03*
D69*
X039910Y018953D03*
D70*
X038640Y018953D03*
X038400Y019453D03*
X039840Y020263D03*
D71*
X039165Y020993D03*
X039915Y018963D03*
D72*
X038635Y018963D03*
X039845Y020253D03*
X039165Y020923D03*
D73*
X039910Y018973D03*
D74*
X038635Y018973D03*
D75*
X038230Y019823D03*
X038230Y019833D03*
X038230Y019843D03*
X038230Y019853D03*
X038230Y019863D03*
X038230Y019873D03*
X038320Y020233D03*
X038330Y020253D03*
X038510Y020543D03*
X038510Y020553D03*
X038520Y020563D03*
X038550Y020593D03*
X039870Y018993D03*
D76*
X038680Y018993D03*
D77*
X038235Y019763D03*
X038235Y019773D03*
X038365Y020303D03*
X038375Y020313D03*
X038495Y020513D03*
X038605Y020633D03*
X039865Y019013D03*
X039865Y019003D03*
D78*
X038685Y019003D03*
X038685Y019013D03*
D79*
X038245Y019713D03*
X038245Y019723D03*
X038395Y020343D03*
X038405Y020353D03*
X038495Y020493D03*
X038645Y020663D03*
X039865Y019023D03*
D80*
X039870Y019033D03*
X039870Y019043D03*
X038250Y019693D03*
X038250Y019703D03*
X038420Y020363D03*
X038660Y020673D03*
X038670Y020683D03*
D81*
X038680Y019043D03*
X038680Y019033D03*
D82*
X038270Y019643D03*
X038270Y019653D03*
X038260Y019663D03*
X038440Y020383D03*
X038690Y020693D03*
X039870Y019053D03*
D83*
X038675Y019053D03*
X039165Y020873D03*
D84*
X039165Y020963D03*
X038495Y020473D03*
X038495Y020463D03*
X038275Y019633D03*
X039875Y019073D03*
X039875Y019063D03*
D85*
X039880Y019083D03*
X039880Y019093D03*
X038280Y019613D03*
X038280Y019623D03*
X038450Y020393D03*
D86*
X038670Y019083D03*
D87*
X038665Y019093D03*
X038665Y019103D03*
X039165Y020863D03*
D88*
X038660Y019123D03*
X038660Y019113D03*
D89*
X038290Y019593D03*
X038490Y020443D03*
X040040Y019883D03*
X040040Y019873D03*
X040040Y019863D03*
X040040Y019853D03*
X040040Y019843D03*
X040040Y019833D03*
X040040Y019823D03*
X040040Y019813D03*
X040040Y019803D03*
X039890Y019133D03*
X039890Y019123D03*
D90*
X039895Y019143D03*
X038295Y019583D03*
X038475Y020413D03*
X038495Y020433D03*
D91*
X038490Y020423D03*
X038300Y019573D03*
X039900Y019163D03*
X039900Y019153D03*
D92*
X038650Y019153D03*
X038650Y019163D03*
D93*
X038315Y019553D03*
X038305Y019563D03*
X039905Y019183D03*
X039905Y019173D03*
X039165Y020953D03*
D94*
X039165Y020853D03*
X038645Y019183D03*
X038645Y019173D03*
D95*
X038320Y019543D03*
X039910Y019213D03*
X039910Y019203D03*
X039910Y019193D03*
D96*
X038635Y019213D03*
X038635Y019223D03*
D97*
X038630Y019233D03*
X038630Y019243D03*
X038630Y019253D03*
D98*
X039920Y019253D03*
X039920Y019243D03*
D99*
X039925Y019263D03*
X039925Y019273D03*
X039925Y019283D03*
X038335Y019523D03*
D100*
X038340Y019513D03*
X039930Y019313D03*
X039930Y019303D03*
X039930Y019293D03*
X040000Y019793D03*
D101*
X038620Y019303D03*
X038620Y019293D03*
D102*
X038615Y019313D03*
X038615Y019323D03*
X038615Y019333D03*
X039165Y020833D03*
D103*
X039165Y020943D03*
X038345Y019503D03*
X039935Y019343D03*
X039935Y019333D03*
X039935Y019323D03*
D104*
X038610Y019343D03*
X038610Y019353D03*
X038610Y019363D03*
D105*
X039945Y019383D03*
X039945Y019393D03*
X039945Y019403D03*
X039945Y019413D03*
X039985Y019783D03*
X039615Y020643D03*
X039605Y020653D03*
X039565Y020693D03*
D106*
X038600Y019413D03*
D107*
X039230Y019423D03*
X038970Y020223D03*
D108*
X039165Y020903D03*
X038455Y019423D03*
D109*
X039255Y019433D03*
X038985Y020243D03*
D110*
X039165Y020913D03*
X039835Y020223D03*
X039875Y020113D03*
X038435Y019433D03*
D111*
X039270Y019443D03*
X039170Y020133D03*
D112*
X039090Y019603D03*
D113*
X039085Y019613D03*
X038955Y020183D03*
D114*
X039085Y019623D03*
D115*
X039085Y019633D03*
D116*
X039085Y019643D03*
D117*
X039090Y019663D03*
X039000Y020113D03*
D118*
X039000Y020093D03*
X039080Y019673D03*
D119*
X038255Y019673D03*
X038255Y019683D03*
X038425Y020373D03*
X038495Y020483D03*
D120*
X039075Y019683D03*
D121*
X039070Y019693D03*
X039000Y019793D03*
X039000Y020073D03*
X039000Y020083D03*
D122*
X039055Y019713D03*
X039065Y019703D03*
X039165Y021003D03*
D123*
X039000Y020063D03*
X039000Y020053D03*
X039050Y019733D03*
X039050Y019723D03*
D124*
X039045Y019743D03*
X039035Y019763D03*
X039025Y019773D03*
X039015Y019783D03*
X039005Y020043D03*
D125*
X039040Y019753D03*
D126*
X038230Y019783D03*
X038230Y019793D03*
X038230Y019803D03*
X038350Y020283D03*
X038360Y020293D03*
X038500Y020523D03*
X038590Y020623D03*
X039160Y020973D03*
D127*
X038575Y020613D03*
X038565Y020603D03*
X038505Y020533D03*
X038345Y020273D03*
X038335Y020263D03*
X038235Y019813D03*
D128*
X038950Y019833D03*
X038950Y019843D03*
X038950Y019853D03*
X038950Y019863D03*
D129*
X038945Y019873D03*
X038945Y019883D03*
D130*
X038305Y020203D03*
X038305Y020213D03*
X038315Y020223D03*
X038325Y020243D03*
X038295Y020183D03*
X038225Y019903D03*
X038225Y019893D03*
X038225Y019883D03*
X038525Y020573D03*
X038535Y020583D03*
D131*
X039600Y019893D03*
D132*
X038300Y020193D03*
X038290Y020173D03*
X038280Y020153D03*
X038280Y020143D03*
X038270Y020123D03*
X038260Y020093D03*
X038250Y020063D03*
X038250Y020053D03*
X038240Y020023D03*
X038240Y020013D03*
X038240Y020003D03*
X038240Y019993D03*
X038230Y019973D03*
X038230Y019963D03*
X038230Y019953D03*
X038230Y019943D03*
X038230Y019933D03*
X038230Y019923D03*
X038230Y019913D03*
D133*
X039590Y019963D03*
X039590Y019973D03*
X039590Y019983D03*
X039590Y019993D03*
X039590Y020003D03*
D134*
X039590Y020023D03*
X039590Y020033D03*
X039160Y020723D03*
D135*
X039160Y020883D03*
X039830Y020043D03*
D136*
X039840Y020053D03*
D137*
X039845Y020063D03*
X039165Y020893D03*
D138*
X039850Y020073D03*
D139*
X039860Y020083D03*
D140*
X039870Y020093D03*
X039830Y020203D03*
D141*
X039850Y020163D03*
X039860Y020143D03*
X039860Y020133D03*
X039870Y020123D03*
X039870Y020103D03*
D142*
X038995Y020103D03*
D143*
X039160Y020123D03*
D144*
X038960Y020123D03*
D145*
X038950Y020133D03*
D146*
X038950Y020143D03*
D147*
X038950Y020153D03*
D148*
X038955Y020163D03*
D149*
X038955Y020173D03*
D150*
X038960Y020193D03*
D151*
X038960Y020203D03*
D152*
X038970Y020213D03*
D153*
X039840Y020233D03*
D154*
X038975Y020233D03*
D155*
X038995Y020253D03*
X039165Y021023D03*
D156*
X039165Y020733D03*
D157*
X039165Y020743D03*
D158*
X039160Y020763D03*
D159*
X039165Y020773D03*
D160*
X039160Y020793D03*
D161*
X039160Y020813D03*
D162*
X039165Y020983D03*
D163*
X039160Y021013D03*
M02*
