G75*
%MOIN*%
%OFA0B0*%
%FSLAX24Y24*%
%IPPOS*%
%LPD*%
%AMOC8*
5,1,8,0,0,1.08239X$1,22.5*
%
%ADD10C,0.0110*%
%ADD11C,0.0050*%
%ADD12C,0.0020*%
%ADD13C,0.0060*%
%ADD14C,0.0080*%
%ADD15C,0.0220*%
%ADD16R,0.0180X0.0300*%
%ADD17R,0.0300X0.0180*%
%ADD18C,0.0004*%
%ADD19C,0.0030*%
%ADD20C,0.0100*%
D10*
X016915Y018898D02*
X016915Y019489D01*
X017210Y019489D01*
X017308Y019390D01*
X017308Y019194D01*
X017210Y019095D01*
X016915Y019095D01*
X017559Y018898D02*
X017559Y019489D01*
X017953Y019489D02*
X017953Y018898D01*
X017756Y019095D01*
X017559Y018898D01*
X018204Y018898D02*
X018204Y019489D01*
X018499Y019489D01*
X018597Y019390D01*
X018597Y019194D01*
X018499Y019095D01*
X018204Y019095D01*
X018400Y019095D02*
X018597Y018898D01*
X017408Y027648D02*
X017015Y027648D01*
X017015Y028239D01*
X017408Y028239D01*
X017211Y027944D02*
X017015Y027944D01*
X017015Y033348D02*
X017310Y033348D01*
X017408Y033447D01*
X017408Y033840D01*
X017310Y033939D01*
X017015Y033939D01*
X017015Y033348D01*
X053115Y033348D02*
X053115Y033742D01*
X053311Y033939D01*
X053508Y033742D01*
X053508Y033348D01*
X053508Y033644D02*
X053115Y033644D01*
X053115Y028239D02*
X053410Y028239D01*
X053508Y028140D01*
X053508Y028042D01*
X053410Y027944D01*
X053115Y027944D01*
X053410Y027944D02*
X053508Y027845D01*
X053508Y027747D01*
X053410Y027648D01*
X053115Y027648D01*
X053115Y028239D01*
X053213Y022539D02*
X053115Y022440D01*
X053115Y022047D01*
X053213Y021948D01*
X053410Y021948D01*
X053508Y022047D01*
X053508Y022440D02*
X053410Y022539D01*
X053213Y022539D01*
D11*
X020043Y016984D02*
X020043Y035803D01*
X050476Y035803D01*
X050476Y016984D01*
X020043Y016984D01*
X022445Y020459D02*
X023074Y020459D01*
X023074Y021577D02*
X022445Y021577D01*
X032210Y019014D02*
X032210Y018743D01*
X032390Y018743D01*
X032504Y018788D02*
X032549Y018743D01*
X032639Y018743D01*
X032684Y018788D01*
X032799Y018743D02*
X032799Y019014D01*
X032934Y019014D01*
X032979Y018968D01*
X032979Y018788D01*
X032934Y018743D01*
X032799Y018743D01*
X032684Y018968D02*
X032639Y019014D01*
X032549Y019014D01*
X032504Y018968D01*
X032504Y018788D01*
X042060Y016226D02*
X042060Y021726D01*
X047410Y021726D01*
X047410Y021276D01*
X047960Y021276D01*
X047960Y015826D01*
X046963Y015826D01*
X046906Y015827D01*
X046848Y015832D01*
X046791Y015839D01*
X046735Y015850D01*
X046679Y015863D01*
X046624Y015879D01*
X046569Y015898D01*
X044789Y016226D02*
X042060Y016226D01*
X044789Y016226D02*
X044929Y016224D01*
X045069Y016218D01*
X045208Y016208D01*
X045348Y016195D01*
X045487Y016177D01*
X045625Y016156D01*
X045763Y016130D01*
X045900Y016101D01*
X046036Y016068D01*
X046171Y016031D01*
X046305Y015991D01*
X046437Y015946D01*
X046569Y015898D01*
X046736Y022073D02*
X046916Y022073D01*
X047031Y022163D02*
X047076Y022118D01*
X047166Y022118D01*
X047211Y022163D01*
X047326Y022118D02*
X047326Y022298D01*
X047416Y022389D01*
X047506Y022298D01*
X047506Y022118D01*
X047620Y022118D02*
X047620Y022389D01*
X047755Y022389D01*
X047800Y022343D01*
X047800Y022253D01*
X047755Y022208D01*
X047620Y022208D01*
X047710Y022208D02*
X047800Y022118D01*
X047915Y022118D02*
X048050Y022118D01*
X048095Y022163D01*
X048095Y022343D01*
X048050Y022389D01*
X047915Y022389D01*
X047915Y022118D01*
X047506Y022253D02*
X047326Y022253D01*
X047211Y022343D02*
X047166Y022389D01*
X047076Y022389D01*
X047031Y022343D01*
X047031Y022163D01*
X046622Y022163D02*
X046622Y022343D01*
X046577Y022389D01*
X046442Y022389D01*
X046442Y022118D01*
X046577Y022118D01*
X046622Y022163D01*
X046327Y022163D02*
X046282Y022118D01*
X046192Y022118D01*
X046147Y022163D01*
X046192Y022253D02*
X046282Y022253D01*
X046327Y022208D01*
X046327Y022163D01*
X046192Y022253D02*
X046147Y022298D01*
X046147Y022343D01*
X046192Y022389D01*
X046282Y022389D01*
X046327Y022343D01*
D12*
X043661Y023745D02*
X043661Y023838D01*
X043661Y023745D02*
X043614Y023698D01*
X043568Y023745D01*
X043568Y023838D01*
X043514Y023815D02*
X043514Y023792D01*
X043490Y023768D01*
X043514Y023745D01*
X043514Y023722D01*
X043490Y023698D01*
X043444Y023698D01*
X043420Y023722D01*
X043370Y023722D02*
X043370Y023698D01*
X043347Y023698D01*
X043347Y023722D01*
X043370Y023722D01*
X043293Y023722D02*
X043269Y023698D01*
X043223Y023698D01*
X043199Y023722D01*
X043246Y023768D02*
X043269Y023768D01*
X043293Y023745D01*
X043293Y023722D01*
X043269Y023768D02*
X043293Y023792D01*
X043293Y023815D01*
X043269Y023838D01*
X043223Y023838D01*
X043199Y023815D01*
X043420Y023815D02*
X043444Y023838D01*
X043490Y023838D01*
X043514Y023815D01*
X043490Y023768D02*
X043467Y023768D01*
X042037Y023015D02*
X042013Y023038D01*
X041943Y023038D01*
X041943Y022898D01*
X042013Y022898D01*
X042037Y022922D01*
X042037Y023015D01*
X041889Y023038D02*
X041889Y022898D01*
X041796Y023038D01*
X041796Y022898D01*
X041742Y022922D02*
X041742Y022968D01*
X041695Y022968D01*
X041649Y022922D02*
X041672Y022898D01*
X041719Y022898D01*
X041742Y022922D01*
X041742Y023015D02*
X041719Y023038D01*
X041672Y023038D01*
X041649Y023015D01*
X041649Y022922D01*
X040702Y022898D02*
X040609Y022898D01*
X040609Y023038D01*
X040702Y023038D01*
X040656Y022968D02*
X040609Y022968D01*
X040555Y022945D02*
X040555Y022922D01*
X040532Y022898D01*
X040485Y022898D01*
X040461Y022922D01*
X040485Y022968D02*
X040532Y022968D01*
X040555Y022945D01*
X040555Y023015D02*
X040532Y023038D01*
X040485Y023038D01*
X040461Y023015D01*
X040461Y022992D01*
X040485Y022968D01*
X040408Y022898D02*
X040408Y023038D01*
X040314Y023038D02*
X040408Y022898D01*
X040314Y022898D02*
X040314Y023038D01*
X040260Y023038D02*
X040167Y023038D01*
X040167Y022898D01*
X040260Y022898D01*
X040214Y022968D02*
X040167Y022968D01*
X040113Y022945D02*
X040113Y022922D01*
X040090Y022898D01*
X040043Y022898D01*
X040020Y022922D01*
X040043Y022968D02*
X040090Y022968D01*
X040113Y022945D01*
X040113Y023015D02*
X040090Y023038D01*
X040043Y023038D01*
X040020Y023015D01*
X040020Y022992D01*
X040043Y022968D01*
X039966Y022875D02*
X039872Y022875D01*
X039772Y022898D02*
X039772Y023038D01*
X039818Y023038D02*
X039725Y023038D01*
X039671Y022992D02*
X039671Y022898D01*
X039671Y022968D02*
X039578Y022968D01*
X039578Y022992D02*
X039624Y023038D01*
X039671Y022992D01*
X039578Y022992D02*
X039578Y022898D01*
X039524Y022922D02*
X039500Y022898D01*
X039430Y022898D01*
X039430Y023038D01*
X039500Y023038D01*
X039524Y023015D01*
X039524Y022992D01*
X039500Y022968D01*
X039430Y022968D01*
X039376Y022945D02*
X039376Y023038D01*
X039376Y022945D02*
X039330Y022898D01*
X039283Y022945D01*
X039283Y023038D01*
X039500Y022968D02*
X039524Y022945D01*
X039524Y022922D01*
X038358Y022898D02*
X038264Y022898D01*
X038264Y023038D01*
X038210Y023015D02*
X038210Y022992D01*
X038187Y022968D01*
X038117Y022968D01*
X038117Y022898D02*
X038187Y022898D01*
X038210Y022922D01*
X038210Y022945D01*
X038187Y022968D01*
X038210Y023015D02*
X038187Y023038D01*
X038117Y023038D01*
X038117Y022898D01*
X038063Y022875D02*
X037970Y022875D01*
X037916Y022922D02*
X037916Y023015D01*
X037892Y023038D01*
X037822Y023038D01*
X037822Y022898D01*
X037892Y022898D01*
X037916Y022922D01*
X037768Y022922D02*
X037745Y022898D01*
X037698Y022898D01*
X037675Y022922D01*
X037675Y023015D01*
X037698Y023038D01*
X037745Y023038D01*
X037768Y023015D01*
X037621Y022898D02*
X037528Y022898D01*
X037528Y023038D01*
X045089Y018878D02*
X045089Y018854D01*
X045112Y018831D01*
X045159Y018831D01*
X045182Y018808D01*
X045182Y018784D01*
X045159Y018761D01*
X045112Y018761D01*
X045089Y018784D01*
X045089Y018878D02*
X045112Y018901D01*
X045159Y018901D01*
X045182Y018878D01*
X045236Y018901D02*
X045306Y018901D01*
X045329Y018878D01*
X045329Y018784D01*
X045306Y018761D01*
X045236Y018761D01*
X045236Y018901D01*
X045383Y018737D02*
X045477Y018737D01*
X045531Y018784D02*
X045554Y018761D01*
X045601Y018761D01*
X045624Y018784D01*
X045678Y018784D02*
X045701Y018761D01*
X045748Y018761D01*
X045771Y018784D01*
X045771Y018808D01*
X045748Y018831D01*
X045701Y018831D01*
X045678Y018854D01*
X045678Y018878D01*
X045701Y018901D01*
X045748Y018901D01*
X045771Y018878D01*
X045624Y018878D02*
X045601Y018901D01*
X045554Y018901D01*
X045531Y018878D01*
X045531Y018784D01*
X049100Y019870D02*
X049147Y019823D01*
X049193Y019870D01*
X049193Y019963D01*
X049247Y019963D02*
X049317Y019963D01*
X049341Y019940D01*
X049341Y019917D01*
X049317Y019893D01*
X049247Y019893D01*
X049247Y019823D02*
X049317Y019823D01*
X049341Y019847D01*
X049341Y019870D01*
X049317Y019893D01*
X049395Y019893D02*
X049488Y019893D01*
X049488Y019917D02*
X049488Y019823D01*
X049395Y019823D02*
X049395Y019917D01*
X049441Y019963D01*
X049488Y019917D01*
X049542Y019963D02*
X049635Y019963D01*
X049589Y019963D02*
X049589Y019823D01*
X049247Y019823D02*
X049247Y019963D01*
X049100Y019963D02*
X049100Y019870D01*
X050502Y018528D02*
X050642Y018528D01*
X050502Y018435D01*
X050642Y018435D01*
X050642Y018383D02*
X050642Y018336D01*
X050642Y018360D02*
X050502Y018360D01*
X050502Y018383D02*
X050502Y018336D01*
X050665Y018282D02*
X050665Y018189D01*
X050619Y018135D02*
X050642Y018112D01*
X050642Y018065D01*
X050619Y018042D01*
X050572Y018065D02*
X050572Y018112D01*
X050595Y018135D01*
X050619Y018135D01*
X050572Y018065D02*
X050549Y018042D01*
X050525Y018042D01*
X050502Y018065D01*
X050502Y018112D01*
X050525Y018135D01*
X050502Y017988D02*
X050619Y017988D01*
X050642Y017964D01*
X050642Y017918D01*
X050619Y017894D01*
X050502Y017894D01*
X050525Y017840D02*
X050549Y017840D01*
X050572Y017817D01*
X050572Y017747D01*
X050595Y017693D02*
X050502Y017693D01*
X050502Y017747D02*
X050502Y017817D01*
X050525Y017840D01*
X050572Y017817D02*
X050595Y017840D01*
X050619Y017840D01*
X050642Y017817D01*
X050642Y017747D01*
X050502Y017747D01*
X050595Y017693D02*
X050642Y017646D01*
X050595Y017600D01*
X050502Y017600D01*
X050821Y022362D02*
X050914Y022362D01*
X050968Y022409D02*
X050992Y022386D01*
X051038Y022386D01*
X051062Y022409D01*
X051062Y022433D01*
X051038Y022456D01*
X050992Y022456D01*
X050968Y022479D01*
X050968Y022503D01*
X050992Y022526D01*
X051038Y022526D01*
X051062Y022503D01*
X051115Y022526D02*
X051209Y022526D01*
X051162Y022526D02*
X051162Y022386D01*
X051263Y022386D02*
X051263Y022479D01*
X051310Y022526D01*
X051356Y022479D01*
X051356Y022386D01*
X051356Y022456D02*
X051263Y022456D01*
X051410Y022526D02*
X051504Y022526D01*
X051457Y022526D02*
X051457Y022386D01*
X050767Y022526D02*
X050674Y022526D01*
X050720Y022526D02*
X050720Y022386D01*
X050573Y022386D02*
X050573Y022526D01*
X050526Y022526D02*
X050620Y022526D01*
X050472Y022479D02*
X050472Y022386D01*
X050472Y022456D02*
X050379Y022456D01*
X050379Y022479D02*
X050426Y022526D01*
X050472Y022479D01*
X050379Y022479D02*
X050379Y022386D01*
X050325Y022409D02*
X050302Y022386D01*
X050232Y022386D01*
X050232Y022526D01*
X050302Y022526D01*
X050325Y022503D01*
X050325Y022479D01*
X050302Y022456D01*
X050232Y022456D01*
X050302Y022456D02*
X050325Y022433D01*
X050325Y022409D01*
X046908Y027448D02*
X046908Y027588D01*
X046814Y027588D02*
X046814Y027448D01*
X046760Y027448D02*
X046667Y027448D01*
X046667Y027588D01*
X046760Y027588D01*
X046814Y027588D02*
X046908Y027448D01*
X046714Y027518D02*
X046667Y027518D01*
X046613Y027425D02*
X046520Y027425D01*
X046466Y027472D02*
X046442Y027448D01*
X046396Y027448D01*
X046372Y027472D01*
X046318Y027495D02*
X046318Y027588D01*
X046372Y027565D02*
X046396Y027588D01*
X046442Y027588D01*
X046466Y027565D01*
X046466Y027542D01*
X046442Y027518D01*
X046466Y027495D01*
X046466Y027472D01*
X046442Y027518D02*
X046419Y027518D01*
X046318Y027495D02*
X046272Y027448D01*
X046225Y027495D01*
X046225Y027588D01*
X046171Y027565D02*
X046171Y027542D01*
X046148Y027518D01*
X046171Y027495D01*
X046171Y027472D01*
X046148Y027448D01*
X046101Y027448D01*
X046078Y027472D01*
X046124Y027518D02*
X046148Y027518D01*
X046171Y027565D02*
X046148Y027588D01*
X046101Y027588D01*
X046078Y027565D01*
X023765Y026963D02*
X023671Y026963D01*
X023671Y026823D01*
X023671Y026893D02*
X023718Y026893D01*
X023617Y026963D02*
X023524Y026963D01*
X023524Y026823D01*
X023470Y026847D02*
X023470Y026940D01*
X023447Y026963D01*
X023400Y026963D01*
X023377Y026940D01*
X023377Y026847D01*
X023400Y026823D01*
X023447Y026823D01*
X023470Y026847D01*
X023524Y026893D02*
X023571Y026893D01*
X023323Y026963D02*
X023229Y026823D01*
X023175Y026823D02*
X023175Y026963D01*
X023082Y026963D02*
X023175Y026823D01*
X023082Y026823D02*
X023082Y026963D01*
X023028Y026940D02*
X023005Y026963D01*
X022958Y026963D01*
X022935Y026940D01*
X022935Y026847D01*
X022958Y026823D01*
X023005Y026823D01*
X023028Y026847D01*
X023028Y026940D01*
X022881Y026800D02*
X022787Y026800D01*
X022733Y026823D02*
X022687Y026870D01*
X022710Y026870D02*
X022640Y026870D01*
X022640Y026823D02*
X022640Y026963D01*
X022710Y026963D01*
X022733Y026940D01*
X022733Y026893D01*
X022710Y026870D01*
X022586Y026823D02*
X022586Y026963D01*
X022493Y026963D02*
X022493Y026823D01*
X022539Y026870D01*
X022586Y026823D01*
X022439Y026893D02*
X022415Y026870D01*
X022345Y026870D01*
X022345Y026823D02*
X022345Y026963D01*
X022415Y026963D01*
X022439Y026940D01*
X022439Y026893D01*
X022851Y027323D02*
X022828Y027347D01*
X022851Y027323D02*
X022898Y027323D01*
X022921Y027347D01*
X022921Y027370D01*
X022898Y027393D01*
X022851Y027393D01*
X022828Y027417D01*
X022828Y027440D01*
X022851Y027463D01*
X022898Y027463D01*
X022921Y027440D01*
X022975Y027463D02*
X022975Y027323D01*
X023022Y027370D01*
X023068Y027323D01*
X023068Y027463D01*
X023122Y027300D02*
X023216Y027300D01*
X023270Y027323D02*
X023270Y027463D01*
X023340Y027463D01*
X023363Y027440D01*
X023363Y027393D01*
X023340Y027370D01*
X023270Y027370D01*
X023417Y027323D02*
X023464Y027370D01*
X023510Y027323D01*
X023510Y027463D01*
X023564Y027463D02*
X023634Y027463D01*
X023658Y027440D01*
X023658Y027393D01*
X023634Y027370D01*
X023564Y027370D01*
X023564Y027323D02*
X023564Y027463D01*
X023611Y027370D02*
X023658Y027323D01*
X023417Y027323D02*
X023417Y027463D01*
X020033Y024815D02*
X020009Y024838D01*
X019963Y024838D01*
X019939Y024815D01*
X019939Y024722D01*
X019963Y024698D01*
X020009Y024698D01*
X020033Y024722D01*
X019885Y024722D02*
X019862Y024698D01*
X019815Y024698D01*
X019792Y024722D01*
X019792Y024815D01*
X019815Y024838D01*
X019862Y024838D01*
X019885Y024815D01*
X019738Y024838D02*
X019738Y024745D01*
X019691Y024698D01*
X019645Y024745D01*
X019645Y024838D01*
X019591Y024815D02*
X019591Y024792D01*
X019567Y024768D01*
X019497Y024768D01*
X019443Y024745D02*
X019443Y024722D01*
X019420Y024698D01*
X019373Y024698D01*
X019350Y024722D01*
X019373Y024768D02*
X019420Y024768D01*
X019443Y024745D01*
X019443Y024815D02*
X019420Y024838D01*
X019373Y024838D01*
X019350Y024815D01*
X019350Y024792D01*
X019373Y024768D01*
X019296Y024722D02*
X019296Y024838D01*
X019203Y024838D02*
X019203Y024722D01*
X019226Y024698D01*
X019273Y024698D01*
X019296Y024722D01*
X019497Y024698D02*
X019567Y024698D01*
X019591Y024722D01*
X019591Y024745D01*
X019567Y024768D01*
X019591Y024815D02*
X019567Y024838D01*
X019497Y024838D01*
X019497Y024698D01*
X022537Y021963D02*
X022537Y021870D01*
X022584Y021823D01*
X022631Y021870D01*
X022631Y021963D01*
X022685Y021963D02*
X022755Y021963D01*
X022778Y021940D01*
X022778Y021917D01*
X022755Y021893D01*
X022685Y021893D01*
X022685Y021823D02*
X022685Y021963D01*
X022755Y021893D02*
X022778Y021870D01*
X022778Y021847D01*
X022755Y021823D01*
X022685Y021823D01*
X022832Y021847D02*
X022855Y021823D01*
X022902Y021823D01*
X022925Y021847D01*
X022925Y021963D01*
X022979Y021940D02*
X022979Y021917D01*
X023003Y021893D01*
X023049Y021893D01*
X023073Y021870D01*
X023073Y021847D01*
X023049Y021823D01*
X023003Y021823D01*
X022979Y021847D01*
X022979Y021940D02*
X023003Y021963D01*
X023049Y021963D01*
X023073Y021940D01*
X022832Y021963D02*
X022832Y021847D01*
D13*
X031082Y025223D02*
X031082Y025450D01*
X031195Y025563D01*
X031309Y025450D01*
X031309Y025223D01*
X031450Y025280D02*
X031450Y025336D01*
X031507Y025393D01*
X031450Y025450D01*
X031450Y025507D01*
X031507Y025563D01*
X031620Y025563D01*
X031677Y025507D01*
X031804Y025507D02*
X031804Y025563D01*
X031861Y025563D01*
X031861Y025507D01*
X031804Y025507D01*
X032003Y025507D02*
X032059Y025563D01*
X032173Y025563D01*
X032230Y025507D01*
X032116Y025393D02*
X032059Y025393D01*
X032003Y025450D01*
X032003Y025507D01*
X032059Y025393D02*
X032003Y025336D01*
X032003Y025280D01*
X032059Y025223D01*
X032173Y025223D01*
X032230Y025280D01*
X031677Y025280D02*
X031620Y025223D01*
X031507Y025223D01*
X031450Y025280D01*
X031507Y025393D02*
X031564Y025393D01*
X033090Y025363D02*
X033090Y025193D01*
X033146Y025136D01*
X033373Y025136D01*
X033430Y025193D01*
X033430Y025363D01*
X033090Y025363D01*
X033090Y024995D02*
X033316Y024995D01*
X033430Y024882D01*
X033316Y024768D01*
X033090Y024768D01*
X033260Y024768D02*
X033260Y024995D01*
X033430Y024627D02*
X033430Y024400D01*
X033430Y024513D02*
X033090Y024513D01*
X033090Y024258D02*
X033316Y024258D01*
X033430Y024145D01*
X033316Y024032D01*
X033090Y024032D01*
X033090Y023890D02*
X033090Y023663D01*
X033090Y023777D02*
X033430Y023777D01*
X033316Y023890D01*
X033260Y024032D02*
X033260Y024258D01*
X034090Y024258D02*
X034316Y024258D01*
X034430Y024145D01*
X034316Y024032D01*
X034090Y024032D01*
X034090Y023890D02*
X034316Y023663D01*
X034373Y023663D01*
X034430Y023720D01*
X034430Y023833D01*
X034373Y023890D01*
X034260Y024032D02*
X034260Y024258D01*
X034430Y024400D02*
X034430Y024627D01*
X034430Y024513D02*
X034090Y024513D01*
X034090Y024768D02*
X034316Y024768D01*
X034430Y024882D01*
X034316Y024995D01*
X034090Y024995D01*
X034146Y025136D02*
X034373Y025136D01*
X034430Y025193D01*
X034430Y025363D01*
X034090Y025363D01*
X034090Y025193D01*
X034146Y025136D01*
X034260Y024995D02*
X034260Y024768D01*
X035090Y024825D02*
X035090Y024995D01*
X035430Y024995D01*
X035430Y024825D01*
X035373Y024768D01*
X035146Y024768D01*
X035090Y024825D01*
X035090Y024627D02*
X035316Y024627D01*
X035430Y024513D01*
X035316Y024400D01*
X035090Y024400D01*
X035260Y024400D02*
X035260Y024627D01*
X035203Y025136D02*
X035146Y025136D01*
X035090Y025193D01*
X035090Y025307D01*
X035146Y025363D01*
X035260Y025307D02*
X035316Y025363D01*
X035373Y025363D01*
X035430Y025307D01*
X035430Y025193D01*
X035373Y025136D01*
X035260Y025193D02*
X035203Y025136D01*
X035260Y025193D02*
X035260Y025307D01*
X036090Y025307D02*
X036146Y025363D01*
X036090Y025307D02*
X036090Y025193D01*
X036146Y025136D01*
X036203Y025136D01*
X036260Y025193D01*
X036260Y025307D01*
X036316Y025363D01*
X036373Y025363D01*
X036430Y025307D01*
X036430Y025193D01*
X036373Y025136D01*
X036373Y024995D02*
X036146Y024995D01*
X036090Y024938D01*
X036090Y024825D01*
X036146Y024768D01*
X036090Y024627D02*
X036090Y024400D01*
X036090Y024627D02*
X036430Y024627D01*
X036373Y024768D02*
X036430Y024825D01*
X036430Y024938D01*
X036373Y024995D01*
X037090Y024938D02*
X037090Y024825D01*
X037146Y024768D01*
X037373Y024768D01*
X037430Y024825D01*
X037430Y024938D01*
X037373Y024995D01*
X037146Y024995D01*
X037090Y024938D01*
X037090Y025136D02*
X037430Y025136D01*
X037316Y025250D01*
X037430Y025363D01*
X037090Y025363D01*
X038090Y025307D02*
X038146Y025363D01*
X038090Y025307D02*
X038090Y025193D01*
X038146Y025136D01*
X038203Y025136D01*
X038260Y025193D01*
X038260Y025307D01*
X038316Y025363D01*
X038373Y025363D01*
X038430Y025307D01*
X038430Y025193D01*
X038373Y025136D01*
X038373Y024995D02*
X038146Y024995D01*
X038090Y024938D01*
X038090Y024825D01*
X038146Y024768D01*
X038090Y024627D02*
X038430Y024627D01*
X038373Y024768D02*
X038430Y024825D01*
X038430Y024938D01*
X038373Y024995D01*
X038203Y024627D02*
X038430Y024400D01*
X038260Y024570D02*
X038090Y024400D01*
X037430Y024457D02*
X037430Y024570D01*
X037373Y024627D01*
X037316Y024627D01*
X037260Y024570D01*
X037260Y024457D01*
X037203Y024400D01*
X037146Y024400D01*
X037090Y024457D01*
X037090Y024570D01*
X037146Y024627D01*
X037373Y024400D02*
X037430Y024457D01*
X037430Y024258D02*
X037430Y024145D01*
X037430Y024202D02*
X037090Y024202D01*
X037090Y024258D02*
X037090Y024145D01*
X039090Y024211D02*
X039146Y024154D01*
X039373Y024154D01*
X039430Y024211D01*
X039430Y024324D01*
X039373Y024381D01*
X039146Y024381D01*
X039090Y024324D01*
X039090Y024211D01*
X039146Y024523D02*
X039090Y024579D01*
X039090Y024693D01*
X039146Y024749D01*
X039260Y024693D02*
X039260Y024579D01*
X039203Y024523D01*
X039146Y024523D01*
X039260Y024693D02*
X039316Y024749D01*
X039373Y024749D01*
X039430Y024693D01*
X039430Y024579D01*
X039373Y024523D01*
X039430Y024882D02*
X039430Y024995D01*
X039430Y024938D02*
X039090Y024938D01*
X039090Y024882D02*
X039090Y024995D01*
X039090Y025136D02*
X039430Y025136D01*
X039316Y025250D01*
X039430Y025363D01*
X039090Y025363D01*
X040090Y025363D02*
X040090Y025193D01*
X040146Y025136D01*
X040373Y025136D01*
X040430Y025193D01*
X040430Y025363D01*
X040090Y025363D01*
X040090Y024995D02*
X040316Y024995D01*
X040430Y024882D01*
X040316Y024768D01*
X040090Y024768D01*
X040260Y024768D02*
X040260Y024995D01*
X040430Y024627D02*
X040430Y024400D01*
X040430Y024513D02*
X040090Y024513D01*
X040090Y024258D02*
X040316Y024258D01*
X040430Y024145D01*
X040316Y024032D01*
X040090Y024032D01*
X040146Y023890D02*
X040090Y023833D01*
X040090Y023720D01*
X040146Y023663D01*
X040203Y023663D01*
X040260Y023720D01*
X040260Y023777D01*
X040260Y023720D02*
X040316Y023663D01*
X040373Y023663D01*
X040430Y023720D01*
X040430Y023833D01*
X040373Y023890D01*
X040260Y024032D02*
X040260Y024258D01*
X041090Y024258D02*
X041316Y024258D01*
X041430Y024145D01*
X041316Y024032D01*
X041090Y024032D01*
X041260Y024032D02*
X041260Y024258D01*
X041430Y024400D02*
X041430Y024627D01*
X041430Y024513D02*
X041090Y024513D01*
X041090Y024768D02*
X041316Y024768D01*
X041430Y024882D01*
X041316Y024995D01*
X041090Y024995D01*
X041146Y025136D02*
X041373Y025136D01*
X041430Y025193D01*
X041430Y025363D01*
X041090Y025363D01*
X041090Y025193D01*
X041146Y025136D01*
X041260Y024995D02*
X041260Y024768D01*
X042090Y024768D02*
X042430Y024768D01*
X042430Y024627D02*
X042430Y024457D01*
X042373Y024400D01*
X042146Y024400D01*
X042090Y024457D01*
X042090Y024627D01*
X042430Y024627D01*
X042430Y024995D02*
X042090Y024768D01*
X042090Y024995D02*
X042430Y024995D01*
X042373Y025136D02*
X042430Y025193D01*
X042430Y025307D01*
X042373Y025363D01*
X042146Y025363D01*
X042090Y025307D01*
X042090Y025193D01*
X042146Y025136D01*
X042260Y025136D01*
X042260Y025250D01*
X041260Y023890D02*
X041260Y023663D01*
X041430Y023720D02*
X041260Y023890D01*
X041090Y023720D02*
X041430Y023720D01*
X048230Y020802D02*
X048230Y020482D01*
X048450Y020482D01*
X049130Y020482D02*
X049350Y020482D01*
X049350Y020802D01*
X049695Y017386D02*
X049695Y017066D01*
X049475Y017066D01*
X048795Y017066D02*
X048575Y017066D01*
X048575Y017386D01*
X034090Y023663D02*
X034090Y023890D01*
D14*
X034010Y025893D02*
X033760Y026143D01*
X033760Y026643D01*
X033510Y026893D01*
X033010Y026893D01*
X032760Y026643D01*
X032760Y026143D01*
X032510Y025893D01*
X032010Y025893D01*
X031760Y026143D01*
X031760Y026643D01*
X032010Y026893D01*
X032510Y026893D01*
X032760Y026643D01*
X032760Y026143D01*
X033010Y025893D01*
X033510Y025893D01*
X033760Y026143D01*
X033760Y026643D01*
X034010Y026893D01*
X034510Y026893D01*
X034760Y026643D01*
X034760Y026143D01*
X035010Y025893D01*
X035510Y025893D01*
X035760Y026143D01*
X036010Y025893D01*
X036510Y025893D01*
X036760Y026143D01*
X037010Y025893D01*
X037510Y025893D01*
X037760Y026143D01*
X037760Y026643D01*
X037510Y026893D01*
X037010Y026893D01*
X036760Y026643D01*
X036760Y026143D01*
X036760Y026643D01*
X036510Y026893D01*
X036010Y026893D01*
X035760Y026643D01*
X035760Y026143D01*
X035760Y026643D01*
X035510Y026893D01*
X035010Y026893D01*
X034760Y026643D01*
X034760Y026143D01*
X034510Y025893D01*
X034010Y025893D01*
X037760Y026143D02*
X038010Y025893D01*
X038510Y025893D01*
X038760Y026143D01*
X039010Y025893D01*
X039510Y025893D01*
X039760Y026143D01*
X039760Y026643D01*
X039510Y026893D01*
X039010Y026893D01*
X038760Y026643D01*
X038760Y026143D01*
X038760Y026643D01*
X038510Y026893D01*
X038010Y026893D01*
X037760Y026643D01*
X037760Y026143D01*
X039760Y026143D02*
X040010Y025893D01*
X040510Y025893D01*
X040760Y026143D01*
X041010Y025893D01*
X041510Y025893D01*
X041760Y026143D01*
X042010Y025893D01*
X042510Y025893D01*
X042760Y026143D01*
X042760Y026643D01*
X042510Y026893D01*
X042010Y026893D01*
X041760Y026643D01*
X041760Y026143D01*
X041760Y026643D01*
X041510Y026893D01*
X041010Y026893D01*
X040760Y026643D01*
X040760Y026143D01*
X040760Y026643D01*
X040510Y026893D01*
X040010Y026893D01*
X039760Y026643D01*
X039760Y026143D01*
X045190Y026038D02*
X045190Y026249D01*
X045340Y026703D02*
X045679Y026703D01*
X045679Y025583D02*
X045340Y025583D01*
X051660Y025905D02*
X051660Y026893D01*
X052053Y027393D02*
X053266Y027393D01*
X053660Y026881D02*
X053660Y025905D01*
X053266Y025393D02*
X052053Y025393D01*
X052160Y026393D02*
X052162Y026437D01*
X052168Y026481D01*
X052178Y026524D01*
X052191Y026566D01*
X052208Y026607D01*
X052229Y026646D01*
X052253Y026683D01*
X052280Y026718D01*
X052310Y026750D01*
X052343Y026780D01*
X052379Y026806D01*
X052416Y026830D01*
X052456Y026849D01*
X052497Y026866D01*
X052540Y026878D01*
X052583Y026887D01*
X052627Y026892D01*
X052671Y026893D01*
X052715Y026890D01*
X052759Y026883D01*
X052802Y026872D01*
X052844Y026858D01*
X052884Y026840D01*
X052923Y026818D01*
X052959Y026794D01*
X052993Y026766D01*
X053025Y026735D01*
X053054Y026701D01*
X053080Y026665D01*
X053102Y026627D01*
X053121Y026587D01*
X053136Y026545D01*
X053148Y026503D01*
X053156Y026459D01*
X053160Y026415D01*
X053160Y026371D01*
X053156Y026327D01*
X053148Y026283D01*
X053136Y026241D01*
X053121Y026199D01*
X053102Y026159D01*
X053080Y026121D01*
X053054Y026085D01*
X053025Y026051D01*
X052993Y026020D01*
X052959Y025992D01*
X052923Y025968D01*
X052884Y025946D01*
X052844Y025928D01*
X052802Y025914D01*
X052759Y025903D01*
X052715Y025896D01*
X052671Y025893D01*
X052627Y025894D01*
X052583Y025899D01*
X052540Y025908D01*
X052497Y025920D01*
X052456Y025937D01*
X052416Y025956D01*
X052379Y025980D01*
X052343Y026006D01*
X052310Y026036D01*
X052280Y026068D01*
X052253Y026103D01*
X052229Y026140D01*
X052208Y026179D01*
X052191Y026220D01*
X052178Y026262D01*
X052168Y026305D01*
X052162Y026349D01*
X052160Y026393D01*
X052053Y021693D02*
X053266Y021693D01*
X053660Y021181D02*
X053660Y020205D01*
X053266Y019693D02*
X052053Y019693D01*
X051660Y020205D02*
X051660Y021193D01*
X052160Y020693D02*
X052162Y020737D01*
X052168Y020781D01*
X052178Y020824D01*
X052191Y020866D01*
X052208Y020907D01*
X052229Y020946D01*
X052253Y020983D01*
X052280Y021018D01*
X052310Y021050D01*
X052343Y021080D01*
X052379Y021106D01*
X052416Y021130D01*
X052456Y021149D01*
X052497Y021166D01*
X052540Y021178D01*
X052583Y021187D01*
X052627Y021192D01*
X052671Y021193D01*
X052715Y021190D01*
X052759Y021183D01*
X052802Y021172D01*
X052844Y021158D01*
X052884Y021140D01*
X052923Y021118D01*
X052959Y021094D01*
X052993Y021066D01*
X053025Y021035D01*
X053054Y021001D01*
X053080Y020965D01*
X053102Y020927D01*
X053121Y020887D01*
X053136Y020845D01*
X053148Y020803D01*
X053156Y020759D01*
X053160Y020715D01*
X053160Y020671D01*
X053156Y020627D01*
X053148Y020583D01*
X053136Y020541D01*
X053121Y020499D01*
X053102Y020459D01*
X053080Y020421D01*
X053054Y020385D01*
X053025Y020351D01*
X052993Y020320D01*
X052959Y020292D01*
X052923Y020268D01*
X052884Y020246D01*
X052844Y020228D01*
X052802Y020214D01*
X052759Y020203D01*
X052715Y020196D01*
X052671Y020193D01*
X052627Y020194D01*
X052583Y020199D01*
X052540Y020208D01*
X052497Y020220D01*
X052456Y020237D01*
X052416Y020256D01*
X052379Y020280D01*
X052343Y020306D01*
X052310Y020336D01*
X052280Y020368D01*
X052253Y020403D01*
X052229Y020440D01*
X052208Y020479D01*
X052191Y020520D01*
X052178Y020562D01*
X052168Y020605D01*
X052162Y020649D01*
X052160Y020693D01*
X051070Y019312D02*
X051070Y018974D01*
X050615Y018824D02*
X050404Y018824D01*
X049950Y018974D02*
X049950Y019312D01*
X038330Y019189D02*
X032189Y019189D01*
X032189Y019464D01*
X032307Y019464D01*
X032307Y019582D01*
X038212Y019582D01*
X038330Y019582D01*
X038330Y019740D01*
X038212Y019582D02*
X038212Y019464D01*
X038330Y019464D01*
X038330Y019189D01*
X037011Y018378D02*
X037011Y017984D01*
X037011Y018378D02*
X036539Y018378D01*
X037011Y016803D02*
X037011Y016645D01*
X036893Y016645D01*
X033626Y016645D01*
X033626Y016527D01*
X033508Y016527D01*
X033508Y016252D01*
X037011Y016252D01*
X037011Y016527D01*
X036893Y016527D01*
X036893Y016645D01*
X034256Y016527D02*
X034098Y016527D01*
X034177Y016370D01*
X034256Y016527D01*
X034228Y016472D02*
X034126Y016472D01*
X034165Y016393D02*
X034189Y016393D01*
X033626Y016645D02*
X033508Y016645D01*
X033508Y016803D01*
X033508Y017984D02*
X033508Y018378D01*
X033980Y018378D01*
X033094Y019307D02*
X033173Y019464D01*
X033015Y019464D01*
X033094Y019307D01*
X033059Y019376D02*
X033129Y019376D01*
X033168Y019455D02*
X033020Y019455D01*
X032307Y019582D02*
X032189Y019582D01*
X032189Y019740D01*
X032189Y020921D02*
X032189Y021315D01*
X032858Y021315D01*
X029468Y021950D02*
X029468Y022462D01*
X028051Y022462D02*
X028051Y021950D01*
X026275Y023460D02*
X025760Y022945D01*
X025648Y023056D01*
X025648Y022332D02*
X023198Y024782D01*
X023198Y025005D01*
X025648Y027454D01*
X025871Y027454D01*
X028321Y025005D01*
X028321Y024782D01*
X025871Y022332D01*
X025648Y022332D01*
X027193Y024378D02*
X027708Y024893D01*
X027193Y025408D01*
X026275Y026327D02*
X025760Y026842D01*
X025244Y026327D01*
X023950Y025033D02*
X023950Y024754D01*
X019635Y022568D02*
X019135Y022568D01*
X019135Y021968D02*
X019635Y021968D01*
X018860Y021181D02*
X018860Y020193D01*
X018466Y019693D02*
X017253Y019693D01*
X016860Y020205D02*
X016860Y021181D01*
X017253Y021693D02*
X018466Y021693D01*
X017360Y020693D02*
X017362Y020737D01*
X017368Y020781D01*
X017378Y020824D01*
X017391Y020866D01*
X017408Y020907D01*
X017429Y020946D01*
X017453Y020983D01*
X017480Y021018D01*
X017510Y021050D01*
X017543Y021080D01*
X017579Y021106D01*
X017616Y021130D01*
X017656Y021149D01*
X017697Y021166D01*
X017740Y021178D01*
X017783Y021187D01*
X017827Y021192D01*
X017871Y021193D01*
X017915Y021190D01*
X017959Y021183D01*
X018002Y021172D01*
X018044Y021158D01*
X018084Y021140D01*
X018123Y021118D01*
X018159Y021094D01*
X018193Y021066D01*
X018225Y021035D01*
X018254Y021001D01*
X018280Y020965D01*
X018302Y020927D01*
X018321Y020887D01*
X018336Y020845D01*
X018348Y020803D01*
X018356Y020759D01*
X018360Y020715D01*
X018360Y020671D01*
X018356Y020627D01*
X018348Y020583D01*
X018336Y020541D01*
X018321Y020499D01*
X018302Y020459D01*
X018280Y020421D01*
X018254Y020385D01*
X018225Y020351D01*
X018193Y020320D01*
X018159Y020292D01*
X018123Y020268D01*
X018084Y020246D01*
X018044Y020228D01*
X018002Y020214D01*
X017959Y020203D01*
X017915Y020196D01*
X017871Y020193D01*
X017827Y020194D01*
X017783Y020199D01*
X017740Y020208D01*
X017697Y020220D01*
X017656Y020237D01*
X017616Y020256D01*
X017579Y020280D01*
X017543Y020306D01*
X017510Y020336D01*
X017480Y020368D01*
X017453Y020403D01*
X017429Y020440D01*
X017408Y020479D01*
X017391Y020520D01*
X017378Y020562D01*
X017368Y020605D01*
X017362Y020649D01*
X017360Y020693D01*
X017253Y025393D02*
X018466Y025393D01*
X018860Y025893D02*
X018860Y026881D01*
X018466Y027393D02*
X017253Y027393D01*
X016860Y026881D02*
X016860Y025905D01*
X017360Y026393D02*
X017362Y026437D01*
X017368Y026481D01*
X017378Y026524D01*
X017391Y026566D01*
X017408Y026607D01*
X017429Y026646D01*
X017453Y026683D01*
X017480Y026718D01*
X017510Y026750D01*
X017543Y026780D01*
X017579Y026806D01*
X017616Y026830D01*
X017656Y026849D01*
X017697Y026866D01*
X017740Y026878D01*
X017783Y026887D01*
X017827Y026892D01*
X017871Y026893D01*
X017915Y026890D01*
X017959Y026883D01*
X018002Y026872D01*
X018044Y026858D01*
X018084Y026840D01*
X018123Y026818D01*
X018159Y026794D01*
X018193Y026766D01*
X018225Y026735D01*
X018254Y026701D01*
X018280Y026665D01*
X018302Y026627D01*
X018321Y026587D01*
X018336Y026545D01*
X018348Y026503D01*
X018356Y026459D01*
X018360Y026415D01*
X018360Y026371D01*
X018356Y026327D01*
X018348Y026283D01*
X018336Y026241D01*
X018321Y026199D01*
X018302Y026159D01*
X018280Y026121D01*
X018254Y026085D01*
X018225Y026051D01*
X018193Y026020D01*
X018159Y025992D01*
X018123Y025968D01*
X018084Y025946D01*
X018044Y025928D01*
X018002Y025914D01*
X017959Y025903D01*
X017915Y025896D01*
X017871Y025893D01*
X017827Y025894D01*
X017783Y025899D01*
X017740Y025908D01*
X017697Y025920D01*
X017656Y025937D01*
X017616Y025956D01*
X017579Y025980D01*
X017543Y026006D01*
X017510Y026036D01*
X017480Y026068D01*
X017453Y026103D01*
X017429Y026140D01*
X017408Y026179D01*
X017391Y026220D01*
X017378Y026262D01*
X017368Y026305D01*
X017362Y026349D01*
X017360Y026393D01*
X017253Y031093D02*
X018466Y031093D01*
X018860Y031605D02*
X018860Y032581D01*
X018466Y033093D02*
X017253Y033093D01*
X016860Y032593D02*
X016860Y031605D01*
X017360Y032093D02*
X017362Y032137D01*
X017368Y032181D01*
X017378Y032224D01*
X017391Y032266D01*
X017408Y032307D01*
X017429Y032346D01*
X017453Y032383D01*
X017480Y032418D01*
X017510Y032450D01*
X017543Y032480D01*
X017579Y032506D01*
X017616Y032530D01*
X017656Y032549D01*
X017697Y032566D01*
X017740Y032578D01*
X017783Y032587D01*
X017827Y032592D01*
X017871Y032593D01*
X017915Y032590D01*
X017959Y032583D01*
X018002Y032572D01*
X018044Y032558D01*
X018084Y032540D01*
X018123Y032518D01*
X018159Y032494D01*
X018193Y032466D01*
X018225Y032435D01*
X018254Y032401D01*
X018280Y032365D01*
X018302Y032327D01*
X018321Y032287D01*
X018336Y032245D01*
X018348Y032203D01*
X018356Y032159D01*
X018360Y032115D01*
X018360Y032071D01*
X018356Y032027D01*
X018348Y031983D01*
X018336Y031941D01*
X018321Y031899D01*
X018302Y031859D01*
X018280Y031821D01*
X018254Y031785D01*
X018225Y031751D01*
X018193Y031720D01*
X018159Y031692D01*
X018123Y031668D01*
X018084Y031646D01*
X018044Y031628D01*
X018002Y031614D01*
X017959Y031603D01*
X017915Y031596D01*
X017871Y031593D01*
X017827Y031594D01*
X017783Y031599D01*
X017740Y031608D01*
X017697Y031620D01*
X017656Y031637D01*
X017616Y031656D01*
X017579Y031680D01*
X017543Y031706D01*
X017510Y031736D01*
X017480Y031768D01*
X017453Y031803D01*
X017429Y031840D01*
X017408Y031879D01*
X017391Y031920D01*
X017378Y031962D01*
X017368Y032005D01*
X017362Y032049D01*
X017360Y032093D01*
X037661Y021315D02*
X038330Y021315D01*
X038330Y020921D01*
X052053Y031093D02*
X053266Y031093D01*
X053660Y031605D02*
X053660Y032581D01*
X053266Y033093D02*
X052053Y033093D01*
X051660Y032593D02*
X051660Y031605D01*
X052160Y032093D02*
X052162Y032137D01*
X052168Y032181D01*
X052178Y032224D01*
X052191Y032266D01*
X052208Y032307D01*
X052229Y032346D01*
X052253Y032383D01*
X052280Y032418D01*
X052310Y032450D01*
X052343Y032480D01*
X052379Y032506D01*
X052416Y032530D01*
X052456Y032549D01*
X052497Y032566D01*
X052540Y032578D01*
X052583Y032587D01*
X052627Y032592D01*
X052671Y032593D01*
X052715Y032590D01*
X052759Y032583D01*
X052802Y032572D01*
X052844Y032558D01*
X052884Y032540D01*
X052923Y032518D01*
X052959Y032494D01*
X052993Y032466D01*
X053025Y032435D01*
X053054Y032401D01*
X053080Y032365D01*
X053102Y032327D01*
X053121Y032287D01*
X053136Y032245D01*
X053148Y032203D01*
X053156Y032159D01*
X053160Y032115D01*
X053160Y032071D01*
X053156Y032027D01*
X053148Y031983D01*
X053136Y031941D01*
X053121Y031899D01*
X053102Y031859D01*
X053080Y031821D01*
X053054Y031785D01*
X053025Y031751D01*
X052993Y031720D01*
X052959Y031692D01*
X052923Y031668D01*
X052884Y031646D01*
X052844Y031628D01*
X052802Y031614D01*
X052759Y031603D01*
X052715Y031596D01*
X052671Y031593D01*
X052627Y031594D01*
X052583Y031599D01*
X052540Y031608D01*
X052497Y031620D01*
X052456Y031637D01*
X052416Y031656D01*
X052379Y031680D01*
X052343Y031706D01*
X052310Y031736D01*
X052280Y031768D01*
X052253Y031803D01*
X052229Y031840D01*
X052208Y031879D01*
X052191Y031920D01*
X052178Y031962D01*
X052168Y032005D01*
X052162Y032049D01*
X052160Y032093D01*
D15*
X045510Y027155D02*
X045510Y027131D01*
X044178Y026143D02*
X044154Y026143D01*
X043428Y026143D02*
X043404Y026143D01*
X046998Y026143D02*
X047022Y026143D01*
X047685Y026143D02*
X047709Y026143D01*
X048341Y026143D02*
X048365Y026143D01*
X044110Y022655D02*
X044110Y022631D01*
X050123Y021143D02*
X050147Y021143D01*
X050147Y017143D02*
X050123Y017143D01*
X033894Y022518D02*
X033870Y022518D01*
X033106Y022518D02*
X033082Y022518D01*
X030872Y021655D02*
X030872Y021631D01*
X029272Y024893D02*
X029248Y024893D01*
X025760Y028319D02*
X025760Y028343D01*
X021885Y026280D02*
X021885Y026256D01*
X021885Y024905D02*
X021885Y024881D01*
X022635Y022905D02*
X022635Y022881D01*
X022447Y019968D02*
X022447Y019944D01*
D16*
X021010Y020831D03*
X021010Y021393D03*
X019260Y023081D03*
X019260Y024361D03*
X020978Y023849D03*
X020978Y023275D03*
X017860Y027893D03*
X017860Y030593D03*
X030872Y020831D03*
X049385Y022643D03*
X049385Y023393D03*
X052660Y022143D03*
X052660Y024893D03*
X052660Y030643D03*
D17*
X050884Y021143D03*
X050885Y017143D03*
X037031Y022768D03*
X032785Y023793D03*
X032010Y023793D03*
D18*
X022252Y021018D02*
X022248Y021018D01*
D19*
X022500Y021518D02*
X023015Y021518D01*
X023015Y020514D01*
X022500Y020514D01*
X022500Y021518D01*
D20*
X023421Y024893D02*
X023423Y024913D01*
X023428Y024933D01*
X023438Y024951D01*
X023450Y024968D01*
X023465Y024982D01*
X023483Y024992D01*
X023502Y025000D01*
X023522Y025004D01*
X023542Y025004D01*
X023562Y025000D01*
X023581Y024992D01*
X023599Y024982D01*
X023614Y024968D01*
X023626Y024951D01*
X023636Y024933D01*
X023641Y024913D01*
X023643Y024893D01*
X023641Y024873D01*
X023636Y024853D01*
X023626Y024835D01*
X023614Y024818D01*
X023599Y024804D01*
X023581Y024794D01*
X023562Y024786D01*
X023542Y024782D01*
X023522Y024782D01*
X023502Y024786D01*
X023483Y024794D01*
X023465Y024804D01*
X023450Y024818D01*
X023438Y024835D01*
X023428Y024853D01*
X023423Y024873D01*
X023421Y024893D01*
M02*
